G04 #@! TF.GenerationSoftware,KiCad,Pcbnew,(6.0.1)*
G04 #@! TF.CreationDate,2022-01-24T10:18:44+00:00*
G04 #@! TF.ProjectId,Lily58,4c696c79-3538-42e6-9b69-6361645f7063,rev?*
G04 #@! TF.SameCoordinates,Original*
G04 #@! TF.FileFunction,Legend,Top*
G04 #@! TF.FilePolarity,Positive*
%FSLAX46Y46*%
G04 Gerber Fmt 4.6, Leading zero omitted, Abs format (unit mm)*
G04 Created by KiCad (PCBNEW (6.0.1)) date 2022-01-24 10:18:44*
%MOMM*%
%LPD*%
G01*
G04 APERTURE LIST*
%ADD10C,0.180000*%
G04 #@! TA.AperFunction,Profile*
%ADD11C,0.200000*%
G04 #@! TD*
%ADD12C,0.150000*%
%ADD13C,0.152400*%
%ADD14C,0.120000*%
%ADD15C,0.250000*%
%ADD16C,0.010000*%
G04 #@! TA.AperFunction,Profile*
%ADD17C,0.120000*%
G04 #@! TD*
%ADD18C,1.800000*%
%ADD19C,4.000000*%
%ADD20C,1.200000*%
%ADD21R,1.200000X2.100000*%
%ADD22C,2.200000*%
%ADD23C,1.397000*%
G04 APERTURE END LIST*
D10*
X116185904Y-61055047D02*
X115385904Y-61055047D01*
X116185904Y-60597904D01*
X115385904Y-60597904D01*
X116185904Y-60102666D02*
X116147809Y-60178857D01*
X116109714Y-60216952D01*
X116033523Y-60255047D01*
X115804952Y-60255047D01*
X115728761Y-60216952D01*
X115690666Y-60178857D01*
X115652571Y-60102666D01*
X115652571Y-59988380D01*
X115690666Y-59912190D01*
X115728761Y-59874095D01*
X115804952Y-59836000D01*
X116033523Y-59836000D01*
X116109714Y-59874095D01*
X116147809Y-59912190D01*
X116185904Y-59988380D01*
X116185904Y-60102666D01*
X115766857Y-58616952D02*
X115804952Y-58502666D01*
X115843047Y-58464571D01*
X115919238Y-58426476D01*
X116033523Y-58426476D01*
X116109714Y-58464571D01*
X116147809Y-58502666D01*
X116185904Y-58578857D01*
X116185904Y-58883619D01*
X115385904Y-58883619D01*
X115385904Y-58616952D01*
X115424000Y-58540761D01*
X115462095Y-58502666D01*
X115538285Y-58464571D01*
X115614476Y-58464571D01*
X115690666Y-58502666D01*
X115728761Y-58540761D01*
X115766857Y-58616952D01*
X115766857Y-58883619D01*
X116185904Y-57702666D02*
X116185904Y-58083619D01*
X115385904Y-58083619D01*
X155562761Y-94938904D02*
X155562761Y-95510333D01*
X155524666Y-95624619D01*
X155448476Y-95700809D01*
X155334190Y-95738904D01*
X155258000Y-95738904D01*
X156324666Y-95738904D02*
X155943714Y-95738904D01*
X155943714Y-94938904D01*
X157048476Y-95662714D02*
X157010380Y-95700809D01*
X156896095Y-95738904D01*
X156819904Y-95738904D01*
X156705619Y-95700809D01*
X156629428Y-95624619D01*
X156591333Y-95548428D01*
X156553238Y-95396047D01*
X156553238Y-95281761D01*
X156591333Y-95129380D01*
X156629428Y-95053190D01*
X156705619Y-94977000D01*
X156819904Y-94938904D01*
X156896095Y-94938904D01*
X157010380Y-94977000D01*
X157048476Y-95015095D01*
X157619904Y-94938904D02*
X157619904Y-95510333D01*
X157581809Y-95624619D01*
X157505619Y-95700809D01*
X157391333Y-95738904D01*
X157315142Y-95738904D01*
X158381809Y-95738904D02*
X158000857Y-95738904D01*
X158000857Y-94938904D01*
X159105619Y-95662714D02*
X159067523Y-95700809D01*
X158953238Y-95738904D01*
X158877047Y-95738904D01*
X158762761Y-95700809D01*
X158686571Y-95624619D01*
X158648476Y-95548428D01*
X158610380Y-95396047D01*
X158610380Y-95281761D01*
X158648476Y-95129380D01*
X158686571Y-95053190D01*
X158762761Y-94977000D01*
X158877047Y-94938904D01*
X158953238Y-94938904D01*
X159067523Y-94977000D01*
X159105619Y-95015095D01*
X159677047Y-94938904D02*
X159677047Y-95510333D01*
X159638952Y-95624619D01*
X159562761Y-95700809D01*
X159448476Y-95738904D01*
X159372285Y-95738904D01*
X160438952Y-95738904D02*
X160058000Y-95738904D01*
X160058000Y-94938904D01*
X161162761Y-95662714D02*
X161124666Y-95700809D01*
X161010380Y-95738904D01*
X160934190Y-95738904D01*
X160819904Y-95700809D01*
X160743714Y-95624619D01*
X160705619Y-95548428D01*
X160667523Y-95396047D01*
X160667523Y-95281761D01*
X160705619Y-95129380D01*
X160743714Y-95053190D01*
X160819904Y-94977000D01*
X160934190Y-94938904D01*
X161010380Y-94938904D01*
X161124666Y-94977000D01*
X161162761Y-95015095D01*
X161734190Y-94938904D02*
X161734190Y-95510333D01*
X161696095Y-95624619D01*
X161619904Y-95700809D01*
X161505619Y-95738904D01*
X161429428Y-95738904D01*
X162496095Y-95738904D02*
X162115142Y-95738904D01*
X162115142Y-94938904D01*
X163219904Y-95662714D02*
X163181809Y-95700809D01*
X163067523Y-95738904D01*
X162991333Y-95738904D01*
X162877047Y-95700809D01*
X162800857Y-95624619D01*
X162762761Y-95548428D01*
X162724666Y-95396047D01*
X162724666Y-95281761D01*
X162762761Y-95129380D01*
X162800857Y-95053190D01*
X162877047Y-94977000D01*
X162991333Y-94938904D01*
X163067523Y-94938904D01*
X163181809Y-94977000D01*
X163219904Y-95015095D01*
D11*
X104803877Y-37086762D02*
X94400000Y-37086762D01*
X82937528Y-82285296D02*
X82937528Y-75978362D01*
X82937528Y-75978362D02*
X82937528Y-69671429D01*
X82937528Y-88592229D02*
X82937528Y-82285296D01*
X177658308Y-135255660D02*
X177403500Y-135393876D01*
X83776462Y-37108075D02*
X83988210Y-37086762D01*
X93344258Y-125721062D02*
X95019952Y-128587381D01*
X224544152Y-120671952D02*
X224262495Y-120759288D01*
X162080304Y-135511658D02*
X169449826Y-135511658D01*
X225460000Y-71881623D02*
X225460000Y-81363245D01*
X112835230Y-138421062D02*
X114510925Y-137450923D01*
X111159536Y-139391201D02*
X112835230Y-138421062D01*
X94400000Y-37086762D02*
X83988210Y-37086762D01*
X91668563Y-122854742D02*
X93344258Y-125721062D01*
X178319348Y-130379933D02*
X178319348Y-131597973D01*
X89992869Y-119988423D02*
X91668563Y-122854742D01*
X178319348Y-124289735D02*
X178390391Y-123583911D01*
X225459999Y-119289735D02*
X225429552Y-119592231D01*
X136027379Y-37086762D02*
X125619545Y-37086762D01*
X125619545Y-37086762D02*
X115211711Y-37086762D01*
X125232695Y-135511658D02*
X132602217Y-135511658D01*
X225460000Y-100326490D02*
X225460000Y-109808112D01*
X181113524Y-120860778D02*
X181819348Y-120789735D01*
X225204001Y-120128696D02*
X225020912Y-120350648D01*
X225460000Y-109808112D02*
X225460000Y-119289735D01*
X218692418Y-120789735D02*
X223959999Y-120789735D01*
X103714328Y-143322532D02*
X103842470Y-143386445D01*
X225342217Y-119873887D02*
X225204001Y-120128696D01*
X224798960Y-120533736D02*
X224544152Y-120671952D01*
X103491837Y-143088150D02*
X103597295Y-143222884D01*
X208157255Y-120789735D02*
X213424836Y-120789735D01*
X82959523Y-37925015D02*
X83020657Y-37727855D01*
X215525697Y-39885159D02*
X208420758Y-38945561D01*
X224900000Y-42700000D02*
X225460000Y-43436755D01*
X178319348Y-134011658D02*
X178288901Y-134314154D01*
X101722730Y-140052659D02*
X103398425Y-142918979D01*
X225460000Y-43436755D02*
X225460000Y-52918378D01*
X83020657Y-37727855D02*
X83117409Y-37549489D01*
X84020972Y-100690825D02*
X84747083Y-104695246D01*
X225460000Y-62400000D02*
X225460000Y-71881623D01*
X88291758Y-116318073D02*
X89992869Y-119988423D01*
X139971738Y-135511658D02*
X147341260Y-135511658D01*
X178390391Y-123583911D02*
X178594174Y-122926713D01*
X178916678Y-122332160D02*
X179343884Y-121814271D01*
X178319348Y-124289735D02*
X178319348Y-125507775D01*
X208420758Y-38945561D02*
X199807654Y-38170488D01*
X189919538Y-37585374D02*
X178989563Y-37215654D01*
X116186619Y-136480784D02*
X117862313Y-135510645D01*
X156843047Y-37086762D02*
X146435213Y-37086762D01*
X178063349Y-134850619D02*
X177880261Y-135072571D01*
X147341260Y-135511658D02*
X154710782Y-135511658D01*
X177880261Y-135072571D02*
X177658308Y-135255660D01*
X197622092Y-120789735D02*
X202889673Y-120789735D01*
X224262495Y-120759288D02*
X223959999Y-120789735D01*
X104130206Y-143404468D02*
X104288864Y-143357278D01*
X224900000Y-42700000D02*
X224278471Y-42156190D01*
X82937528Y-50750629D02*
X82937528Y-44443695D01*
X82937528Y-44443695D02*
X82937528Y-38136762D01*
X178319348Y-127943854D02*
X178319348Y-129161894D01*
X225429552Y-119592231D02*
X225342217Y-119873887D01*
X132602217Y-135511658D02*
X139971738Y-135511658D01*
X83245570Y-37394123D02*
X83400937Y-37265961D01*
X82937528Y-38136762D02*
X82959523Y-37925015D01*
X220889319Y-40963847D02*
X215525697Y-39885159D01*
X95019952Y-128587381D02*
X96695647Y-131453701D01*
X178319348Y-131597973D02*
X178319348Y-132816013D01*
X225020912Y-120350648D02*
X224798960Y-120533736D01*
X178319348Y-126725814D02*
X178319348Y-127943854D01*
X213424836Y-120789735D02*
X218692418Y-120789735D01*
X178594174Y-122926713D02*
X178916678Y-122332160D01*
X167250881Y-37086762D02*
X156843047Y-37086762D01*
X180456326Y-121064561D02*
X181113524Y-120860778D01*
X83135690Y-92617561D02*
X83490297Y-96657663D01*
X103597295Y-143222884D02*
X103714328Y-143322532D01*
X117862313Y-135510645D02*
X125232695Y-135511658D01*
X109483841Y-140361340D02*
X111159536Y-139391201D01*
X225460000Y-81363245D02*
X225460000Y-90844867D01*
X96695647Y-131453701D02*
X98371341Y-134320020D01*
X115211711Y-37086762D02*
X104803877Y-37086762D01*
X224278471Y-42156190D02*
X220889319Y-40963847D01*
X82937528Y-57057562D02*
X82937528Y-50750629D01*
X202889673Y-120789735D02*
X208157255Y-120789735D01*
X82937528Y-63364495D02*
X82937528Y-57057562D01*
X178288901Y-134314154D02*
X178201565Y-134595810D01*
X103398425Y-142918979D02*
X103491837Y-143088150D01*
X83117409Y-37549489D02*
X83245570Y-37394123D01*
X199807654Y-38170488D02*
X189919538Y-37585374D01*
X192354511Y-120789735D02*
X197622092Y-120789735D01*
X179343884Y-121814271D02*
X179861773Y-121387065D01*
X187086929Y-120789735D02*
X192354511Y-120789735D01*
X178201565Y-134595810D02*
X178063349Y-134850619D01*
X178319348Y-125507775D02*
X178319348Y-126725814D01*
X100047036Y-137186340D02*
X101722730Y-140052659D01*
X178319348Y-132816013D02*
X178319348Y-134011658D01*
X103981252Y-143413974D02*
X104130206Y-143404468D01*
X225460000Y-90844867D02*
X225460000Y-100326490D01*
X104456758Y-143271756D02*
X106132452Y-142301617D01*
X146435213Y-37086762D02*
X136027379Y-37086762D01*
X98371341Y-134320020D02*
X100047036Y-137186340D01*
X178989563Y-37215654D02*
X167250881Y-37086762D01*
X82937528Y-69671429D02*
X82937528Y-63364495D01*
X225460000Y-52918378D02*
X225460000Y-62400000D01*
X103842470Y-143386445D02*
X103981252Y-143413974D01*
X107808147Y-141331479D02*
X109483841Y-140361340D01*
X177121844Y-135481211D02*
X176819348Y-135511658D01*
X154710782Y-135511658D02*
X162080304Y-135511658D01*
X169449826Y-135511658D02*
X176819348Y-135511658D01*
X177403500Y-135393876D02*
X177121844Y-135481211D01*
X104288864Y-143357278D02*
X104456758Y-143271756D01*
X114510925Y-137450923D02*
X116186619Y-136480784D01*
X84747083Y-104695246D02*
X85688004Y-108649127D01*
X86863105Y-112530670D02*
X88291758Y-116318073D01*
X179861773Y-121387065D02*
X180456326Y-121064561D01*
X83579303Y-37169210D02*
X83776462Y-37108075D01*
X85688004Y-108649127D02*
X86863105Y-112530670D01*
X106132452Y-142301617D02*
X107808147Y-141331479D01*
X83400937Y-37265961D02*
X83579303Y-37169210D01*
X83490297Y-96657663D02*
X84020972Y-100690825D01*
X181819348Y-120789735D02*
X187086929Y-120789735D01*
X82937528Y-88592229D02*
X83135690Y-92617561D01*
X178319348Y-129161894D02*
X178319348Y-130379933D01*
D12*
X85067695Y-56135466D02*
X84680647Y-56406400D01*
X85067695Y-56599923D02*
X84254895Y-56599923D01*
X84254895Y-56290285D01*
X84293600Y-56212876D01*
X84332304Y-56174171D01*
X84409714Y-56135466D01*
X84525828Y-56135466D01*
X84603238Y-56174171D01*
X84641942Y-56212876D01*
X84680647Y-56290285D01*
X84680647Y-56599923D01*
X85067695Y-55361371D02*
X85067695Y-55825828D01*
X85067695Y-55593600D02*
X84254895Y-55593600D01*
X84371009Y-55671009D01*
X84448419Y-55748419D01*
X84487123Y-55825828D01*
X87267695Y-56135466D02*
X86880647Y-56406400D01*
X87267695Y-56599923D02*
X86454895Y-56599923D01*
X86454895Y-56290285D01*
X86493600Y-56212876D01*
X86532304Y-56174171D01*
X86609714Y-56135466D01*
X86725828Y-56135466D01*
X86803238Y-56174171D01*
X86841942Y-56212876D01*
X86880647Y-56290285D01*
X86880647Y-56599923D01*
X86532304Y-55825828D02*
X86493600Y-55787123D01*
X86454895Y-55709714D01*
X86454895Y-55516190D01*
X86493600Y-55438780D01*
X86532304Y-55400076D01*
X86609714Y-55361371D01*
X86687123Y-55361371D01*
X86803238Y-55400076D01*
X87267695Y-55864533D01*
X87267695Y-55361371D01*
X85451904Y-69661904D02*
X85070952Y-69928571D01*
X85451904Y-70119047D02*
X84651904Y-70119047D01*
X84651904Y-69814285D01*
X84690000Y-69738095D01*
X84728095Y-69700000D01*
X84804285Y-69661904D01*
X84918571Y-69661904D01*
X84994761Y-69700000D01*
X85032857Y-69738095D01*
X85070952Y-69814285D01*
X85070952Y-70119047D01*
X85032857Y-69319047D02*
X85032857Y-69052380D01*
X85451904Y-68938095D02*
X85451904Y-69319047D01*
X84651904Y-69319047D01*
X84651904Y-68938095D01*
X85413809Y-68633333D02*
X85451904Y-68519047D01*
X85451904Y-68328571D01*
X85413809Y-68252380D01*
X85375714Y-68214285D01*
X85299523Y-68176190D01*
X85223333Y-68176190D01*
X85147142Y-68214285D01*
X85109047Y-68252380D01*
X85070952Y-68328571D01*
X85032857Y-68480952D01*
X84994761Y-68557142D01*
X84956666Y-68595238D01*
X84880476Y-68633333D01*
X84804285Y-68633333D01*
X84728095Y-68595238D01*
X84690000Y-68557142D01*
X84651904Y-68480952D01*
X84651904Y-68290476D01*
X84690000Y-68176190D01*
X85032857Y-67833333D02*
X85032857Y-67566666D01*
X85451904Y-67452380D02*
X85451904Y-67833333D01*
X84651904Y-67833333D01*
X84651904Y-67452380D01*
X84651904Y-67223809D02*
X84651904Y-66766666D01*
X85451904Y-66995238D02*
X84651904Y-66995238D01*
D13*
X88291609Y-62038895D02*
X88485133Y-62851695D01*
X88639952Y-62271123D01*
X88794771Y-62851695D01*
X88988295Y-62038895D01*
X89723685Y-62851695D02*
X89259228Y-62851695D01*
X89491457Y-62851695D02*
X89491457Y-62038895D01*
X89414047Y-62155009D01*
X89336638Y-62232419D01*
X89259228Y-62271123D01*
D12*
X86268076Y-62724695D02*
X86268076Y-61911895D01*
X86577714Y-61911895D01*
X86655123Y-61950600D01*
X86693828Y-61989304D01*
X86732533Y-62066714D01*
X86732533Y-62182828D01*
X86693828Y-62260238D01*
X86655123Y-62298942D01*
X86577714Y-62337647D01*
X86268076Y-62337647D01*
X87042171Y-61989304D02*
X87080876Y-61950600D01*
X87158285Y-61911895D01*
X87351809Y-61911895D01*
X87429219Y-61950600D01*
X87467923Y-61989304D01*
X87506628Y-62066714D01*
X87506628Y-62144123D01*
X87467923Y-62260238D01*
X87003466Y-62724695D01*
X87506628Y-62724695D01*
X84109076Y-62724695D02*
X84109076Y-61911895D01*
X84418714Y-61911895D01*
X84496123Y-61950600D01*
X84534828Y-61989304D01*
X84573533Y-62066714D01*
X84573533Y-62182828D01*
X84534828Y-62260238D01*
X84496123Y-62298942D01*
X84418714Y-62337647D01*
X84109076Y-62337647D01*
X85347628Y-62724695D02*
X84883171Y-62724695D01*
X85115400Y-62724695D02*
X85115400Y-61911895D01*
X85037990Y-62028009D01*
X84960580Y-62105419D01*
X84883171Y-62144123D01*
D14*
X120173000Y-41529000D02*
X117488000Y-41529000D01*
X120173000Y-40979000D02*
X120173000Y-42079000D01*
X120873000Y-41529000D02*
X123563000Y-41529000D01*
X120873000Y-40979000D02*
X120873000Y-42079000D01*
X120173000Y-42079000D02*
X120873000Y-41529000D01*
X120873000Y-41529000D02*
X120173000Y-40979000D01*
X147955000Y-51720000D02*
X147955000Y-49030000D01*
X147405000Y-51720000D02*
X148505000Y-51720000D01*
X147405000Y-52420000D02*
X148505000Y-52420000D01*
X147955000Y-52420000D02*
X147955000Y-55105000D01*
X147955000Y-51720000D02*
X147405000Y-52420000D01*
X148505000Y-52420000D02*
X147955000Y-51720000D01*
X149818000Y-52420000D02*
X150918000Y-52420000D01*
X150918000Y-52420000D02*
X150368000Y-51720000D01*
X149818000Y-51720000D02*
X150918000Y-51720000D01*
X150368000Y-51720000D02*
X150368000Y-49030000D01*
X150368000Y-52420000D02*
X150368000Y-55105000D01*
X150368000Y-51720000D02*
X149818000Y-52420000D01*
X185378000Y-55468000D02*
X186478000Y-55468000D01*
X185928000Y-54768000D02*
X185378000Y-55468000D01*
X185378000Y-54768000D02*
X186478000Y-54768000D01*
X185928000Y-55468000D02*
X185928000Y-58153000D01*
X185928000Y-54768000D02*
X185928000Y-52078000D01*
X186478000Y-55468000D02*
X185928000Y-54768000D01*
X187918000Y-56292000D02*
X189018000Y-56292000D01*
X188468000Y-56292000D02*
X187918000Y-56992000D01*
X189018000Y-56992000D02*
X188468000Y-56292000D01*
X188468000Y-56992000D02*
X188468000Y-59677000D01*
X188468000Y-56292000D02*
X188468000Y-53602000D01*
X187918000Y-56992000D02*
X189018000Y-56992000D01*
X215350000Y-43700000D02*
X215350000Y-44800000D01*
X215350000Y-44800000D02*
X216050000Y-44250000D01*
X216050000Y-44250000D02*
X215350000Y-43700000D01*
X215350000Y-44250000D02*
X212665000Y-44250000D01*
X216050000Y-43700000D02*
X216050000Y-44800000D01*
X216050000Y-44250000D02*
X218740000Y-44250000D01*
X129300000Y-74168750D02*
X128750000Y-73468750D01*
X128200000Y-74168750D02*
X129300000Y-74168750D01*
X128750000Y-73468750D02*
X128750000Y-70778750D01*
X128750000Y-73468750D02*
X128200000Y-74168750D01*
X128200000Y-73468750D02*
X129300000Y-73468750D01*
X128750000Y-74168750D02*
X128750000Y-76853750D01*
X131252540Y-73468750D02*
X131252540Y-70778750D01*
X131252540Y-73468750D02*
X130702540Y-74168750D01*
X130702540Y-74168750D02*
X131802540Y-74168750D01*
X130702540Y-73468750D02*
X131802540Y-73468750D01*
X131252540Y-74168750D02*
X131252540Y-76853750D01*
X131802540Y-74168750D02*
X131252540Y-73468750D01*
X148590000Y-71470000D02*
X148590000Y-74155000D01*
X149140000Y-71470000D02*
X148590000Y-70770000D01*
X148590000Y-70770000D02*
X148040000Y-71470000D01*
X148040000Y-70770000D02*
X149140000Y-70770000D01*
X148590000Y-70770000D02*
X148590000Y-68080000D01*
X148040000Y-71470000D02*
X149140000Y-71470000D01*
X167700000Y-71470000D02*
X168800000Y-71470000D01*
X168250000Y-70770000D02*
X168250000Y-68080000D01*
X168250000Y-71470000D02*
X168250000Y-74155000D01*
X168250000Y-70770000D02*
X167700000Y-71470000D01*
X168800000Y-71470000D02*
X168250000Y-70770000D01*
X167700000Y-70770000D02*
X168800000Y-70770000D01*
X187250000Y-75850000D02*
X187250000Y-73160000D01*
X187250000Y-76550000D02*
X187250000Y-79235000D01*
X186700000Y-75850000D02*
X187800000Y-75850000D01*
X187250000Y-75850000D02*
X186700000Y-76550000D01*
X187800000Y-76550000D02*
X187250000Y-75850000D01*
X186700000Y-76550000D02*
X187800000Y-76550000D01*
X205700000Y-77820000D02*
X206800000Y-77820000D01*
X206250000Y-77120000D02*
X206250000Y-74430000D01*
X206250000Y-77820000D02*
X206250000Y-80505000D01*
X206800000Y-77820000D02*
X206250000Y-77120000D01*
X206250000Y-77120000D02*
X205700000Y-77820000D01*
X205700000Y-77120000D02*
X206800000Y-77120000D01*
X120873000Y-79206000D02*
X120873000Y-80306000D01*
X120873000Y-79756000D02*
X120173000Y-79206000D01*
X120173000Y-79206000D02*
X120173000Y-80306000D01*
X120873000Y-79756000D02*
X123563000Y-79756000D01*
X120173000Y-79756000D02*
X117488000Y-79756000D01*
X120173000Y-80306000D02*
X120873000Y-79756000D01*
X131250000Y-90520000D02*
X131250000Y-93205000D01*
X130700000Y-89820000D02*
X131800000Y-89820000D01*
X131800000Y-90520000D02*
X131250000Y-89820000D01*
X130700000Y-90520000D02*
X131800000Y-90520000D01*
X131250000Y-89820000D02*
X130700000Y-90520000D01*
X131250000Y-89820000D02*
X131250000Y-87130000D01*
X149000000Y-90520000D02*
X149000000Y-93205000D01*
X148450000Y-89820000D02*
X149550000Y-89820000D01*
X149550000Y-90520000D02*
X149000000Y-89820000D01*
X149000000Y-89820000D02*
X148450000Y-90520000D01*
X149000000Y-89820000D02*
X149000000Y-87130000D01*
X148450000Y-90520000D02*
X149550000Y-90520000D01*
X167700000Y-89820000D02*
X168800000Y-89820000D01*
X167700000Y-90520000D02*
X168800000Y-90520000D01*
X168250000Y-89820000D02*
X168250000Y-87130000D01*
X168250000Y-89820000D02*
X167700000Y-90520000D01*
X168250000Y-90520000D02*
X168250000Y-93205000D01*
X168800000Y-90520000D02*
X168250000Y-89820000D01*
X187800000Y-95600000D02*
X187250000Y-94900000D01*
X186700000Y-95600000D02*
X187800000Y-95600000D01*
X187250000Y-94900000D02*
X186700000Y-95600000D01*
X187250000Y-95600000D02*
X187250000Y-98285000D01*
X186700000Y-94900000D02*
X187800000Y-94900000D01*
X187250000Y-94900000D02*
X187250000Y-92210000D01*
X216050000Y-83566000D02*
X215350000Y-83016000D01*
X216050000Y-83566000D02*
X218740000Y-83566000D01*
X215350000Y-83566000D02*
X212665000Y-83566000D01*
X215350000Y-84116000D02*
X216050000Y-83566000D01*
X215350000Y-83016000D02*
X215350000Y-84116000D01*
X216050000Y-83016000D02*
X216050000Y-84116000D01*
X128800000Y-112110000D02*
X128800000Y-114795000D01*
X128800000Y-111410000D02*
X128250000Y-112110000D01*
X128250000Y-111410000D02*
X129350000Y-111410000D01*
X128250000Y-112110000D02*
X129350000Y-112110000D01*
X129350000Y-112110000D02*
X128800000Y-111410000D01*
X128800000Y-111410000D02*
X128800000Y-108720000D01*
X131250000Y-111410000D02*
X130700000Y-112110000D01*
X131250000Y-112110000D02*
X131250000Y-114795000D01*
X130700000Y-111410000D02*
X131800000Y-111410000D01*
X131800000Y-112110000D02*
X131250000Y-111410000D01*
X130700000Y-112110000D02*
X131800000Y-112110000D01*
X131250000Y-111410000D02*
X131250000Y-108720000D01*
X148450000Y-109570000D02*
X149550000Y-109570000D01*
X149000000Y-109570000D02*
X149000000Y-112255000D01*
X149000000Y-108870000D02*
X149000000Y-106180000D01*
X149000000Y-108870000D02*
X148450000Y-109570000D01*
X149550000Y-109570000D02*
X149000000Y-108870000D01*
X148450000Y-108870000D02*
X149550000Y-108870000D01*
X167700000Y-109570000D02*
X168800000Y-109570000D01*
X168250000Y-108870000D02*
X167700000Y-109570000D01*
X168800000Y-109570000D02*
X168250000Y-108870000D01*
X168250000Y-109570000D02*
X168250000Y-112255000D01*
X167700000Y-108870000D02*
X168800000Y-108870000D01*
X168250000Y-108870000D02*
X168250000Y-106180000D01*
X186700000Y-114650000D02*
X187800000Y-114650000D01*
X187250000Y-113950000D02*
X187250000Y-111260000D01*
X186700000Y-113950000D02*
X187800000Y-113950000D01*
X187250000Y-114650000D02*
X187250000Y-117335000D01*
X187800000Y-114650000D02*
X187250000Y-113950000D01*
X187250000Y-113950000D02*
X186700000Y-114650000D01*
X205020000Y-114520000D02*
X204470000Y-113820000D01*
X204470000Y-114520000D02*
X204470000Y-117205000D01*
X204470000Y-113820000D02*
X204470000Y-111130000D01*
X203920000Y-114520000D02*
X205020000Y-114520000D01*
X203920000Y-113820000D02*
X205020000Y-113820000D01*
X204470000Y-113820000D02*
X203920000Y-114520000D01*
X111760000Y-98140000D02*
X111760000Y-100825000D01*
X112310000Y-98140000D02*
X111760000Y-97440000D01*
X111760000Y-97440000D02*
X111760000Y-94750000D01*
X111760000Y-97440000D02*
X111210000Y-98140000D01*
X111210000Y-97440000D02*
X112310000Y-97440000D01*
X111210000Y-98140000D02*
X112310000Y-98140000D01*
X112125000Y-122396891D02*
X110782500Y-120071613D01*
X112475000Y-123003109D02*
X112601314Y-122121891D01*
X112601314Y-122121891D02*
X111648686Y-122671891D01*
X111648686Y-122671891D02*
X112475000Y-123003109D01*
X112951314Y-122728109D02*
X111998686Y-123278109D01*
X112475000Y-123003109D02*
X113820000Y-125332717D01*
X119380000Y-128301000D02*
X118830000Y-129001000D01*
X118830000Y-128301000D02*
X119930000Y-128301000D01*
X118830000Y-129001000D02*
X119930000Y-129001000D01*
X119380000Y-129001000D02*
X119380000Y-131686000D01*
X119930000Y-129001000D02*
X119380000Y-128301000D01*
X119380000Y-128301000D02*
X119380000Y-125611000D01*
X140420000Y-127920000D02*
X141520000Y-127920000D01*
X140970000Y-128620000D02*
X140970000Y-131305000D01*
X140970000Y-127920000D02*
X140970000Y-125230000D01*
X140970000Y-127920000D02*
X140420000Y-128620000D01*
X141520000Y-128620000D02*
X140970000Y-127920000D01*
X140420000Y-128620000D02*
X141520000Y-128620000D01*
X158700000Y-129060000D02*
X158700000Y-126370000D01*
X158700000Y-129060000D02*
X158150000Y-129760000D01*
X159250000Y-129760000D02*
X158700000Y-129060000D01*
X158150000Y-129060000D02*
X159250000Y-129060000D01*
X158700000Y-129760000D02*
X158700000Y-132445000D01*
X158150000Y-129760000D02*
X159250000Y-129760000D01*
D12*
X83687275Y-57540412D02*
X85688795Y-57540412D01*
X85688795Y-57540412D02*
X85688795Y-54538132D01*
X83687275Y-54538132D02*
X83687275Y-57540412D01*
X85688795Y-54538132D02*
X83687275Y-54538132D01*
X87938795Y-57540412D02*
X87938795Y-54538132D01*
X85937275Y-54538132D02*
X85937275Y-57540412D01*
X85937275Y-57540412D02*
X87938795Y-57540412D01*
X87938795Y-54538132D02*
X85937275Y-54538132D01*
X90900000Y-39300000D02*
X90900000Y-51300000D01*
X90900000Y-51300000D02*
X84900000Y-51300000D01*
X84900000Y-39300000D02*
X85400000Y-39300000D01*
X85400000Y-39300000D02*
X85400000Y-37400000D01*
X84900000Y-51300000D02*
X84900000Y-39300000D01*
X90400000Y-39300000D02*
X90400000Y-37400000D01*
X90900000Y-39300000D02*
X90400000Y-39300000D01*
X85400000Y-37400000D02*
X90400000Y-37400000D01*
X86790000Y-65500000D02*
X86390000Y-65500000D01*
X86790000Y-71500000D02*
X86390000Y-71500000D01*
X83290000Y-65500000D02*
X83790000Y-65500000D01*
X83290000Y-71500000D02*
X83790000Y-71500000D01*
X83290000Y-65500000D02*
X83290000Y-71500000D01*
X86790000Y-71500000D02*
X86790000Y-65500000D01*
D15*
X94748815Y-71535745D02*
X94748815Y-41055745D01*
X92208815Y-38515745D02*
X92208815Y-71535745D01*
X94748815Y-41055745D02*
X92208815Y-41055745D01*
X109988815Y-41055745D02*
X107448815Y-41055745D01*
X109988815Y-71535745D02*
X109988815Y-38515745D01*
X107448815Y-71535745D02*
X109988815Y-71535745D01*
D12*
X109988815Y-71535745D02*
X109988815Y-41055745D01*
D15*
X107448815Y-41055745D02*
X107448815Y-71535745D01*
X109988815Y-38515745D02*
X92208815Y-38515745D01*
D12*
X92208815Y-41055745D02*
X92208815Y-71535745D01*
D15*
X92208815Y-71535745D02*
X94748815Y-71535745D01*
D12*
X98311000Y-69257000D02*
X100089000Y-69257000D01*
X100089000Y-69257000D02*
X100089000Y-71543000D01*
X98311000Y-71543000D02*
X98311000Y-69257000D01*
X100089000Y-71543000D02*
X98311000Y-71543000D01*
X97589000Y-71543000D02*
X95811000Y-71543000D01*
X97589000Y-69257000D02*
X97589000Y-71543000D01*
X95811000Y-71543000D02*
X95811000Y-69257000D01*
X95811000Y-69257000D02*
X97589000Y-69257000D01*
X95430000Y-76270000D02*
X105590000Y-76270000D01*
X95430000Y-76270000D02*
X95430000Y-73730000D01*
X95430000Y-73730000D02*
X105590000Y-73730000D01*
X105590000Y-73730000D02*
X105590000Y-76270000D01*
X100911000Y-71543000D02*
X100911000Y-69257000D01*
X102689000Y-69257000D02*
X102689000Y-71543000D01*
X102689000Y-71543000D02*
X100911000Y-71543000D01*
X100911000Y-69257000D02*
X102689000Y-69257000D01*
X105189000Y-69257000D02*
X105189000Y-71543000D01*
X105189000Y-71543000D02*
X103411000Y-71543000D01*
X103411000Y-69257000D02*
X105189000Y-69257000D01*
X103411000Y-71543000D02*
X103411000Y-69257000D01*
X87213973Y-72453759D02*
X94833973Y-72453759D01*
X87213973Y-77533759D02*
X87213973Y-72453759D01*
X94833973Y-72453759D02*
X94833973Y-77533759D01*
X94833973Y-77533759D02*
X87213973Y-77533759D01*
D16*
X99456054Y-61251758D02*
X99494297Y-61207277D01*
X99494297Y-61207277D02*
X99549017Y-61148907D01*
X99549017Y-61148907D02*
X99612835Y-61083992D01*
X99612835Y-61083992D02*
X99678372Y-61019875D01*
X99678372Y-61019875D02*
X99738247Y-60963898D01*
X99738247Y-60963898D02*
X99785083Y-60923405D01*
X99785083Y-60923405D02*
X99811501Y-60905738D01*
X99811501Y-60905738D02*
X99812992Y-60905500D01*
X99812992Y-60905500D02*
X99836242Y-60919888D01*
X99836242Y-60919888D02*
X99880723Y-60958132D01*
X99880723Y-60958132D02*
X99939093Y-61012852D01*
X99939093Y-61012852D02*
X100004008Y-61076670D01*
X100004008Y-61076670D02*
X100068125Y-61142206D01*
X100068125Y-61142206D02*
X100124102Y-61202082D01*
X100124102Y-61202082D02*
X100164595Y-61248918D01*
X100164595Y-61248918D02*
X100182262Y-61275335D01*
X100182262Y-61275335D02*
X100182500Y-61276827D01*
X100182500Y-61276827D02*
X100168291Y-61299302D01*
X100168291Y-61299302D02*
X100129665Y-61344522D01*
X100129665Y-61344522D02*
X100072625Y-61405790D01*
X100072625Y-61405790D02*
X100007432Y-61472176D01*
X100007432Y-61472176D02*
X99936812Y-61540718D01*
X99936812Y-61540718D02*
X99875999Y-61596564D01*
X99875999Y-61596564D02*
X99831721Y-61633743D01*
X99831721Y-61633743D02*
X99811173Y-61646334D01*
X99811173Y-61646334D02*
X99787924Y-61631946D01*
X99787924Y-61631946D02*
X99743442Y-61593703D01*
X99743442Y-61593703D02*
X99685073Y-61538983D01*
X99685073Y-61538983D02*
X99620158Y-61475165D01*
X99620158Y-61475165D02*
X99556041Y-61409628D01*
X99556041Y-61409628D02*
X99500064Y-61349753D01*
X99500064Y-61349753D02*
X99459571Y-61302917D01*
X99459571Y-61302917D02*
X99441904Y-61276499D01*
X99441904Y-61276499D02*
X99441666Y-61275008D01*
X99441666Y-61275008D02*
X99456054Y-61251758D01*
X99456054Y-61251758D02*
X99456054Y-61251758D01*
G36*
X99836242Y-60919888D02*
G01*
X99880723Y-60958132D01*
X99939093Y-61012852D01*
X100004008Y-61076670D01*
X100068125Y-61142206D01*
X100124102Y-61202082D01*
X100164595Y-61248918D01*
X100182262Y-61275335D01*
X100182500Y-61276827D01*
X100168291Y-61299302D01*
X100129665Y-61344522D01*
X100072625Y-61405790D01*
X100007432Y-61472176D01*
X99936812Y-61540718D01*
X99875999Y-61596564D01*
X99831721Y-61633743D01*
X99811173Y-61646334D01*
X99787924Y-61631946D01*
X99743442Y-61593703D01*
X99685073Y-61538983D01*
X99620158Y-61475165D01*
X99556041Y-61409628D01*
X99500064Y-61349753D01*
X99459571Y-61302917D01*
X99441904Y-61276499D01*
X99441666Y-61275008D01*
X99456054Y-61251758D01*
X99494297Y-61207277D01*
X99549017Y-61148907D01*
X99612835Y-61083992D01*
X99678372Y-61019875D01*
X99738247Y-60963898D01*
X99785083Y-60923405D01*
X99811501Y-60905738D01*
X99812992Y-60905500D01*
X99836242Y-60919888D01*
G37*
X99836242Y-60919888D02*
X99880723Y-60958132D01*
X99939093Y-61012852D01*
X100004008Y-61076670D01*
X100068125Y-61142206D01*
X100124102Y-61202082D01*
X100164595Y-61248918D01*
X100182262Y-61275335D01*
X100182500Y-61276827D01*
X100168291Y-61299302D01*
X100129665Y-61344522D01*
X100072625Y-61405790D01*
X100007432Y-61472176D01*
X99936812Y-61540718D01*
X99875999Y-61596564D01*
X99831721Y-61633743D01*
X99811173Y-61646334D01*
X99787924Y-61631946D01*
X99743442Y-61593703D01*
X99685073Y-61538983D01*
X99620158Y-61475165D01*
X99556041Y-61409628D01*
X99500064Y-61349753D01*
X99459571Y-61302917D01*
X99441904Y-61276499D01*
X99441666Y-61275008D01*
X99456054Y-61251758D01*
X99494297Y-61207277D01*
X99549017Y-61148907D01*
X99612835Y-61083992D01*
X99678372Y-61019875D01*
X99738247Y-60963898D01*
X99785083Y-60923405D01*
X99811501Y-60905738D01*
X99812992Y-60905500D01*
X99836242Y-60919888D01*
X98195217Y-52778170D02*
X98204715Y-52722808D01*
X98204715Y-52722808D02*
X98224844Y-52681436D01*
X98224844Y-52681436D02*
X98243909Y-52656972D01*
X98243909Y-52656972D02*
X98294986Y-52597584D01*
X98294986Y-52597584D02*
X100260034Y-52587000D01*
X100260034Y-52587000D02*
X100594065Y-52585161D01*
X100594065Y-52585161D02*
X100888373Y-52583422D01*
X100888373Y-52583422D02*
X101145570Y-52581723D01*
X101145570Y-52581723D02*
X101368268Y-52580001D01*
X101368268Y-52580001D02*
X101559077Y-52578195D01*
X101559077Y-52578195D02*
X101720608Y-52576244D01*
X101720608Y-52576244D02*
X101855473Y-52574086D01*
X101855473Y-52574086D02*
X101966283Y-52571659D01*
X101966283Y-52571659D02*
X102055648Y-52568902D01*
X102055648Y-52568902D02*
X102126180Y-52565753D01*
X102126180Y-52565753D02*
X102180489Y-52562150D01*
X102180489Y-52562150D02*
X102221188Y-52558032D01*
X102221188Y-52558032D02*
X102250887Y-52553337D01*
X102250887Y-52553337D02*
X102272196Y-52548004D01*
X102272196Y-52548004D02*
X102287728Y-52541970D01*
X102287728Y-52541970D02*
X102293516Y-52539017D01*
X102293516Y-52539017D02*
X102365207Y-52479553D01*
X102365207Y-52479553D02*
X102412282Y-52390850D01*
X102412282Y-52390850D02*
X102432925Y-52303507D01*
X102432925Y-52303507D02*
X102453684Y-52235176D01*
X102453684Y-52235176D02*
X102487675Y-52176728D01*
X102487675Y-52176728D02*
X102492518Y-52171215D01*
X102492518Y-52171215D02*
X102524547Y-52143642D01*
X102524547Y-52143642D02*
X102563748Y-52128466D01*
X102563748Y-52128466D02*
X102623216Y-52122231D01*
X102623216Y-52122231D02*
X102681511Y-52121334D01*
X102681511Y-52121334D02*
X102785873Y-52126583D01*
X102785873Y-52126583D02*
X102855688Y-52146577D01*
X102855688Y-52146577D02*
X102897908Y-52187687D01*
X102897908Y-52187687D02*
X102919481Y-52256284D01*
X102919481Y-52256284D02*
X102926974Y-52346329D01*
X102926974Y-52346329D02*
X102926662Y-52434689D01*
X102926662Y-52434689D02*
X102920763Y-52518409D01*
X102920763Y-52518409D02*
X102912248Y-52571212D01*
X102912248Y-52571212D02*
X102857142Y-52718862D01*
X102857142Y-52718862D02*
X102771872Y-52854270D01*
X102771872Y-52854270D02*
X102664149Y-52967283D01*
X102664149Y-52967283D02*
X102555480Y-53040887D01*
X102555480Y-53040887D02*
X102524150Y-53056657D01*
X102524150Y-53056657D02*
X102493050Y-53070594D01*
X102493050Y-53070594D02*
X102459495Y-53082814D01*
X102459495Y-53082814D02*
X102420799Y-53093428D01*
X102420799Y-53093428D02*
X102374280Y-53102551D01*
X102374280Y-53102551D02*
X102317251Y-53110297D01*
X102317251Y-53110297D02*
X102247029Y-53116778D01*
X102247029Y-53116778D02*
X102160929Y-53122109D01*
X102160929Y-53122109D02*
X102056267Y-53126402D01*
X102056267Y-53126402D02*
X101930358Y-53129771D01*
X101930358Y-53129771D02*
X101780517Y-53132331D01*
X101780517Y-53132331D02*
X101604060Y-53134193D01*
X101604060Y-53134193D02*
X101398302Y-53135473D01*
X101398302Y-53135473D02*
X101160559Y-53136283D01*
X101160559Y-53136283D02*
X100888146Y-53136736D01*
X100888146Y-53136736D02*
X100578379Y-53136947D01*
X100578379Y-53136947D02*
X100281990Y-53137021D01*
X100281990Y-53137021D02*
X99945335Y-53137000D01*
X99945335Y-53137000D02*
X99648503Y-53136798D01*
X99648503Y-53136798D02*
X99388981Y-53136375D01*
X99388981Y-53136375D02*
X99164261Y-53135694D01*
X99164261Y-53135694D02*
X98971830Y-53134716D01*
X98971830Y-53134716D02*
X98809177Y-53133402D01*
X98809177Y-53133402D02*
X98673793Y-53131714D01*
X98673793Y-53131714D02*
X98563166Y-53129614D01*
X98563166Y-53129614D02*
X98474785Y-53127062D01*
X98474785Y-53127062D02*
X98406140Y-53124022D01*
X98406140Y-53124022D02*
X98354719Y-53120454D01*
X98354719Y-53120454D02*
X98318011Y-53116320D01*
X98318011Y-53116320D02*
X98293507Y-53111581D01*
X98293507Y-53111581D02*
X98279013Y-53106367D01*
X98279013Y-53106367D02*
X98238116Y-53080636D01*
X98238116Y-53080636D02*
X98212545Y-53048282D01*
X98212545Y-53048282D02*
X98198824Y-52999426D01*
X98198824Y-52999426D02*
X98193473Y-52924190D01*
X98193473Y-52924190D02*
X98192833Y-52861616D01*
X98192833Y-52861616D02*
X98195217Y-52778170D01*
X98195217Y-52778170D02*
X98195217Y-52778170D01*
G36*
X102785873Y-52126583D02*
G01*
X102855688Y-52146577D01*
X102897908Y-52187687D01*
X102919481Y-52256284D01*
X102926974Y-52346329D01*
X102926662Y-52434689D01*
X102920763Y-52518409D01*
X102912248Y-52571212D01*
X102857142Y-52718862D01*
X102771872Y-52854270D01*
X102664149Y-52967283D01*
X102555480Y-53040887D01*
X102524150Y-53056657D01*
X102493050Y-53070594D01*
X102459495Y-53082814D01*
X102420799Y-53093428D01*
X102374280Y-53102551D01*
X102317251Y-53110297D01*
X102247029Y-53116778D01*
X102160929Y-53122109D01*
X102056267Y-53126402D01*
X101930358Y-53129771D01*
X101780517Y-53132331D01*
X101604060Y-53134193D01*
X101398302Y-53135473D01*
X101160559Y-53136283D01*
X100888146Y-53136736D01*
X100578379Y-53136947D01*
X100281990Y-53137021D01*
X99945335Y-53137000D01*
X99648503Y-53136798D01*
X99388981Y-53136375D01*
X99164261Y-53135694D01*
X98971830Y-53134716D01*
X98809177Y-53133402D01*
X98673793Y-53131714D01*
X98563166Y-53129614D01*
X98474785Y-53127062D01*
X98406140Y-53124022D01*
X98354719Y-53120454D01*
X98318011Y-53116320D01*
X98293507Y-53111581D01*
X98279013Y-53106367D01*
X98238116Y-53080636D01*
X98212545Y-53048282D01*
X98198824Y-52999426D01*
X98193473Y-52924190D01*
X98192833Y-52861616D01*
X98195217Y-52778170D01*
X98204715Y-52722808D01*
X98224844Y-52681436D01*
X98243909Y-52656972D01*
X98294986Y-52597584D01*
X100260034Y-52587000D01*
X100594065Y-52585161D01*
X100888373Y-52583422D01*
X101145570Y-52581723D01*
X101368268Y-52580001D01*
X101559077Y-52578195D01*
X101720608Y-52576244D01*
X101855473Y-52574086D01*
X101966283Y-52571659D01*
X102055648Y-52568902D01*
X102126180Y-52565753D01*
X102180489Y-52562150D01*
X102221188Y-52558032D01*
X102250887Y-52553337D01*
X102272196Y-52548004D01*
X102287728Y-52541970D01*
X102293516Y-52539017D01*
X102365207Y-52479553D01*
X102412282Y-52390850D01*
X102432925Y-52303507D01*
X102453684Y-52235176D01*
X102487675Y-52176728D01*
X102492518Y-52171215D01*
X102524547Y-52143642D01*
X102563748Y-52128466D01*
X102623216Y-52122231D01*
X102681511Y-52121334D01*
X102785873Y-52126583D01*
G37*
X102785873Y-52126583D02*
X102855688Y-52146577D01*
X102897908Y-52187687D01*
X102919481Y-52256284D01*
X102926974Y-52346329D01*
X102926662Y-52434689D01*
X102920763Y-52518409D01*
X102912248Y-52571212D01*
X102857142Y-52718862D01*
X102771872Y-52854270D01*
X102664149Y-52967283D01*
X102555480Y-53040887D01*
X102524150Y-53056657D01*
X102493050Y-53070594D01*
X102459495Y-53082814D01*
X102420799Y-53093428D01*
X102374280Y-53102551D01*
X102317251Y-53110297D01*
X102247029Y-53116778D01*
X102160929Y-53122109D01*
X102056267Y-53126402D01*
X101930358Y-53129771D01*
X101780517Y-53132331D01*
X101604060Y-53134193D01*
X101398302Y-53135473D01*
X101160559Y-53136283D01*
X100888146Y-53136736D01*
X100578379Y-53136947D01*
X100281990Y-53137021D01*
X99945335Y-53137000D01*
X99648503Y-53136798D01*
X99388981Y-53136375D01*
X99164261Y-53135694D01*
X98971830Y-53134716D01*
X98809177Y-53133402D01*
X98673793Y-53131714D01*
X98563166Y-53129614D01*
X98474785Y-53127062D01*
X98406140Y-53124022D01*
X98354719Y-53120454D01*
X98318011Y-53116320D01*
X98293507Y-53111581D01*
X98279013Y-53106367D01*
X98238116Y-53080636D01*
X98212545Y-53048282D01*
X98198824Y-52999426D01*
X98193473Y-52924190D01*
X98192833Y-52861616D01*
X98195217Y-52778170D01*
X98204715Y-52722808D01*
X98224844Y-52681436D01*
X98243909Y-52656972D01*
X98294986Y-52597584D01*
X100260034Y-52587000D01*
X100594065Y-52585161D01*
X100888373Y-52583422D01*
X101145570Y-52581723D01*
X101368268Y-52580001D01*
X101559077Y-52578195D01*
X101720608Y-52576244D01*
X101855473Y-52574086D01*
X101966283Y-52571659D01*
X102055648Y-52568902D01*
X102126180Y-52565753D01*
X102180489Y-52562150D01*
X102221188Y-52558032D01*
X102250887Y-52553337D01*
X102272196Y-52548004D01*
X102287728Y-52541970D01*
X102293516Y-52539017D01*
X102365207Y-52479553D01*
X102412282Y-52390850D01*
X102432925Y-52303507D01*
X102453684Y-52235176D01*
X102487675Y-52176728D01*
X102492518Y-52171215D01*
X102524547Y-52143642D01*
X102563748Y-52128466D01*
X102623216Y-52122231D01*
X102681511Y-52121334D01*
X102785873Y-52126583D01*
X99519573Y-60531075D02*
X99557315Y-60486931D01*
X99557315Y-60486931D02*
X99610177Y-60430878D01*
X99610177Y-60430878D02*
X99669944Y-60371072D01*
X99669944Y-60371072D02*
X99728399Y-60315670D01*
X99728399Y-60315670D02*
X99777326Y-60272831D01*
X99777326Y-60272831D02*
X99808510Y-60250710D01*
X99808510Y-60250710D02*
X99813182Y-60249334D01*
X99813182Y-60249334D02*
X99837258Y-60263740D01*
X99837258Y-60263740D02*
X99881402Y-60301483D01*
X99881402Y-60301483D02*
X99937456Y-60354345D01*
X99937456Y-60354345D02*
X99997262Y-60414112D01*
X99997262Y-60414112D02*
X100052663Y-60472567D01*
X100052663Y-60472567D02*
X100095503Y-60521494D01*
X100095503Y-60521494D02*
X100117623Y-60552678D01*
X100117623Y-60552678D02*
X100119000Y-60557349D01*
X100119000Y-60557349D02*
X100104838Y-60580562D01*
X100104838Y-60580562D02*
X100066804Y-60625475D01*
X100066804Y-60625475D02*
X100011569Y-60684480D01*
X100011569Y-60684480D02*
X99975593Y-60720860D01*
X99975593Y-60720860D02*
X99911541Y-60782344D01*
X99911541Y-60782344D02*
X99857421Y-60830467D01*
X99857421Y-60830467D02*
X99820897Y-60858607D01*
X99820897Y-60858607D02*
X99810984Y-60863167D01*
X99810984Y-60863167D02*
X99786907Y-60848761D01*
X99786907Y-60848761D02*
X99742763Y-60811018D01*
X99742763Y-60811018D02*
X99686710Y-60758156D01*
X99686710Y-60758156D02*
X99626904Y-60698389D01*
X99626904Y-60698389D02*
X99571503Y-60639934D01*
X99571503Y-60639934D02*
X99528663Y-60591007D01*
X99528663Y-60591007D02*
X99506543Y-60559823D01*
X99506543Y-60559823D02*
X99505166Y-60555152D01*
X99505166Y-60555152D02*
X99519573Y-60531075D01*
X99519573Y-60531075D02*
X99519573Y-60531075D01*
G36*
X99837258Y-60263740D02*
G01*
X99881402Y-60301483D01*
X99937456Y-60354345D01*
X99997262Y-60414112D01*
X100052663Y-60472567D01*
X100095503Y-60521494D01*
X100117623Y-60552678D01*
X100119000Y-60557349D01*
X100104838Y-60580562D01*
X100066804Y-60625475D01*
X100011569Y-60684480D01*
X99975593Y-60720860D01*
X99911541Y-60782344D01*
X99857421Y-60830467D01*
X99820897Y-60858607D01*
X99810984Y-60863167D01*
X99786907Y-60848761D01*
X99742763Y-60811018D01*
X99686710Y-60758156D01*
X99626904Y-60698389D01*
X99571503Y-60639934D01*
X99528663Y-60591007D01*
X99506543Y-60559823D01*
X99505166Y-60555152D01*
X99519573Y-60531075D01*
X99557315Y-60486931D01*
X99610177Y-60430878D01*
X99669944Y-60371072D01*
X99728399Y-60315670D01*
X99777326Y-60272831D01*
X99808510Y-60250710D01*
X99813182Y-60249334D01*
X99837258Y-60263740D01*
G37*
X99837258Y-60263740D02*
X99881402Y-60301483D01*
X99937456Y-60354345D01*
X99997262Y-60414112D01*
X100052663Y-60472567D01*
X100095503Y-60521494D01*
X100117623Y-60552678D01*
X100119000Y-60557349D01*
X100104838Y-60580562D01*
X100066804Y-60625475D01*
X100011569Y-60684480D01*
X99975593Y-60720860D01*
X99911541Y-60782344D01*
X99857421Y-60830467D01*
X99820897Y-60858607D01*
X99810984Y-60863167D01*
X99786907Y-60848761D01*
X99742763Y-60811018D01*
X99686710Y-60758156D01*
X99626904Y-60698389D01*
X99571503Y-60639934D01*
X99528663Y-60591007D01*
X99506543Y-60559823D01*
X99505166Y-60555152D01*
X99519573Y-60531075D01*
X99557315Y-60486931D01*
X99610177Y-60430878D01*
X99669944Y-60371072D01*
X99728399Y-60315670D01*
X99777326Y-60272831D01*
X99808510Y-60250710D01*
X99813182Y-60249334D01*
X99837258Y-60263740D01*
X98143720Y-59939425D02*
X98181964Y-59894943D01*
X98181964Y-59894943D02*
X98236684Y-59836574D01*
X98236684Y-59836574D02*
X98300502Y-59771659D01*
X98300502Y-59771659D02*
X98366038Y-59707542D01*
X98366038Y-59707542D02*
X98425914Y-59651565D01*
X98425914Y-59651565D02*
X98472750Y-59611072D01*
X98472750Y-59611072D02*
X98499167Y-59593405D01*
X98499167Y-59593405D02*
X98500659Y-59593167D01*
X98500659Y-59593167D02*
X98523909Y-59607555D01*
X98523909Y-59607555D02*
X98568390Y-59645798D01*
X98568390Y-59645798D02*
X98626759Y-59700518D01*
X98626759Y-59700518D02*
X98691674Y-59764336D01*
X98691674Y-59764336D02*
X98755792Y-59829873D01*
X98755792Y-59829873D02*
X98811768Y-59889748D01*
X98811768Y-59889748D02*
X98852262Y-59936584D01*
X98852262Y-59936584D02*
X98869929Y-59963002D01*
X98869929Y-59963002D02*
X98870166Y-59964493D01*
X98870166Y-59964493D02*
X98855957Y-59986968D01*
X98855957Y-59986968D02*
X98817332Y-60032189D01*
X98817332Y-60032189D02*
X98760291Y-60093457D01*
X98760291Y-60093457D02*
X98695099Y-60159843D01*
X98695099Y-60159843D02*
X98624479Y-60228385D01*
X98624479Y-60228385D02*
X98563666Y-60284231D01*
X98563666Y-60284231D02*
X98519388Y-60321409D01*
X98519388Y-60321409D02*
X98498840Y-60334000D01*
X98498840Y-60334000D02*
X98475590Y-60319613D01*
X98475590Y-60319613D02*
X98431109Y-60281369D01*
X98431109Y-60281369D02*
X98372740Y-60226649D01*
X98372740Y-60226649D02*
X98307825Y-60162831D01*
X98307825Y-60162831D02*
X98243707Y-60097295D01*
X98243707Y-60097295D02*
X98187731Y-60037419D01*
X98187731Y-60037419D02*
X98147237Y-59990583D01*
X98147237Y-59990583D02*
X98129570Y-59964166D01*
X98129570Y-59964166D02*
X98129333Y-59962674D01*
X98129333Y-59962674D02*
X98143720Y-59939425D01*
X98143720Y-59939425D02*
X98143720Y-59939425D01*
G36*
X98523909Y-59607555D02*
G01*
X98568390Y-59645798D01*
X98626759Y-59700518D01*
X98691674Y-59764336D01*
X98755792Y-59829873D01*
X98811768Y-59889748D01*
X98852262Y-59936584D01*
X98869929Y-59963002D01*
X98870166Y-59964493D01*
X98855957Y-59986968D01*
X98817332Y-60032189D01*
X98760291Y-60093457D01*
X98695099Y-60159843D01*
X98624479Y-60228385D01*
X98563666Y-60284231D01*
X98519388Y-60321409D01*
X98498840Y-60334000D01*
X98475590Y-60319613D01*
X98431109Y-60281369D01*
X98372740Y-60226649D01*
X98307825Y-60162831D01*
X98243707Y-60097295D01*
X98187731Y-60037419D01*
X98147237Y-59990583D01*
X98129570Y-59964166D01*
X98129333Y-59962674D01*
X98143720Y-59939425D01*
X98181964Y-59894943D01*
X98236684Y-59836574D01*
X98300502Y-59771659D01*
X98366038Y-59707542D01*
X98425914Y-59651565D01*
X98472750Y-59611072D01*
X98499167Y-59593405D01*
X98500659Y-59593167D01*
X98523909Y-59607555D01*
G37*
X98523909Y-59607555D02*
X98568390Y-59645798D01*
X98626759Y-59700518D01*
X98691674Y-59764336D01*
X98755792Y-59829873D01*
X98811768Y-59889748D01*
X98852262Y-59936584D01*
X98869929Y-59963002D01*
X98870166Y-59964493D01*
X98855957Y-59986968D01*
X98817332Y-60032189D01*
X98760291Y-60093457D01*
X98695099Y-60159843D01*
X98624479Y-60228385D01*
X98563666Y-60284231D01*
X98519388Y-60321409D01*
X98498840Y-60334000D01*
X98475590Y-60319613D01*
X98431109Y-60281369D01*
X98372740Y-60226649D01*
X98307825Y-60162831D01*
X98243707Y-60097295D01*
X98187731Y-60037419D01*
X98147237Y-59990583D01*
X98129570Y-59964166D01*
X98129333Y-59962674D01*
X98143720Y-59939425D01*
X98181964Y-59894943D01*
X98236684Y-59836574D01*
X98300502Y-59771659D01*
X98366038Y-59707542D01*
X98425914Y-59651565D01*
X98472750Y-59611072D01*
X98499167Y-59593405D01*
X98500659Y-59593167D01*
X98523909Y-59607555D01*
X98194335Y-54266076D02*
X98200803Y-54197592D01*
X98200803Y-54197592D02*
X98215178Y-54153089D01*
X98215178Y-54153089D02*
X98240404Y-54123417D01*
X98240404Y-54123417D02*
X98279013Y-54099634D01*
X98279013Y-54099634D02*
X98334165Y-54083505D01*
X98334165Y-54083505D02*
X98417125Y-54073097D01*
X98417125Y-54073097D02*
X98513712Y-54068721D01*
X98513712Y-54068721D02*
X98609749Y-54070687D01*
X98609749Y-54070687D02*
X98691056Y-54079308D01*
X98691056Y-54079308D02*
X98732229Y-54089699D01*
X98732229Y-54089699D02*
X98785117Y-54131221D01*
X98785117Y-54131221D02*
X98822974Y-54205036D01*
X98822974Y-54205036D02*
X98843858Y-54303178D01*
X98843858Y-54303178D02*
X98845825Y-54417684D01*
X98845825Y-54417684D02*
X98834117Y-54507454D01*
X98834117Y-54507454D02*
X98811364Y-54553841D01*
X98811364Y-54553841D02*
X98770645Y-54597412D01*
X98770645Y-54597412D02*
X98738769Y-54617691D01*
X98738769Y-54617691D02*
X98698958Y-54630464D01*
X98698958Y-54630464D02*
X98641225Y-54637347D01*
X98641225Y-54637347D02*
X98555582Y-54639956D01*
X98555582Y-54639956D02*
X98506516Y-54640167D01*
X98506516Y-54640167D02*
X98409028Y-54639384D01*
X98409028Y-54639384D02*
X98343969Y-54635723D01*
X98343969Y-54635723D02*
X98301444Y-54627222D01*
X98301444Y-54627222D02*
X98271558Y-54611916D01*
X98271558Y-54611916D02*
X98244787Y-54588213D01*
X98244787Y-54588213D02*
X98218342Y-54557313D01*
X98218342Y-54557313D02*
X98202725Y-54522344D01*
X98202725Y-54522344D02*
X98195167Y-54471551D01*
X98195167Y-54471551D02*
X98192898Y-54393179D01*
X98192898Y-54393179D02*
X98192833Y-54367694D01*
X98192833Y-54367694D02*
X98194335Y-54266076D01*
X98194335Y-54266076D02*
X98194335Y-54266076D01*
G36*
X98609749Y-54070687D02*
G01*
X98691056Y-54079308D01*
X98732229Y-54089699D01*
X98785117Y-54131221D01*
X98822974Y-54205036D01*
X98843858Y-54303178D01*
X98845825Y-54417684D01*
X98834117Y-54507454D01*
X98811364Y-54553841D01*
X98770645Y-54597412D01*
X98738769Y-54617691D01*
X98698958Y-54630464D01*
X98641225Y-54637347D01*
X98555582Y-54639956D01*
X98506516Y-54640167D01*
X98409028Y-54639384D01*
X98343969Y-54635723D01*
X98301444Y-54627222D01*
X98271558Y-54611916D01*
X98244787Y-54588213D01*
X98218342Y-54557313D01*
X98202725Y-54522344D01*
X98195167Y-54471551D01*
X98192898Y-54393179D01*
X98192833Y-54367694D01*
X98194335Y-54266076D01*
X98200803Y-54197592D01*
X98215178Y-54153089D01*
X98240404Y-54123417D01*
X98279013Y-54099634D01*
X98334165Y-54083505D01*
X98417125Y-54073097D01*
X98513712Y-54068721D01*
X98609749Y-54070687D01*
G37*
X98609749Y-54070687D02*
X98691056Y-54079308D01*
X98732229Y-54089699D01*
X98785117Y-54131221D01*
X98822974Y-54205036D01*
X98843858Y-54303178D01*
X98845825Y-54417684D01*
X98834117Y-54507454D01*
X98811364Y-54553841D01*
X98770645Y-54597412D01*
X98738769Y-54617691D01*
X98698958Y-54630464D01*
X98641225Y-54637347D01*
X98555582Y-54639956D01*
X98506516Y-54640167D01*
X98409028Y-54639384D01*
X98343969Y-54635723D01*
X98301444Y-54627222D01*
X98271558Y-54611916D01*
X98244787Y-54588213D01*
X98218342Y-54557313D01*
X98202725Y-54522344D01*
X98195167Y-54471551D01*
X98192898Y-54393179D01*
X98192833Y-54367694D01*
X98194335Y-54266076D01*
X98200803Y-54197592D01*
X98215178Y-54153089D01*
X98240404Y-54123417D01*
X98279013Y-54099634D01*
X98334165Y-54083505D01*
X98417125Y-54073097D01*
X98513712Y-54068721D01*
X98609749Y-54070687D01*
X98214000Y-45752528D02*
X98261864Y-45696882D01*
X98261864Y-45696882D02*
X98320528Y-45655785D01*
X98320528Y-45655785D02*
X98403055Y-45631683D01*
X98403055Y-45631683D02*
X98497604Y-45624138D01*
X98497604Y-45624138D02*
X98592331Y-45632715D01*
X98592331Y-45632715D02*
X98675394Y-45656977D01*
X98675394Y-45656977D02*
X98734950Y-45696488D01*
X98734950Y-45696488D02*
X98748620Y-45714821D01*
X98748620Y-45714821D02*
X98756093Y-45740903D01*
X98756093Y-45740903D02*
X98762614Y-45793005D01*
X98762614Y-45793005D02*
X98768295Y-45873757D01*
X98768295Y-45873757D02*
X98773246Y-45985786D01*
X98773246Y-45985786D02*
X98777579Y-46131723D01*
X98777579Y-46131723D02*
X98781405Y-46314196D01*
X98781405Y-46314196D02*
X98784836Y-46535834D01*
X98784836Y-46535834D02*
X98785500Y-46586250D01*
X98785500Y-46586250D02*
X98796083Y-47411750D01*
X98796083Y-47411750D02*
X99388750Y-47478482D01*
X99388750Y-47478482D02*
X99541997Y-47495584D01*
X99541997Y-47495584D02*
X99680835Y-47510785D01*
X99680835Y-47510785D02*
X99799906Y-47523521D01*
X99799906Y-47523521D02*
X99893857Y-47533230D01*
X99893857Y-47533230D02*
X99957332Y-47539350D01*
X99957332Y-47539350D02*
X99984976Y-47541318D01*
X99984976Y-47541318D02*
X99985720Y-47541206D01*
X99985720Y-47541206D02*
X99981186Y-47520952D01*
X99981186Y-47520952D02*
X99965223Y-47471322D01*
X99965223Y-47471322D02*
X99941166Y-47402618D01*
X99941166Y-47402618D02*
X99938453Y-47395124D01*
X99938453Y-47395124D02*
X99881886Y-47180978D01*
X99881886Y-47180978D02*
X99860765Y-46946880D01*
X99860765Y-46946880D02*
X99868910Y-46747327D01*
X99868910Y-46747327D02*
X99911704Y-46490232D01*
X99911704Y-46490232D02*
X99989819Y-46250543D01*
X99989819Y-46250543D02*
X100100869Y-46031395D01*
X100100869Y-46031395D02*
X100242467Y-45835928D01*
X100242467Y-45835928D02*
X100412226Y-45667279D01*
X100412226Y-45667279D02*
X100607761Y-45528584D01*
X100607761Y-45528584D02*
X100826684Y-45422981D01*
X100826684Y-45422981D02*
X100894655Y-45398847D01*
X100894655Y-45398847D02*
X100972956Y-45374251D01*
X100972956Y-45374251D02*
X101039149Y-45357282D01*
X101039149Y-45357282D02*
X101104371Y-45346579D01*
X101104371Y-45346579D02*
X101179762Y-45340778D01*
X101179762Y-45340778D02*
X101276458Y-45338519D01*
X101276458Y-45338519D02*
X101389000Y-45338381D01*
X101389000Y-45338381D02*
X101514325Y-45339460D01*
X101514325Y-45339460D02*
X101608072Y-45342689D01*
X101608072Y-45342689D02*
X101680986Y-45349415D01*
X101680986Y-45349415D02*
X101743816Y-45360988D01*
X101743816Y-45360988D02*
X101807307Y-45378756D01*
X101807307Y-45378756D02*
X101865250Y-45398146D01*
X101865250Y-45398146D02*
X102107582Y-45502762D01*
X102107582Y-45502762D02*
X102320978Y-45638276D01*
X102320978Y-45638276D02*
X102505488Y-45804731D01*
X102505488Y-45804731D02*
X102661158Y-46002169D01*
X102661158Y-46002169D02*
X102775352Y-46203700D01*
X102775352Y-46203700D02*
X102846676Y-46385109D01*
X102846676Y-46385109D02*
X102900473Y-46590004D01*
X102900473Y-46590004D02*
X102934480Y-46804205D01*
X102934480Y-46804205D02*
X102946434Y-47013534D01*
X102946434Y-47013534D02*
X102934515Y-47200676D01*
X102934515Y-47200676D02*
X102886293Y-47437609D01*
X102886293Y-47437609D02*
X102811111Y-47665987D01*
X102811111Y-47665987D02*
X102712630Y-47878194D01*
X102712630Y-47878194D02*
X102594511Y-48066618D01*
X102594511Y-48066618D02*
X102460414Y-48223643D01*
X102460414Y-48223643D02*
X102428042Y-48254205D01*
X102428042Y-48254205D02*
X102359621Y-48306896D01*
X102359621Y-48306896D02*
X102297686Y-48329542D01*
X102297686Y-48329542D02*
X102232871Y-48321695D01*
X102232871Y-48321695D02*
X102155808Y-48282903D01*
X102155808Y-48282903D02*
X102090826Y-48238029D01*
X102090826Y-48238029D02*
X101992780Y-48160133D01*
X101992780Y-48160133D02*
X101931442Y-48093556D01*
X101931442Y-48093556D02*
X101905521Y-48030953D01*
X101905521Y-48030953D02*
X101913730Y-47964978D01*
X101913730Y-47964978D02*
X101954779Y-47888286D01*
X101954779Y-47888286D02*
X102015390Y-47808127D01*
X102015390Y-47808127D02*
X102153149Y-47611335D01*
X102153149Y-47611335D02*
X102249119Y-47409848D01*
X102249119Y-47409848D02*
X102303720Y-47202190D01*
X102303720Y-47202190D02*
X102317375Y-46986885D01*
X102317375Y-46986885D02*
X102299712Y-46811737D01*
X102299712Y-46811737D02*
X102249018Y-46626501D01*
X102249018Y-46626501D02*
X102164085Y-46452852D01*
X102164085Y-46452852D02*
X102050178Y-46297938D01*
X102050178Y-46297938D02*
X101912561Y-46168904D01*
X101912561Y-46168904D02*
X101756500Y-46072896D01*
X101756500Y-46072896D02*
X101754785Y-46072090D01*
X101754785Y-46072090D02*
X101698254Y-46047285D01*
X101698254Y-46047285D02*
X101647390Y-46030849D01*
X101647390Y-46030849D02*
X101591072Y-46021088D01*
X101591072Y-46021088D02*
X101518178Y-46016307D01*
X101518178Y-46016307D02*
X101417586Y-46014812D01*
X101417586Y-46014812D02*
X101378416Y-46014750D01*
X101378416Y-46014750D02*
X101268886Y-46015353D01*
X101268886Y-46015353D02*
X101190372Y-46018465D01*
X101190372Y-46018465D02*
X101131561Y-46026043D01*
X101131561Y-46026043D02*
X101081139Y-46040045D01*
X101081139Y-46040045D02*
X101027794Y-46062427D01*
X101027794Y-46062427D02*
X100985562Y-46082704D01*
X100985562Y-46082704D02*
X100821100Y-46186022D01*
X100821100Y-46186022D02*
X100683032Y-46320283D01*
X100683032Y-46320283D02*
X100573498Y-46481732D01*
X100573498Y-46481732D02*
X100494637Y-46666616D01*
X100494637Y-46666616D02*
X100448588Y-46871181D01*
X100448588Y-46871181D02*
X100436812Y-47045584D01*
X100436812Y-47045584D02*
X100442706Y-47191573D01*
X100442706Y-47191573D02*
X100463233Y-47325663D01*
X100463233Y-47325663D02*
X100501758Y-47463602D01*
X100501758Y-47463602D02*
X100557803Y-47611850D01*
X100557803Y-47611850D02*
X100596131Y-47711498D01*
X100596131Y-47711498D02*
X100617244Y-47786265D01*
X100617244Y-47786265D02*
X100624040Y-47848519D01*
X100624040Y-47848519D02*
X100622261Y-47887016D01*
X100622261Y-47887016D02*
X100596932Y-48006810D01*
X100596932Y-48006810D02*
X100548549Y-48102967D01*
X100548549Y-48102967D02*
X100481099Y-48167918D01*
X100481099Y-48167918D02*
X100471234Y-48173624D01*
X100471234Y-48173624D02*
X100453759Y-48182223D01*
X100453759Y-48182223D02*
X100434114Y-48188829D01*
X100434114Y-48188829D02*
X100408435Y-48193212D01*
X100408435Y-48193212D02*
X100372862Y-48195142D01*
X100372862Y-48195142D02*
X100323532Y-48194391D01*
X100323532Y-48194391D02*
X100256585Y-48190727D01*
X100256585Y-48190727D02*
X100168159Y-48183922D01*
X100168159Y-48183922D02*
X100054391Y-48173745D01*
X100054391Y-48173745D02*
X99911421Y-48159968D01*
X99911421Y-48159968D02*
X99735387Y-48142360D01*
X99735387Y-48142360D02*
X99522427Y-48120691D01*
X99522427Y-48120691D02*
X99440474Y-48112312D01*
X99440474Y-48112312D02*
X99195208Y-48087234D01*
X99195208Y-48087234D02*
X98988558Y-48066028D01*
X98988558Y-48066028D02*
X98817033Y-48048180D01*
X98817033Y-48048180D02*
X98677141Y-48033178D01*
X98677141Y-48033178D02*
X98565393Y-48020510D01*
X98565393Y-48020510D02*
X98478297Y-48009662D01*
X98478297Y-48009662D02*
X98412364Y-48000122D01*
X98412364Y-48000122D02*
X98364102Y-47991377D01*
X98364102Y-47991377D02*
X98330021Y-47982914D01*
X98330021Y-47982914D02*
X98306630Y-47974222D01*
X98306630Y-47974222D02*
X98290440Y-47964787D01*
X98290440Y-47964787D02*
X98277958Y-47954096D01*
X98277958Y-47954096D02*
X98265695Y-47941637D01*
X98265695Y-47941637D02*
X98263520Y-47939445D01*
X98263520Y-47939445D02*
X98213999Y-47889925D01*
X98213999Y-47889925D02*
X98213999Y-46821226D01*
X98213999Y-46821226D02*
X98214000Y-45752528D01*
X98214000Y-45752528D02*
X98214000Y-45752528D01*
G36*
X101514325Y-45339460D02*
G01*
X101608072Y-45342689D01*
X101680986Y-45349415D01*
X101743816Y-45360988D01*
X101807307Y-45378756D01*
X101865250Y-45398146D01*
X102107582Y-45502762D01*
X102320978Y-45638276D01*
X102505488Y-45804731D01*
X102661158Y-46002169D01*
X102775352Y-46203700D01*
X102846676Y-46385109D01*
X102900473Y-46590004D01*
X102934480Y-46804205D01*
X102946434Y-47013534D01*
X102934515Y-47200676D01*
X102886293Y-47437609D01*
X102811111Y-47665987D01*
X102712630Y-47878194D01*
X102594511Y-48066618D01*
X102460414Y-48223643D01*
X102428042Y-48254205D01*
X102359621Y-48306896D01*
X102297686Y-48329542D01*
X102232871Y-48321695D01*
X102155808Y-48282903D01*
X102090826Y-48238029D01*
X101992780Y-48160133D01*
X101931442Y-48093556D01*
X101905521Y-48030953D01*
X101913730Y-47964978D01*
X101954779Y-47888286D01*
X102015390Y-47808127D01*
X102153149Y-47611335D01*
X102249119Y-47409848D01*
X102303720Y-47202190D01*
X102317375Y-46986885D01*
X102299712Y-46811737D01*
X102249018Y-46626501D01*
X102164085Y-46452852D01*
X102050178Y-46297938D01*
X101912561Y-46168904D01*
X101756500Y-46072896D01*
X101754785Y-46072090D01*
X101698254Y-46047285D01*
X101647390Y-46030849D01*
X101591072Y-46021088D01*
X101518178Y-46016307D01*
X101417586Y-46014812D01*
X101378416Y-46014750D01*
X101268886Y-46015353D01*
X101190372Y-46018465D01*
X101131561Y-46026043D01*
X101081139Y-46040045D01*
X101027794Y-46062427D01*
X100985562Y-46082704D01*
X100821100Y-46186022D01*
X100683032Y-46320283D01*
X100573498Y-46481732D01*
X100494637Y-46666616D01*
X100448588Y-46871181D01*
X100436812Y-47045584D01*
X100442706Y-47191573D01*
X100463233Y-47325663D01*
X100501758Y-47463602D01*
X100557803Y-47611850D01*
X100596131Y-47711498D01*
X100617244Y-47786265D01*
X100624040Y-47848519D01*
X100622261Y-47887016D01*
X100596932Y-48006810D01*
X100548549Y-48102967D01*
X100481099Y-48167918D01*
X100471234Y-48173624D01*
X100453759Y-48182223D01*
X100434114Y-48188829D01*
X100408435Y-48193212D01*
X100372862Y-48195142D01*
X100323532Y-48194391D01*
X100256585Y-48190727D01*
X100168159Y-48183922D01*
X100054391Y-48173745D01*
X99911421Y-48159968D01*
X99735387Y-48142360D01*
X99522427Y-48120691D01*
X99440474Y-48112312D01*
X99195208Y-48087234D01*
X98988558Y-48066028D01*
X98817033Y-48048180D01*
X98677141Y-48033178D01*
X98565393Y-48020510D01*
X98478297Y-48009662D01*
X98412364Y-48000122D01*
X98364102Y-47991377D01*
X98330021Y-47982914D01*
X98306630Y-47974222D01*
X98290440Y-47964787D01*
X98277958Y-47954096D01*
X98265695Y-47941637D01*
X98263520Y-47939445D01*
X98213999Y-47889925D01*
X98213999Y-46821226D01*
X98214000Y-45752528D01*
X98261864Y-45696882D01*
X98320528Y-45655785D01*
X98403055Y-45631683D01*
X98497604Y-45624138D01*
X98592331Y-45632715D01*
X98675394Y-45656977D01*
X98734950Y-45696488D01*
X98748620Y-45714821D01*
X98756093Y-45740903D01*
X98762614Y-45793005D01*
X98768295Y-45873757D01*
X98773246Y-45985786D01*
X98777579Y-46131723D01*
X98781405Y-46314196D01*
X98784836Y-46535834D01*
X98785500Y-46586250D01*
X98796083Y-47411750D01*
X99388750Y-47478482D01*
X99541997Y-47495584D01*
X99680835Y-47510785D01*
X99799906Y-47523521D01*
X99893857Y-47533230D01*
X99957332Y-47539350D01*
X99984976Y-47541318D01*
X99985720Y-47541206D01*
X99981186Y-47520952D01*
X99965223Y-47471322D01*
X99941166Y-47402618D01*
X99938453Y-47395124D01*
X99881886Y-47180978D01*
X99860765Y-46946880D01*
X99868910Y-46747327D01*
X99911704Y-46490232D01*
X99989819Y-46250543D01*
X100100869Y-46031395D01*
X100242467Y-45835928D01*
X100412226Y-45667279D01*
X100607761Y-45528584D01*
X100826684Y-45422981D01*
X100894655Y-45398847D01*
X100972956Y-45374251D01*
X101039149Y-45357282D01*
X101104371Y-45346579D01*
X101179762Y-45340778D01*
X101276458Y-45338519D01*
X101389000Y-45338381D01*
X101514325Y-45339460D01*
G37*
X101514325Y-45339460D02*
X101608072Y-45342689D01*
X101680986Y-45349415D01*
X101743816Y-45360988D01*
X101807307Y-45378756D01*
X101865250Y-45398146D01*
X102107582Y-45502762D01*
X102320978Y-45638276D01*
X102505488Y-45804731D01*
X102661158Y-46002169D01*
X102775352Y-46203700D01*
X102846676Y-46385109D01*
X102900473Y-46590004D01*
X102934480Y-46804205D01*
X102946434Y-47013534D01*
X102934515Y-47200676D01*
X102886293Y-47437609D01*
X102811111Y-47665987D01*
X102712630Y-47878194D01*
X102594511Y-48066618D01*
X102460414Y-48223643D01*
X102428042Y-48254205D01*
X102359621Y-48306896D01*
X102297686Y-48329542D01*
X102232871Y-48321695D01*
X102155808Y-48282903D01*
X102090826Y-48238029D01*
X101992780Y-48160133D01*
X101931442Y-48093556D01*
X101905521Y-48030953D01*
X101913730Y-47964978D01*
X101954779Y-47888286D01*
X102015390Y-47808127D01*
X102153149Y-47611335D01*
X102249119Y-47409848D01*
X102303720Y-47202190D01*
X102317375Y-46986885D01*
X102299712Y-46811737D01*
X102249018Y-46626501D01*
X102164085Y-46452852D01*
X102050178Y-46297938D01*
X101912561Y-46168904D01*
X101756500Y-46072896D01*
X101754785Y-46072090D01*
X101698254Y-46047285D01*
X101647390Y-46030849D01*
X101591072Y-46021088D01*
X101518178Y-46016307D01*
X101417586Y-46014812D01*
X101378416Y-46014750D01*
X101268886Y-46015353D01*
X101190372Y-46018465D01*
X101131561Y-46026043D01*
X101081139Y-46040045D01*
X101027794Y-46062427D01*
X100985562Y-46082704D01*
X100821100Y-46186022D01*
X100683032Y-46320283D01*
X100573498Y-46481732D01*
X100494637Y-46666616D01*
X100448588Y-46871181D01*
X100436812Y-47045584D01*
X100442706Y-47191573D01*
X100463233Y-47325663D01*
X100501758Y-47463602D01*
X100557803Y-47611850D01*
X100596131Y-47711498D01*
X100617244Y-47786265D01*
X100624040Y-47848519D01*
X100622261Y-47887016D01*
X100596932Y-48006810D01*
X100548549Y-48102967D01*
X100481099Y-48167918D01*
X100471234Y-48173624D01*
X100453759Y-48182223D01*
X100434114Y-48188829D01*
X100408435Y-48193212D01*
X100372862Y-48195142D01*
X100323532Y-48194391D01*
X100256585Y-48190727D01*
X100168159Y-48183922D01*
X100054391Y-48173745D01*
X99911421Y-48159968D01*
X99735387Y-48142360D01*
X99522427Y-48120691D01*
X99440474Y-48112312D01*
X99195208Y-48087234D01*
X98988558Y-48066028D01*
X98817033Y-48048180D01*
X98677141Y-48033178D01*
X98565393Y-48020510D01*
X98478297Y-48009662D01*
X98412364Y-48000122D01*
X98364102Y-47991377D01*
X98330021Y-47982914D01*
X98306630Y-47974222D01*
X98290440Y-47964787D01*
X98277958Y-47954096D01*
X98265695Y-47941637D01*
X98263520Y-47939445D01*
X98213999Y-47889925D01*
X98213999Y-46821226D01*
X98214000Y-45752528D01*
X98261864Y-45696882D01*
X98320528Y-45655785D01*
X98403055Y-45631683D01*
X98497604Y-45624138D01*
X98592331Y-45632715D01*
X98675394Y-45656977D01*
X98734950Y-45696488D01*
X98748620Y-45714821D01*
X98756093Y-45740903D01*
X98762614Y-45793005D01*
X98768295Y-45873757D01*
X98773246Y-45985786D01*
X98777579Y-46131723D01*
X98781405Y-46314196D01*
X98784836Y-46535834D01*
X98785500Y-46586250D01*
X98796083Y-47411750D01*
X99388750Y-47478482D01*
X99541997Y-47495584D01*
X99680835Y-47510785D01*
X99799906Y-47523521D01*
X99893857Y-47533230D01*
X99957332Y-47539350D01*
X99984976Y-47541318D01*
X99985720Y-47541206D01*
X99981186Y-47520952D01*
X99965223Y-47471322D01*
X99941166Y-47402618D01*
X99938453Y-47395124D01*
X99881886Y-47180978D01*
X99860765Y-46946880D01*
X99868910Y-46747327D01*
X99911704Y-46490232D01*
X99989819Y-46250543D01*
X100100869Y-46031395D01*
X100242467Y-45835928D01*
X100412226Y-45667279D01*
X100607761Y-45528584D01*
X100826684Y-45422981D01*
X100894655Y-45398847D01*
X100972956Y-45374251D01*
X101039149Y-45357282D01*
X101104371Y-45346579D01*
X101179762Y-45340778D01*
X101276458Y-45338519D01*
X101389000Y-45338381D01*
X101514325Y-45339460D01*
X98926906Y-59938408D02*
X98964648Y-59894264D01*
X98964648Y-59894264D02*
X99017511Y-59838211D01*
X99017511Y-59838211D02*
X99077277Y-59778405D01*
X99077277Y-59778405D02*
X99135732Y-59723004D01*
X99135732Y-59723004D02*
X99184660Y-59680164D01*
X99184660Y-59680164D02*
X99215844Y-59658044D01*
X99215844Y-59658044D02*
X99220515Y-59656667D01*
X99220515Y-59656667D02*
X99244592Y-59671074D01*
X99244592Y-59671074D02*
X99288736Y-59708816D01*
X99288736Y-59708816D02*
X99344789Y-59761678D01*
X99344789Y-59761678D02*
X99404595Y-59821445D01*
X99404595Y-59821445D02*
X99459996Y-59879900D01*
X99459996Y-59879900D02*
X99502836Y-59928827D01*
X99502836Y-59928827D02*
X99524956Y-59960011D01*
X99524956Y-59960011D02*
X99526333Y-59964683D01*
X99526333Y-59964683D02*
X99512172Y-59987896D01*
X99512172Y-59987896D02*
X99474137Y-60032809D01*
X99474137Y-60032809D02*
X99418902Y-60091813D01*
X99418902Y-60091813D02*
X99382927Y-60128193D01*
X99382927Y-60128193D02*
X99318874Y-60189677D01*
X99318874Y-60189677D02*
X99264755Y-60237800D01*
X99264755Y-60237800D02*
X99228230Y-60265940D01*
X99228230Y-60265940D02*
X99218317Y-60270500D01*
X99218317Y-60270500D02*
X99194241Y-60256094D01*
X99194241Y-60256094D02*
X99150097Y-60218352D01*
X99150097Y-60218352D02*
X99094043Y-60165489D01*
X99094043Y-60165489D02*
X99034237Y-60105723D01*
X99034237Y-60105723D02*
X98978836Y-60047268D01*
X98978836Y-60047268D02*
X98935996Y-59998340D01*
X98935996Y-59998340D02*
X98913876Y-59967156D01*
X98913876Y-59967156D02*
X98912500Y-59962485D01*
X98912500Y-59962485D02*
X98926906Y-59938408D01*
X98926906Y-59938408D02*
X98926906Y-59938408D01*
G36*
X99244592Y-59671074D02*
G01*
X99288736Y-59708816D01*
X99344789Y-59761678D01*
X99404595Y-59821445D01*
X99459996Y-59879900D01*
X99502836Y-59928827D01*
X99524956Y-59960011D01*
X99526333Y-59964683D01*
X99512172Y-59987896D01*
X99474137Y-60032809D01*
X99418902Y-60091813D01*
X99382927Y-60128193D01*
X99318874Y-60189677D01*
X99264755Y-60237800D01*
X99228230Y-60265940D01*
X99218317Y-60270500D01*
X99194241Y-60256094D01*
X99150097Y-60218352D01*
X99094043Y-60165489D01*
X99034237Y-60105723D01*
X98978836Y-60047268D01*
X98935996Y-59998340D01*
X98913876Y-59967156D01*
X98912500Y-59962485D01*
X98926906Y-59938408D01*
X98964648Y-59894264D01*
X99017511Y-59838211D01*
X99077277Y-59778405D01*
X99135732Y-59723004D01*
X99184660Y-59680164D01*
X99215844Y-59658044D01*
X99220515Y-59656667D01*
X99244592Y-59671074D01*
G37*
X99244592Y-59671074D02*
X99288736Y-59708816D01*
X99344789Y-59761678D01*
X99404595Y-59821445D01*
X99459996Y-59879900D01*
X99502836Y-59928827D01*
X99524956Y-59960011D01*
X99526333Y-59964683D01*
X99512172Y-59987896D01*
X99474137Y-60032809D01*
X99418902Y-60091813D01*
X99382927Y-60128193D01*
X99318874Y-60189677D01*
X99264755Y-60237800D01*
X99228230Y-60265940D01*
X99218317Y-60270500D01*
X99194241Y-60256094D01*
X99150097Y-60218352D01*
X99094043Y-60165489D01*
X99034237Y-60105723D01*
X98978836Y-60047268D01*
X98935996Y-59998340D01*
X98913876Y-59967156D01*
X98912500Y-59962485D01*
X98926906Y-59938408D01*
X98964648Y-59894264D01*
X99017511Y-59838211D01*
X99077277Y-59778405D01*
X99135732Y-59723004D01*
X99184660Y-59680164D01*
X99215844Y-59658044D01*
X99220515Y-59656667D01*
X99244592Y-59671074D01*
X98144639Y-42821871D02*
X98156993Y-42674750D01*
X98156993Y-42674750D02*
X98180467Y-42544717D01*
X98180467Y-42544717D02*
X98217710Y-42419349D01*
X98217710Y-42419349D02*
X98271373Y-42286225D01*
X98271373Y-42286225D02*
X98310938Y-42200830D01*
X98310938Y-42200830D02*
X98423671Y-42010136D01*
X98423671Y-42010136D02*
X98564113Y-41847344D01*
X98564113Y-41847344D02*
X98728301Y-41715672D01*
X98728301Y-41715672D02*
X98912274Y-41618336D01*
X98912274Y-41618336D02*
X99098750Y-41561220D01*
X99098750Y-41561220D02*
X99242919Y-41542671D01*
X99242919Y-41542671D02*
X99405542Y-41539783D01*
X99405542Y-41539783D02*
X99565893Y-41552186D01*
X99565893Y-41552186D02*
X99673147Y-41571526D01*
X99673147Y-41571526D02*
X99791044Y-41608083D01*
X99791044Y-41608083D02*
X99925104Y-41662872D01*
X99925104Y-41662872D02*
X100066351Y-41730899D01*
X100066351Y-41730899D02*
X100205812Y-41807171D01*
X100205812Y-41807171D02*
X100334510Y-41886696D01*
X100334510Y-41886696D02*
X100443473Y-41964480D01*
X100443473Y-41964480D02*
X100523724Y-42035530D01*
X100523724Y-42035530D02*
X100540064Y-42053824D01*
X100540064Y-42053824D02*
X100558296Y-42069812D01*
X100558296Y-42069812D02*
X100577301Y-42065384D01*
X100577301Y-42065384D02*
X100604328Y-42035244D01*
X100604328Y-42035244D02*
X100644198Y-41977729D01*
X100644198Y-41977729D02*
X100722644Y-41874769D01*
X100722644Y-41874769D02*
X100819464Y-41769136D01*
X100819464Y-41769136D02*
X100923659Y-41671407D01*
X100923659Y-41671407D02*
X101024231Y-41592156D01*
X101024231Y-41592156D02*
X101084275Y-41554572D01*
X101084275Y-41554572D02*
X101271593Y-41477023D01*
X101271593Y-41477023D02*
X101470199Y-41437476D01*
X101470199Y-41437476D02*
X101674657Y-41435045D01*
X101674657Y-41435045D02*
X101879531Y-41468842D01*
X101879531Y-41468842D02*
X102079388Y-41537979D01*
X102079388Y-41537979D02*
X102268792Y-41641569D01*
X102268792Y-41641569D02*
X102439243Y-41775857D01*
X102439243Y-41775857D02*
X102606255Y-41960172D01*
X102606255Y-41960172D02*
X102741818Y-42171220D01*
X102741818Y-42171220D02*
X102844359Y-42405745D01*
X102844359Y-42405745D02*
X102912304Y-42660488D01*
X102912304Y-42660488D02*
X102933383Y-42799347D01*
X102933383Y-42799347D02*
X102945450Y-42915731D01*
X102945450Y-42915731D02*
X102950965Y-43008978D01*
X102950965Y-43008978D02*
X102949821Y-43096053D01*
X102949821Y-43096053D02*
X102941907Y-43193920D01*
X102941907Y-43193920D02*
X102930203Y-43294834D01*
X102930203Y-43294834D02*
X102885120Y-43523311D01*
X102885120Y-43523311D02*
X102809207Y-43747264D01*
X102809207Y-43747264D02*
X102706903Y-43957031D01*
X102706903Y-43957031D02*
X102582649Y-44142952D01*
X102582649Y-44142952D02*
X102493277Y-44245356D01*
X102493277Y-44245356D02*
X102314303Y-44400412D01*
X102314303Y-44400412D02*
X102120374Y-44517696D01*
X102120374Y-44517696D02*
X101915103Y-44597478D01*
X101915103Y-44597478D02*
X101702104Y-44640030D01*
X101702104Y-44640030D02*
X101515550Y-44644834D01*
X101515550Y-44644834D02*
X101515550Y-43990783D01*
X101515550Y-43990783D02*
X101687655Y-43965882D01*
X101687655Y-43965882D02*
X101852659Y-43902508D01*
X101852659Y-43902508D02*
X102007188Y-43800164D01*
X102007188Y-43800164D02*
X102052928Y-43759988D01*
X102052928Y-43759988D02*
X102184124Y-43609205D01*
X102184124Y-43609205D02*
X102280464Y-43437160D01*
X102280464Y-43437160D02*
X102340546Y-43248535D01*
X102340546Y-43248535D02*
X102362969Y-43048009D01*
X102362969Y-43048009D02*
X102346330Y-42840263D01*
X102346330Y-42840263D02*
X102339347Y-42803751D01*
X102339347Y-42803751D02*
X102294439Y-42657483D01*
X102294439Y-42657483D02*
X102224011Y-42510542D01*
X102224011Y-42510542D02*
X102137124Y-42380423D01*
X102137124Y-42380423D02*
X102095017Y-42331966D01*
X102095017Y-42331966D02*
X101969596Y-42227519D01*
X101969596Y-42227519D02*
X101827609Y-42154505D01*
X101827609Y-42154505D02*
X101676733Y-42114667D01*
X101676733Y-42114667D02*
X101524642Y-42109750D01*
X101524642Y-42109750D02*
X101379014Y-42141499D01*
X101379014Y-42141499D02*
X101335654Y-42159397D01*
X101335654Y-42159397D02*
X101260018Y-42201426D01*
X101260018Y-42201426D02*
X101189223Y-42256584D01*
X101189223Y-42256584D02*
X101120739Y-42328701D01*
X101120739Y-42328701D02*
X101052034Y-42421607D01*
X101052034Y-42421607D02*
X100980580Y-42539131D01*
X100980580Y-42539131D02*
X100903847Y-42685102D01*
X100903847Y-42685102D02*
X100819304Y-42863351D01*
X100819304Y-42863351D02*
X100724421Y-43077708D01*
X100724421Y-43077708D02*
X100715843Y-43097614D01*
X100715843Y-43097614D02*
X100568483Y-43440143D01*
X100568483Y-43440143D02*
X100666533Y-43555599D01*
X100666533Y-43555599D02*
X100823560Y-43715604D01*
X100823560Y-43715604D02*
X100990348Y-43839622D01*
X100990348Y-43839622D02*
X101163524Y-43927156D01*
X101163524Y-43927156D02*
X101339715Y-43977709D01*
X101339715Y-43977709D02*
X101515550Y-43990783D01*
X101515550Y-43990783D02*
X101515550Y-44644834D01*
X101515550Y-44644834D02*
X101484992Y-44645621D01*
X101484992Y-44645621D02*
X101267380Y-44614523D01*
X101267380Y-44614523D02*
X101052884Y-44547005D01*
X101052884Y-44547005D02*
X100845116Y-44443340D01*
X100845116Y-44443340D02*
X100647692Y-44303797D01*
X100647692Y-44303797D02*
X100464226Y-44128647D01*
X100464226Y-44128647D02*
X100430846Y-44090903D01*
X100430846Y-44090903D02*
X100373257Y-44025568D01*
X100373257Y-44025568D02*
X100325708Y-43974551D01*
X100325708Y-43974551D02*
X100294969Y-43944971D01*
X100294969Y-43944971D02*
X100287735Y-43940417D01*
X100287735Y-43940417D02*
X100268771Y-43955565D01*
X100268771Y-43955565D02*
X100230542Y-43995772D01*
X100230542Y-43995772D02*
X100180412Y-44053186D01*
X100180412Y-44053186D02*
X100166366Y-44069927D01*
X100166366Y-44069927D02*
X100015158Y-44220453D01*
X100015158Y-44220453D02*
X99844086Y-44335373D01*
X99844086Y-44335373D02*
X99657389Y-44413882D01*
X99657389Y-44413882D02*
X99459310Y-44455173D01*
X99459310Y-44455173D02*
X99357000Y-44456801D01*
X99357000Y-44456801D02*
X99357000Y-43811152D01*
X99357000Y-43811152D02*
X99476079Y-43802126D01*
X99476079Y-43802126D02*
X99584021Y-43773046D01*
X99584021Y-43773046D02*
X99683575Y-43721008D01*
X99683575Y-43721008D02*
X99777496Y-43643107D01*
X99777496Y-43643107D02*
X99868535Y-43536437D01*
X99868535Y-43536437D02*
X99959445Y-43398096D01*
X99959445Y-43398096D02*
X100052978Y-43225178D01*
X100052978Y-43225178D02*
X100151887Y-43014778D01*
X100151887Y-43014778D02*
X100186570Y-42935715D01*
X100186570Y-42935715D02*
X100233572Y-42826257D01*
X100233572Y-42826257D02*
X100274133Y-42730386D01*
X100274133Y-42730386D02*
X100305463Y-42654813D01*
X100305463Y-42654813D02*
X100324773Y-42606246D01*
X100324773Y-42606246D02*
X100329692Y-42591534D01*
X100329692Y-42591534D02*
X100314852Y-42571444D01*
X100314852Y-42571444D02*
X100275176Y-42534246D01*
X100275176Y-42534246D02*
X100225066Y-42492680D01*
X100225066Y-42492680D02*
X100020985Y-42353094D01*
X100020985Y-42353094D02*
X99815380Y-42255785D01*
X99815380Y-42255785D02*
X99608170Y-42200723D01*
X99608170Y-42200723D02*
X99452250Y-42187138D01*
X99452250Y-42187138D02*
X99287803Y-42196954D01*
X99287803Y-42196954D02*
X99149821Y-42232647D01*
X99149821Y-42232647D02*
X99029078Y-42297324D01*
X99029078Y-42297324D02*
X98958833Y-42353340D01*
X98958833Y-42353340D02*
X98856464Y-42472492D01*
X98856464Y-42472492D02*
X98780073Y-42617490D01*
X98780073Y-42617490D02*
X98729997Y-42780495D01*
X98729997Y-42780495D02*
X98706576Y-42953667D01*
X98706576Y-42953667D02*
X98710149Y-43129166D01*
X98710149Y-43129166D02*
X98741055Y-43299152D01*
X98741055Y-43299152D02*
X98799633Y-43455786D01*
X98799633Y-43455786D02*
X98886223Y-43591226D01*
X98886223Y-43591226D02*
X98904384Y-43612278D01*
X98904384Y-43612278D02*
X99019743Y-43715254D01*
X99019743Y-43715254D02*
X99147688Y-43779811D01*
X99147688Y-43779811D02*
X99294794Y-43808837D01*
X99294794Y-43808837D02*
X99357000Y-43811152D01*
X99357000Y-43811152D02*
X99357000Y-44456801D01*
X99357000Y-44456801D02*
X99254090Y-44458440D01*
X99254090Y-44458440D02*
X99045971Y-44422876D01*
X99045971Y-44422876D02*
X98839193Y-44347676D01*
X98839193Y-44347676D02*
X98801483Y-44329384D01*
X98801483Y-44329384D02*
X98657379Y-44237081D01*
X98657379Y-44237081D02*
X98519828Y-44112352D01*
X98519828Y-44112352D02*
X98398213Y-43965010D01*
X98398213Y-43965010D02*
X98303915Y-43808906D01*
X98303915Y-43808906D02*
X98239857Y-43666726D01*
X98239857Y-43666726D02*
X98193726Y-43528717D01*
X98193726Y-43528717D02*
X98163309Y-43383885D01*
X98163309Y-43383885D02*
X98146393Y-43221237D01*
X98146393Y-43221237D02*
X98140764Y-43029781D01*
X98140764Y-43029781D02*
X98140754Y-42998500D01*
X98140754Y-42998500D02*
X98144639Y-42821871D01*
X98144639Y-42821871D02*
X98144639Y-42821871D01*
G36*
X101267380Y-44614523D02*
G01*
X101052884Y-44547005D01*
X100845116Y-44443340D01*
X100647692Y-44303797D01*
X100464226Y-44128647D01*
X100430846Y-44090903D01*
X100373257Y-44025568D01*
X100325708Y-43974551D01*
X100294969Y-43944971D01*
X100287735Y-43940417D01*
X100268771Y-43955565D01*
X100230542Y-43995772D01*
X100180412Y-44053186D01*
X100166366Y-44069927D01*
X100015158Y-44220453D01*
X99844086Y-44335373D01*
X99657389Y-44413882D01*
X99459310Y-44455173D01*
X99357000Y-44456801D01*
X99254090Y-44458440D01*
X99045971Y-44422876D01*
X98839193Y-44347676D01*
X98801483Y-44329384D01*
X98657379Y-44237081D01*
X98519828Y-44112352D01*
X98398213Y-43965010D01*
X98303915Y-43808906D01*
X98239857Y-43666726D01*
X98193726Y-43528717D01*
X98163309Y-43383885D01*
X98146393Y-43221237D01*
X98140764Y-43029781D01*
X98140754Y-42998500D01*
X98141740Y-42953667D01*
X98706576Y-42953667D01*
X98710149Y-43129166D01*
X98741055Y-43299152D01*
X98799633Y-43455786D01*
X98886223Y-43591226D01*
X98904384Y-43612278D01*
X99019743Y-43715254D01*
X99147688Y-43779811D01*
X99294794Y-43808837D01*
X99357000Y-43811152D01*
X99476079Y-43802126D01*
X99584021Y-43773046D01*
X99683575Y-43721008D01*
X99777496Y-43643107D01*
X99868535Y-43536437D01*
X99931814Y-43440143D01*
X100568483Y-43440143D01*
X100666533Y-43555599D01*
X100823560Y-43715604D01*
X100990348Y-43839622D01*
X101163524Y-43927156D01*
X101339715Y-43977709D01*
X101515550Y-43990783D01*
X101687655Y-43965882D01*
X101852659Y-43902508D01*
X102007188Y-43800164D01*
X102052928Y-43759988D01*
X102184124Y-43609205D01*
X102280464Y-43437160D01*
X102340546Y-43248535D01*
X102362969Y-43048009D01*
X102346330Y-42840263D01*
X102339347Y-42803751D01*
X102294439Y-42657483D01*
X102224011Y-42510542D01*
X102137124Y-42380423D01*
X102095017Y-42331966D01*
X101969596Y-42227519D01*
X101827609Y-42154505D01*
X101676733Y-42114667D01*
X101524642Y-42109750D01*
X101379014Y-42141499D01*
X101335654Y-42159397D01*
X101260018Y-42201426D01*
X101189223Y-42256584D01*
X101120739Y-42328701D01*
X101052034Y-42421607D01*
X100980580Y-42539131D01*
X100903847Y-42685102D01*
X100819304Y-42863351D01*
X100724421Y-43077708D01*
X100715843Y-43097614D01*
X100568483Y-43440143D01*
X99931814Y-43440143D01*
X99959445Y-43398096D01*
X100052978Y-43225178D01*
X100151887Y-43014778D01*
X100186570Y-42935715D01*
X100233572Y-42826257D01*
X100274133Y-42730386D01*
X100305463Y-42654813D01*
X100324773Y-42606246D01*
X100329692Y-42591534D01*
X100314852Y-42571444D01*
X100275176Y-42534246D01*
X100225066Y-42492680D01*
X100020985Y-42353094D01*
X99815380Y-42255785D01*
X99608170Y-42200723D01*
X99452250Y-42187138D01*
X99287803Y-42196954D01*
X99149821Y-42232647D01*
X99029078Y-42297324D01*
X98958833Y-42353340D01*
X98856464Y-42472492D01*
X98780073Y-42617490D01*
X98729997Y-42780495D01*
X98706576Y-42953667D01*
X98141740Y-42953667D01*
X98144639Y-42821871D01*
X98156993Y-42674750D01*
X98180467Y-42544717D01*
X98217710Y-42419349D01*
X98271373Y-42286225D01*
X98310938Y-42200830D01*
X98423671Y-42010136D01*
X98564113Y-41847344D01*
X98728301Y-41715672D01*
X98912274Y-41618336D01*
X99098750Y-41561220D01*
X99242919Y-41542671D01*
X99405542Y-41539783D01*
X99565893Y-41552186D01*
X99673147Y-41571526D01*
X99791044Y-41608083D01*
X99925104Y-41662872D01*
X100066351Y-41730899D01*
X100205812Y-41807171D01*
X100334510Y-41886696D01*
X100443473Y-41964480D01*
X100523724Y-42035530D01*
X100540064Y-42053824D01*
X100558296Y-42069812D01*
X100577301Y-42065384D01*
X100604328Y-42035244D01*
X100644198Y-41977729D01*
X100722644Y-41874769D01*
X100819464Y-41769136D01*
X100923659Y-41671407D01*
X101024231Y-41592156D01*
X101084275Y-41554572D01*
X101271593Y-41477023D01*
X101470199Y-41437476D01*
X101674657Y-41435045D01*
X101879531Y-41468842D01*
X102079388Y-41537979D01*
X102268792Y-41641569D01*
X102439243Y-41775857D01*
X102606255Y-41960172D01*
X102741818Y-42171220D01*
X102844359Y-42405745D01*
X102912304Y-42660488D01*
X102933383Y-42799347D01*
X102945450Y-42915731D01*
X102950965Y-43008978D01*
X102949821Y-43096053D01*
X102941907Y-43193920D01*
X102930203Y-43294834D01*
X102885120Y-43523311D01*
X102809207Y-43747264D01*
X102706903Y-43957031D01*
X102582649Y-44142952D01*
X102493277Y-44245356D01*
X102314303Y-44400412D01*
X102120374Y-44517696D01*
X101915103Y-44597478D01*
X101702104Y-44640030D01*
X101515550Y-44644834D01*
X101484992Y-44645621D01*
X101267380Y-44614523D01*
G37*
X101267380Y-44614523D02*
X101052884Y-44547005D01*
X100845116Y-44443340D01*
X100647692Y-44303797D01*
X100464226Y-44128647D01*
X100430846Y-44090903D01*
X100373257Y-44025568D01*
X100325708Y-43974551D01*
X100294969Y-43944971D01*
X100287735Y-43940417D01*
X100268771Y-43955565D01*
X100230542Y-43995772D01*
X100180412Y-44053186D01*
X100166366Y-44069927D01*
X100015158Y-44220453D01*
X99844086Y-44335373D01*
X99657389Y-44413882D01*
X99459310Y-44455173D01*
X99357000Y-44456801D01*
X99254090Y-44458440D01*
X99045971Y-44422876D01*
X98839193Y-44347676D01*
X98801483Y-44329384D01*
X98657379Y-44237081D01*
X98519828Y-44112352D01*
X98398213Y-43965010D01*
X98303915Y-43808906D01*
X98239857Y-43666726D01*
X98193726Y-43528717D01*
X98163309Y-43383885D01*
X98146393Y-43221237D01*
X98140764Y-43029781D01*
X98140754Y-42998500D01*
X98141740Y-42953667D01*
X98706576Y-42953667D01*
X98710149Y-43129166D01*
X98741055Y-43299152D01*
X98799633Y-43455786D01*
X98886223Y-43591226D01*
X98904384Y-43612278D01*
X99019743Y-43715254D01*
X99147688Y-43779811D01*
X99294794Y-43808837D01*
X99357000Y-43811152D01*
X99476079Y-43802126D01*
X99584021Y-43773046D01*
X99683575Y-43721008D01*
X99777496Y-43643107D01*
X99868535Y-43536437D01*
X99931814Y-43440143D01*
X100568483Y-43440143D01*
X100666533Y-43555599D01*
X100823560Y-43715604D01*
X100990348Y-43839622D01*
X101163524Y-43927156D01*
X101339715Y-43977709D01*
X101515550Y-43990783D01*
X101687655Y-43965882D01*
X101852659Y-43902508D01*
X102007188Y-43800164D01*
X102052928Y-43759988D01*
X102184124Y-43609205D01*
X102280464Y-43437160D01*
X102340546Y-43248535D01*
X102362969Y-43048009D01*
X102346330Y-42840263D01*
X102339347Y-42803751D01*
X102294439Y-42657483D01*
X102224011Y-42510542D01*
X102137124Y-42380423D01*
X102095017Y-42331966D01*
X101969596Y-42227519D01*
X101827609Y-42154505D01*
X101676733Y-42114667D01*
X101524642Y-42109750D01*
X101379014Y-42141499D01*
X101335654Y-42159397D01*
X101260018Y-42201426D01*
X101189223Y-42256584D01*
X101120739Y-42328701D01*
X101052034Y-42421607D01*
X100980580Y-42539131D01*
X100903847Y-42685102D01*
X100819304Y-42863351D01*
X100724421Y-43077708D01*
X100715843Y-43097614D01*
X100568483Y-43440143D01*
X99931814Y-43440143D01*
X99959445Y-43398096D01*
X100052978Y-43225178D01*
X100151887Y-43014778D01*
X100186570Y-42935715D01*
X100233572Y-42826257D01*
X100274133Y-42730386D01*
X100305463Y-42654813D01*
X100324773Y-42606246D01*
X100329692Y-42591534D01*
X100314852Y-42571444D01*
X100275176Y-42534246D01*
X100225066Y-42492680D01*
X100020985Y-42353094D01*
X99815380Y-42255785D01*
X99608170Y-42200723D01*
X99452250Y-42187138D01*
X99287803Y-42196954D01*
X99149821Y-42232647D01*
X99029078Y-42297324D01*
X98958833Y-42353340D01*
X98856464Y-42472492D01*
X98780073Y-42617490D01*
X98729997Y-42780495D01*
X98706576Y-42953667D01*
X98141740Y-42953667D01*
X98144639Y-42821871D01*
X98156993Y-42674750D01*
X98180467Y-42544717D01*
X98217710Y-42419349D01*
X98271373Y-42286225D01*
X98310938Y-42200830D01*
X98423671Y-42010136D01*
X98564113Y-41847344D01*
X98728301Y-41715672D01*
X98912274Y-41618336D01*
X99098750Y-41561220D01*
X99242919Y-41542671D01*
X99405542Y-41539783D01*
X99565893Y-41552186D01*
X99673147Y-41571526D01*
X99791044Y-41608083D01*
X99925104Y-41662872D01*
X100066351Y-41730899D01*
X100205812Y-41807171D01*
X100334510Y-41886696D01*
X100443473Y-41964480D01*
X100523724Y-42035530D01*
X100540064Y-42053824D01*
X100558296Y-42069812D01*
X100577301Y-42065384D01*
X100604328Y-42035244D01*
X100644198Y-41977729D01*
X100722644Y-41874769D01*
X100819464Y-41769136D01*
X100923659Y-41671407D01*
X101024231Y-41592156D01*
X101084275Y-41554572D01*
X101271593Y-41477023D01*
X101470199Y-41437476D01*
X101674657Y-41435045D01*
X101879531Y-41468842D01*
X102079388Y-41537979D01*
X102268792Y-41641569D01*
X102439243Y-41775857D01*
X102606255Y-41960172D01*
X102741818Y-42171220D01*
X102844359Y-42405745D01*
X102912304Y-42660488D01*
X102933383Y-42799347D01*
X102945450Y-42915731D01*
X102950965Y-43008978D01*
X102949821Y-43096053D01*
X102941907Y-43193920D01*
X102930203Y-43294834D01*
X102885120Y-43523311D01*
X102809207Y-43747264D01*
X102706903Y-43957031D01*
X102582649Y-44142952D01*
X102493277Y-44245356D01*
X102314303Y-44400412D01*
X102120374Y-44517696D01*
X101915103Y-44597478D01*
X101702104Y-44640030D01*
X101515550Y-44644834D01*
X101484992Y-44645621D01*
X101267380Y-44614523D01*
X99583622Y-59934627D02*
X99622055Y-59889853D01*
X99622055Y-59889853D02*
X99674311Y-59837020D01*
X99674311Y-59837020D02*
X99730737Y-59785278D01*
X99730737Y-59785278D02*
X99781681Y-59743775D01*
X99781681Y-59743775D02*
X99817489Y-59721657D01*
X99817489Y-59721657D02*
X99824055Y-59720167D01*
X99824055Y-59720167D02*
X99852903Y-59734535D01*
X99852903Y-59734535D02*
X99899729Y-59771449D01*
X99899729Y-59771449D02*
X99954952Y-59821623D01*
X99954952Y-59821623D02*
X100008990Y-59875772D01*
X100008990Y-59875772D02*
X100052262Y-59924613D01*
X100052262Y-59924613D02*
X100075188Y-59958859D01*
X100075188Y-59958859D02*
X100076666Y-59964972D01*
X100076666Y-59964972D02*
X100062558Y-59989195D01*
X100062558Y-59989195D02*
X100025326Y-60033506D01*
X100025326Y-60033506D02*
X99972608Y-60088911D01*
X99972608Y-60088911D02*
X99964876Y-60096599D01*
X99964876Y-60096599D02*
X99906360Y-60150381D01*
X99906360Y-60150381D02*
X99855881Y-60189670D01*
X99855881Y-60189670D02*
X99823412Y-60206798D01*
X99823412Y-60206798D02*
X99821278Y-60207000D01*
X99821278Y-60207000D02*
X99792429Y-60192633D01*
X99792429Y-60192633D02*
X99745603Y-60155719D01*
X99745603Y-60155719D02*
X99690381Y-60105545D01*
X99690381Y-60105545D02*
X99636343Y-60051395D01*
X99636343Y-60051395D02*
X99593070Y-60002555D01*
X99593070Y-60002555D02*
X99570144Y-59968309D01*
X99570144Y-59968309D02*
X99568666Y-59962195D01*
X99568666Y-59962195D02*
X99583622Y-59934627D01*
X99583622Y-59934627D02*
X99583622Y-59934627D01*
G36*
X99852903Y-59734535D02*
G01*
X99899729Y-59771449D01*
X99954952Y-59821623D01*
X100008990Y-59875772D01*
X100052262Y-59924613D01*
X100075188Y-59958859D01*
X100076666Y-59964972D01*
X100062558Y-59989195D01*
X100025326Y-60033506D01*
X99972608Y-60088911D01*
X99964876Y-60096599D01*
X99906360Y-60150381D01*
X99855881Y-60189670D01*
X99823412Y-60206798D01*
X99821278Y-60207000D01*
X99792429Y-60192633D01*
X99745603Y-60155719D01*
X99690381Y-60105545D01*
X99636343Y-60051395D01*
X99593070Y-60002555D01*
X99570144Y-59968309D01*
X99568666Y-59962195D01*
X99583622Y-59934627D01*
X99622055Y-59889853D01*
X99674311Y-59837020D01*
X99730737Y-59785278D01*
X99781681Y-59743775D01*
X99817489Y-59721657D01*
X99824055Y-59720167D01*
X99852903Y-59734535D01*
G37*
X99852903Y-59734535D02*
X99899729Y-59771449D01*
X99954952Y-59821623D01*
X100008990Y-59875772D01*
X100052262Y-59924613D01*
X100075188Y-59958859D01*
X100076666Y-59964972D01*
X100062558Y-59989195D01*
X100025326Y-60033506D01*
X99972608Y-60088911D01*
X99964876Y-60096599D01*
X99906360Y-60150381D01*
X99855881Y-60189670D01*
X99823412Y-60206798D01*
X99821278Y-60207000D01*
X99792429Y-60192633D01*
X99745603Y-60155719D01*
X99690381Y-60105545D01*
X99636343Y-60051395D01*
X99593070Y-60002555D01*
X99570144Y-59968309D01*
X99568666Y-59962195D01*
X99583622Y-59934627D01*
X99622055Y-59889853D01*
X99674311Y-59837020D01*
X99730737Y-59785278D01*
X99781681Y-59743775D01*
X99817489Y-59721657D01*
X99824055Y-59720167D01*
X99852903Y-59734535D01*
X98490415Y-61003312D02*
X98616791Y-61128368D01*
X98616791Y-61128368D02*
X98674726Y-61188225D01*
X98674726Y-61188225D02*
X98718682Y-61238447D01*
X98718682Y-61238447D02*
X98741497Y-61270671D01*
X98741497Y-61270671D02*
X98743166Y-61275978D01*
X98743166Y-61275978D02*
X98729040Y-61300868D01*
X98729040Y-61300868D02*
X98691765Y-61345695D01*
X98691765Y-61345695D02*
X98638994Y-61401356D01*
X98638994Y-61401356D02*
X98631376Y-61408932D01*
X98631376Y-61408932D02*
X98574504Y-61462459D01*
X98574504Y-61462459D02*
X98527732Y-61501688D01*
X98527732Y-61501688D02*
X98500147Y-61519072D01*
X98500147Y-61519072D02*
X98498421Y-61519334D01*
X98498421Y-61519334D02*
X98474735Y-61505197D01*
X98474735Y-61505197D02*
X98430123Y-61467552D01*
X98430123Y-61467552D02*
X98372854Y-61413544D01*
X98372854Y-61413544D02*
X98352201Y-61392958D01*
X98352201Y-61392958D02*
X98227144Y-61266583D01*
X98227144Y-61266583D02*
X98490415Y-61003312D01*
X98490415Y-61003312D02*
X98490415Y-61003312D01*
G36*
X98616791Y-61128368D02*
G01*
X98674726Y-61188225D01*
X98718682Y-61238447D01*
X98741497Y-61270671D01*
X98743166Y-61275978D01*
X98729040Y-61300868D01*
X98691765Y-61345695D01*
X98638994Y-61401356D01*
X98631376Y-61408932D01*
X98574504Y-61462459D01*
X98527732Y-61501688D01*
X98500147Y-61519072D01*
X98498421Y-61519334D01*
X98474735Y-61505197D01*
X98430123Y-61467552D01*
X98372854Y-61413544D01*
X98352201Y-61392958D01*
X98227144Y-61266583D01*
X98490415Y-61003312D01*
X98616791Y-61128368D01*
G37*
X98616791Y-61128368D02*
X98674726Y-61188225D01*
X98718682Y-61238447D01*
X98741497Y-61270671D01*
X98743166Y-61275978D01*
X98729040Y-61300868D01*
X98691765Y-61345695D01*
X98638994Y-61401356D01*
X98631376Y-61408932D01*
X98574504Y-61462459D01*
X98527732Y-61501688D01*
X98500147Y-61519072D01*
X98498421Y-61519334D01*
X98474735Y-61505197D01*
X98430123Y-61467552D01*
X98372854Y-61413544D01*
X98352201Y-61392958D01*
X98227144Y-61266583D01*
X98490415Y-61003312D01*
X98616791Y-61128368D01*
X96869916Y-63178046D02*
X97198723Y-62884675D01*
X97198723Y-62884675D02*
X97534758Y-62626395D01*
X97534758Y-62626395D02*
X97876193Y-62403870D01*
X97876193Y-62403870D02*
X98221197Y-62217762D01*
X98221197Y-62217762D02*
X98567944Y-62068734D01*
X98567944Y-62068734D02*
X98914604Y-61957449D01*
X98914604Y-61957449D02*
X99259349Y-61884569D01*
X99259349Y-61884569D02*
X99600350Y-61850756D01*
X99600350Y-61850756D02*
X99935778Y-61856675D01*
X99935778Y-61856675D02*
X100263805Y-61902986D01*
X100263805Y-61902986D02*
X100341107Y-61920156D01*
X100341107Y-61920156D02*
X100422920Y-61938440D01*
X100422920Y-61938440D02*
X100470658Y-61945411D01*
X100470658Y-61945411D02*
X100490924Y-61941473D01*
X100490924Y-61941473D02*
X100491301Y-61929363D01*
X100491301Y-61929363D02*
X100481839Y-61896028D01*
X100481839Y-61896028D02*
X100466538Y-61833070D01*
X100466538Y-61833070D02*
X100448232Y-61752301D01*
X100448232Y-61752301D02*
X100442413Y-61725598D01*
X100442413Y-61725598D02*
X100427618Y-61645056D01*
X100427618Y-61645056D02*
X100417035Y-61556147D01*
X100417035Y-61556147D02*
X100410141Y-61450596D01*
X100410141Y-61450596D02*
X100406414Y-61320125D01*
X100406414Y-61320125D02*
X100405332Y-61156458D01*
X100405332Y-61156458D02*
X100405348Y-61138334D01*
X100405348Y-61138334D02*
X100407452Y-60954617D01*
X100407452Y-60954617D02*
X100414525Y-60800954D01*
X100414525Y-60800954D02*
X100428588Y-60665363D01*
X100428588Y-60665363D02*
X100451666Y-60535864D01*
X100451666Y-60535864D02*
X100485780Y-60400475D01*
X100485780Y-60400475D02*
X100532953Y-60247216D01*
X100532953Y-60247216D02*
X100578668Y-60111750D01*
X100578668Y-60111750D02*
X100699849Y-59809284D01*
X100699849Y-59809284D02*
X100856228Y-59498038D01*
X100856228Y-59498038D02*
X101043571Y-59184640D01*
X101043571Y-59184640D02*
X101257647Y-58875715D01*
X101257647Y-58875715D02*
X101494223Y-58577892D01*
X101494223Y-58577892D02*
X101714307Y-58333750D01*
X101714307Y-58333750D02*
X101896733Y-58143250D01*
X101896733Y-58143250D02*
X102118378Y-58371426D01*
X102118378Y-58371426D02*
X102382993Y-58665354D01*
X102382993Y-58665354D02*
X102621268Y-58973881D01*
X102621268Y-58973881D02*
X102831597Y-59293376D01*
X102831597Y-59293376D02*
X103012371Y-59620208D01*
X103012371Y-59620208D02*
X103161984Y-59950747D01*
X103161984Y-59950747D02*
X103278826Y-60281360D01*
X103278826Y-60281360D02*
X103361292Y-60608417D01*
X103361292Y-60608417D02*
X103407772Y-60928287D01*
X103407772Y-60928287D02*
X103416660Y-61237338D01*
X103416660Y-61237338D02*
X103413796Y-61297356D01*
X103413796Y-61297356D02*
X103374396Y-61627027D01*
X103374396Y-61627027D02*
X103297036Y-61965282D01*
X103297036Y-61965282D02*
X103183686Y-62306639D01*
X103183686Y-62306639D02*
X103036314Y-62645618D01*
X103036314Y-62645618D02*
X102856890Y-62976739D01*
X102856890Y-62976739D02*
X102748871Y-63148081D01*
X102748871Y-63148081D02*
X102602199Y-63369245D01*
X102602199Y-63369245D02*
X102670817Y-63459139D01*
X102670817Y-63459139D02*
X102807481Y-63657895D01*
X102807481Y-63657895D02*
X102940475Y-63888345D01*
X102940475Y-63888345D02*
X103065047Y-64139864D01*
X103065047Y-64139864D02*
X103176445Y-64401829D01*
X103176445Y-64401829D02*
X103269914Y-64663613D01*
X103269914Y-64663613D02*
X103340702Y-64914592D01*
X103340702Y-64914592D02*
X103359282Y-64998123D01*
X103359282Y-64998123D02*
X103383174Y-65145866D01*
X103383174Y-65145866D02*
X103400466Y-65316506D01*
X103400466Y-65316506D02*
X103410565Y-65496210D01*
X103410565Y-65496210D02*
X103412882Y-65671146D01*
X103412882Y-65671146D02*
X103406825Y-65827481D01*
X103406825Y-65827481D02*
X103398277Y-65911417D01*
X103398277Y-65911417D02*
X103347134Y-66185695D01*
X103347134Y-66185695D02*
X103268792Y-66474169D01*
X103268792Y-66474169D02*
X103167811Y-66763044D01*
X103167811Y-66763044D02*
X103048754Y-67038527D01*
X103048754Y-67038527D02*
X102981789Y-67170834D01*
X102981789Y-67170834D02*
X102850149Y-67398801D01*
X102850149Y-67398801D02*
X102695831Y-67635925D01*
X102695831Y-67635925D02*
X102526597Y-67871736D01*
X102526597Y-67871736D02*
X102350204Y-68095767D01*
X102350204Y-68095767D02*
X102174412Y-68297548D01*
X102174412Y-68297548D02*
X102056160Y-68419667D01*
X102056160Y-68419667D02*
X101894067Y-68578417D01*
X101894067Y-68578417D02*
X101893119Y-68577429D01*
X101893119Y-68577429D02*
X101893119Y-67900573D01*
X101893119Y-67900573D02*
X101939925Y-67858495D01*
X101939925Y-67858495D02*
X101985979Y-67811022D01*
X101985979Y-67811022D02*
X102050270Y-67736541D01*
X102050270Y-67736541D02*
X102126791Y-67642746D01*
X102126791Y-67642746D02*
X102209534Y-67537334D01*
X102209534Y-67537334D02*
X102292491Y-67427999D01*
X102292491Y-67427999D02*
X102369655Y-67322437D01*
X102369655Y-67322437D02*
X102435016Y-67228341D01*
X102435016Y-67228341D02*
X102452020Y-67202584D01*
X102452020Y-67202584D02*
X102607506Y-66943757D01*
X102607506Y-66943757D02*
X102744503Y-66676353D01*
X102744503Y-66676353D02*
X102859288Y-66409038D01*
X102859288Y-66409038D02*
X102948139Y-66150478D01*
X102948139Y-66150478D02*
X103007161Y-65910256D01*
X103007161Y-65910256D02*
X103026043Y-65763314D01*
X103026043Y-65763314D02*
X103034532Y-65588498D01*
X103034532Y-65588498D02*
X103033096Y-65398851D01*
X103033096Y-65398851D02*
X103022206Y-65207416D01*
X103022206Y-65207416D02*
X103002329Y-65027235D01*
X103002329Y-65027235D02*
X102973936Y-64871350D01*
X102973936Y-64871350D02*
X102969082Y-64851308D01*
X102969082Y-64851308D02*
X102874792Y-64543925D01*
X102874792Y-64543925D02*
X102745538Y-64234455D01*
X102745538Y-64234455D02*
X102579208Y-63918103D01*
X102579208Y-63918103D02*
X102498543Y-63783254D01*
X102498543Y-63783254D02*
X102400871Y-63639672D01*
X102400871Y-63639672D02*
X102357227Y-63590687D01*
X102357227Y-63590687D02*
X102357227Y-63140682D01*
X102357227Y-63140682D02*
X102362277Y-63138824D01*
X102362277Y-63138824D02*
X102386769Y-63111668D01*
X102386769Y-63111668D02*
X102426574Y-63054022D01*
X102426574Y-63054022D02*
X102477523Y-62972979D01*
X102477523Y-62972979D02*
X102535448Y-62875633D01*
X102535448Y-62875633D02*
X102596181Y-62769080D01*
X102596181Y-62769080D02*
X102655553Y-62660412D01*
X102655553Y-62660412D02*
X102709396Y-62556725D01*
X102709396Y-62556725D02*
X102735530Y-62503584D01*
X102735530Y-62503584D02*
X102853174Y-62235593D01*
X102853174Y-62235593D02*
X102939828Y-61983883D01*
X102939828Y-61983883D02*
X102997910Y-61738730D01*
X102997910Y-61738730D02*
X103029836Y-61490413D01*
X103029836Y-61490413D02*
X103038148Y-61286500D01*
X103038148Y-61286500D02*
X103035733Y-61149806D01*
X103035733Y-61149806D02*
X103027621Y-61010703D01*
X103027621Y-61010703D02*
X103015031Y-60887021D01*
X103015031Y-60887021D02*
X103007363Y-60836110D01*
X103007363Y-60836110D02*
X102940464Y-60553800D01*
X102940464Y-60553800D02*
X102837598Y-60259544D01*
X102837598Y-60259544D02*
X102701433Y-59958701D01*
X102701433Y-59958701D02*
X102534636Y-59656628D01*
X102534636Y-59656628D02*
X102339876Y-59358683D01*
X102339876Y-59358683D02*
X102140668Y-59095750D01*
X102140668Y-59095750D02*
X102074508Y-59015474D01*
X102074508Y-59015474D02*
X102013629Y-58943910D01*
X102013629Y-58943910D02*
X101965446Y-58889638D01*
X101965446Y-58889638D02*
X101940128Y-58863622D01*
X101940128Y-58863622D02*
X101894113Y-58821993D01*
X101894113Y-58821993D02*
X101820982Y-58905955D01*
X101820982Y-58905955D02*
X101569845Y-59215265D01*
X101569845Y-59215265D02*
X101348651Y-59531173D01*
X101348651Y-59531173D02*
X101159498Y-59849808D01*
X101159498Y-59849808D02*
X101004486Y-60167299D01*
X101004486Y-60167299D02*
X100885716Y-60479772D01*
X100885716Y-60479772D02*
X100806689Y-60776511D01*
X100806689Y-60776511D02*
X100771388Y-61022810D01*
X100771388Y-61022810D02*
X100761527Y-61284873D01*
X100761527Y-61284873D02*
X100776530Y-61548799D01*
X100776530Y-61548799D02*
X100815815Y-61800691D01*
X100815815Y-61800691D02*
X100855863Y-61957216D01*
X100855863Y-61957216D02*
X100893000Y-62079197D01*
X100893000Y-62079197D02*
X101188625Y-62228661D01*
X101188625Y-62228661D02*
X101411780Y-62345760D01*
X101411780Y-62345760D02*
X101598260Y-62453597D01*
X101598260Y-62453597D02*
X101751899Y-62555204D01*
X101751899Y-62555204D02*
X101876530Y-62653615D01*
X101876530Y-62653615D02*
X101975986Y-62751862D01*
X101975986Y-62751862D02*
X102054101Y-62852977D01*
X102054101Y-62852977D02*
X102114708Y-62959993D01*
X102114708Y-62959993D02*
X102115685Y-62962040D01*
X102115685Y-62962040D02*
X102153891Y-63037505D01*
X102153891Y-63037505D02*
X102185482Y-63083588D01*
X102185482Y-63083588D02*
X102219361Y-63110293D01*
X102219361Y-63110293D02*
X102262560Y-63127062D01*
X102262560Y-63127062D02*
X102318402Y-63139613D01*
X102318402Y-63139613D02*
X102357227Y-63140682D01*
X102357227Y-63140682D02*
X102357227Y-63590687D01*
X102357227Y-63590687D02*
X102305249Y-63532346D01*
X102305249Y-63532346D02*
X102204545Y-63456207D01*
X102204545Y-63456207D02*
X102091626Y-63406185D01*
X102091626Y-63406185D02*
X101959361Y-63377212D01*
X101959361Y-63377212D02*
X101920569Y-63372463D01*
X101920569Y-63372463D02*
X101752795Y-63341316D01*
X101752795Y-63341316D02*
X101611884Y-63283834D01*
X101611884Y-63283834D02*
X101490226Y-63195301D01*
X101490226Y-63195301D02*
X101380210Y-63071001D01*
X101380210Y-63071001D02*
X101338917Y-63011962D01*
X101338917Y-63011962D02*
X101299887Y-62949319D01*
X101299887Y-62949319D02*
X101284753Y-62908563D01*
X101284753Y-62908563D02*
X101297648Y-62885487D01*
X101297648Y-62885487D02*
X101342706Y-62875880D01*
X101342706Y-62875880D02*
X101424060Y-62875534D01*
X101424060Y-62875534D02*
X101471283Y-62877186D01*
X101471283Y-62877186D02*
X101659399Y-62884584D01*
X101659399Y-62884584D02*
X101540074Y-62804352D01*
X101540074Y-62804352D02*
X101464585Y-62756069D01*
X101464585Y-62756069D02*
X101369019Y-62698394D01*
X101369019Y-62698394D02*
X101270723Y-62641722D01*
X101270723Y-62641722D02*
X101243329Y-62626489D01*
X101243329Y-62626489D02*
X101159658Y-62579277D01*
X101159658Y-62579277D02*
X101103966Y-62542497D01*
X101103966Y-62542497D02*
X101066716Y-62506963D01*
X101066716Y-62506963D02*
X101038373Y-62463489D01*
X101038373Y-62463489D02*
X101009402Y-62402889D01*
X101009402Y-62402889D02*
X101008017Y-62399804D01*
X101008017Y-62399804D02*
X100972910Y-62317987D01*
X100972910Y-62317987D02*
X100941277Y-62238255D01*
X100941277Y-62238255D02*
X100923945Y-62189680D01*
X100923945Y-62189680D02*
X100897744Y-62132366D01*
X100897744Y-62132366D02*
X100855666Y-62094070D01*
X100855666Y-62094070D02*
X100805470Y-62069047D01*
X100805470Y-62069047D02*
X100712411Y-62032202D01*
X100712411Y-62032202D02*
X100629861Y-62005079D01*
X100629861Y-62005079D02*
X100566607Y-61990137D01*
X100566607Y-61990137D02*
X100531431Y-61989831D01*
X100531431Y-61989831D02*
X100528663Y-61991615D01*
X100528663Y-61991615D02*
X100529035Y-62016399D01*
X100529035Y-62016399D02*
X100541867Y-62070424D01*
X100541867Y-62070424D02*
X100564566Y-62143363D01*
X100564566Y-62143363D02*
X100572571Y-62166429D01*
X100572571Y-62166429D02*
X100598151Y-62242212D01*
X100598151Y-62242212D02*
X100615577Y-62301209D01*
X100615577Y-62301209D02*
X100621984Y-62333437D01*
X100621984Y-62333437D02*
X100621353Y-62336369D01*
X100621353Y-62336369D02*
X100598338Y-62335488D01*
X100598338Y-62335488D02*
X100544835Y-62325557D01*
X100544835Y-62325557D02*
X100471220Y-62308583D01*
X100471220Y-62308583D02*
X100449949Y-62303233D01*
X100449949Y-62303233D02*
X100130083Y-62241799D01*
X100130083Y-62241799D02*
X99809816Y-62221225D01*
X99809816Y-62221225D02*
X99488527Y-62241677D01*
X99488527Y-62241677D02*
X99165593Y-62303321D01*
X99165593Y-62303321D02*
X98840392Y-62406323D01*
X98840392Y-62406323D02*
X98512301Y-62550847D01*
X98512301Y-62550847D02*
X98180697Y-62737061D01*
X98180697Y-62737061D02*
X97844960Y-62965128D01*
X97844960Y-62965128D02*
X97780083Y-63013637D01*
X97780083Y-63013637D02*
X97684615Y-63087052D01*
X97684615Y-63087052D02*
X97592146Y-63159917D01*
X97592146Y-63159917D02*
X97512651Y-63224260D01*
X97512651Y-63224260D02*
X97456109Y-63272110D01*
X97456109Y-63272110D02*
X97452000Y-63275772D01*
X97452000Y-63275772D02*
X97356750Y-63361286D01*
X97356750Y-63361286D02*
X97441416Y-63436498D01*
X97441416Y-63436498D02*
X97656912Y-63616271D01*
X97656912Y-63616271D02*
X97894832Y-63794463D01*
X97894832Y-63794463D02*
X98139856Y-63960189D01*
X98139856Y-63960189D02*
X98376666Y-64102566D01*
X98376666Y-64102566D02*
X98386848Y-64108230D01*
X98386848Y-64108230D02*
X98454126Y-64143617D01*
X98454126Y-64143617D02*
X98536272Y-64184040D01*
X98536272Y-64184040D02*
X98624922Y-64225744D01*
X98624922Y-64225744D02*
X98711710Y-64264973D01*
X98711710Y-64264973D02*
X98788270Y-64297970D01*
X98788270Y-64297970D02*
X98846239Y-64320979D01*
X98846239Y-64320979D02*
X98877250Y-64330246D01*
X98877250Y-64330246D02*
X98880108Y-64329704D01*
X98880108Y-64329704D02*
X99082415Y-64063455D01*
X99082415Y-64063455D02*
X99318686Y-63815237D01*
X99318686Y-63815237D02*
X99582429Y-63590615D01*
X99582429Y-63590615D02*
X99867154Y-63395150D01*
X99867154Y-63395150D02*
X100148279Y-63242898D01*
X100148279Y-63242898D02*
X100214049Y-63213972D01*
X100214049Y-63213972D02*
X100303439Y-63177736D01*
X100303439Y-63177736D02*
X100408600Y-63137038D01*
X100408600Y-63137038D02*
X100521682Y-63094726D01*
X100521682Y-63094726D02*
X100634835Y-63053650D01*
X100634835Y-63053650D02*
X100740209Y-63016658D01*
X100740209Y-63016658D02*
X100829952Y-62986598D01*
X100829952Y-62986598D02*
X100896216Y-62966320D01*
X100896216Y-62966320D02*
X100931150Y-62958672D01*
X100931150Y-62958672D02*
X100931550Y-62958667D01*
X100931550Y-62958667D02*
X100947538Y-62975018D01*
X100947538Y-62975018D02*
X100977573Y-63017061D01*
X100977573Y-63017061D02*
X101015086Y-63074279D01*
X101015086Y-63074279D02*
X101053508Y-63136156D01*
X101053508Y-63136156D02*
X101086269Y-63192177D01*
X101086269Y-63192177D02*
X101106801Y-63231824D01*
X101106801Y-63231824D02*
X101110148Y-63244575D01*
X101110148Y-63244575D02*
X101086921Y-63254248D01*
X101086921Y-63254248D02*
X101032523Y-63272302D01*
X101032523Y-63272302D02*
X100956527Y-63295636D01*
X100956527Y-63295636D02*
X100912055Y-63308712D01*
X100912055Y-63308712D02*
X100562847Y-63427951D01*
X100562847Y-63427951D02*
X100245833Y-63574335D01*
X100245833Y-63574335D02*
X99960197Y-63748683D01*
X99960197Y-63748683D02*
X99705124Y-63951815D01*
X99705124Y-63951815D02*
X99479798Y-64184551D01*
X99479798Y-64184551D02*
X99283404Y-64447710D01*
X99283404Y-64447710D02*
X99115128Y-64742111D01*
X99115128Y-64742111D02*
X98974155Y-65068575D01*
X98974155Y-65068575D02*
X98881319Y-65350500D01*
X98881319Y-65350500D02*
X98818667Y-65596755D01*
X98818667Y-65596755D02*
X98766418Y-65861725D01*
X98766418Y-65861725D02*
X98727896Y-66126254D01*
X98727896Y-66126254D02*
X98707416Y-66353076D01*
X98707416Y-66353076D02*
X98694084Y-66583068D01*
X98694084Y-66583068D02*
X98798000Y-66570929D01*
X98798000Y-66570929D02*
X98875812Y-66562539D01*
X98875812Y-66562539D02*
X98972438Y-66553066D01*
X98972438Y-66553066D02*
X99050083Y-66546044D01*
X99050083Y-66546044D02*
X99250677Y-66522763D01*
X99250677Y-66522763D02*
X99463688Y-66487373D01*
X99463688Y-66487373D02*
X99679806Y-66442185D01*
X99679806Y-66442185D02*
X99889719Y-66389511D01*
X99889719Y-66389511D02*
X100084115Y-66331664D01*
X100084115Y-66331664D02*
X100253683Y-66270956D01*
X100253683Y-66270956D02*
X100374626Y-66217175D01*
X100374626Y-66217175D02*
X100450336Y-66178879D01*
X100450336Y-66178879D02*
X100420839Y-66013398D01*
X100420839Y-66013398D02*
X100408209Y-65907489D01*
X100408209Y-65907489D02*
X100401077Y-65770768D01*
X100401077Y-65770768D02*
X100399167Y-65614362D01*
X100399167Y-65614362D02*
X100402201Y-65449398D01*
X100402201Y-65449398D02*
X100409902Y-65287001D01*
X100409902Y-65287001D02*
X100421995Y-65138297D01*
X100421995Y-65138297D02*
X100438201Y-65014413D01*
X100438201Y-65014413D02*
X100446812Y-64969500D01*
X100446812Y-64969500D02*
X100522335Y-64690048D01*
X100522335Y-64690048D02*
X100627052Y-64397448D01*
X100627052Y-64397448D02*
X100755746Y-64103213D01*
X100755746Y-64103213D02*
X100903205Y-63818857D01*
X100903205Y-63818857D02*
X101064214Y-63555895D01*
X101064214Y-63555895D02*
X101129900Y-63461145D01*
X101129900Y-63461145D02*
X101202443Y-63360373D01*
X101202443Y-63360373D02*
X101307250Y-63443821D01*
X101307250Y-63443821D02*
X101365970Y-63488854D01*
X101365970Y-63488854D02*
X101413596Y-63522296D01*
X101413596Y-63522296D02*
X101436882Y-63535545D01*
X101436882Y-63535545D02*
X101437423Y-63556016D01*
X101437423Y-63556016D02*
X101415243Y-63605749D01*
X101415243Y-63605749D02*
X101372716Y-63679911D01*
X101372716Y-63679911D02*
X101341638Y-63729173D01*
X101341638Y-63729173D02*
X101156625Y-64042459D01*
X101156625Y-64042459D02*
X101005471Y-64357633D01*
X101005471Y-64357633D02*
X100889259Y-64671228D01*
X100889259Y-64671228D02*
X100809075Y-64979776D01*
X100809075Y-64979776D02*
X100766001Y-65279811D01*
X100766001Y-65279811D02*
X100761122Y-65567864D01*
X100761122Y-65567864D02*
X100761986Y-65583334D01*
X100761986Y-65583334D02*
X100797814Y-65874906D01*
X100797814Y-65874906D02*
X100869945Y-66178086D01*
X100869945Y-66178086D02*
X100976251Y-66486728D01*
X100976251Y-66486728D02*
X101114605Y-66794686D01*
X101114605Y-66794686D02*
X101282878Y-67095816D01*
X101282878Y-67095816D02*
X101289221Y-67106055D01*
X101289221Y-67106055D02*
X101345118Y-67191017D01*
X101345118Y-67191017D02*
X101420444Y-67298620D01*
X101420444Y-67298620D02*
X101507727Y-67418818D01*
X101507727Y-67418818D02*
X101599491Y-67541570D01*
X101599491Y-67541570D02*
X101688263Y-67656830D01*
X101688263Y-67656830D02*
X101766569Y-67754555D01*
X101766569Y-67754555D02*
X101809771Y-67805579D01*
X101809771Y-67805579D02*
X101893119Y-67900573D01*
X101893119Y-67900573D02*
X101893119Y-68577429D01*
X101893119Y-68577429D02*
X101715076Y-68391699D01*
X101715076Y-68391699D02*
X101485393Y-68136444D01*
X101485393Y-68136444D02*
X101269406Y-67865627D01*
X101269406Y-67865627D02*
X101072052Y-67586590D01*
X101072052Y-67586590D02*
X100898267Y-67306678D01*
X100898267Y-67306678D02*
X100752986Y-67033233D01*
X100752986Y-67033233D02*
X100659596Y-66821530D01*
X100659596Y-66821530D02*
X100624999Y-66734600D01*
X100624999Y-66734600D02*
X100596395Y-66663506D01*
X100596395Y-66663506D02*
X100577194Y-66616678D01*
X100577194Y-66616678D02*
X100570910Y-66602370D01*
X100570910Y-66602370D02*
X100550602Y-66606796D01*
X100550602Y-66606796D02*
X100498790Y-66624378D01*
X100498790Y-66624378D02*
X100423194Y-66652350D01*
X100423194Y-66652350D02*
X100331534Y-66687946D01*
X100331534Y-66687946D02*
X100326647Y-66689884D01*
X100326647Y-66689884D02*
X99938891Y-66824183D01*
X99938891Y-66824183D02*
X99530664Y-66928788D01*
X99530664Y-66928788D02*
X99112241Y-67001912D01*
X99112241Y-67001912D02*
X98693895Y-67041766D01*
X98693895Y-67041766D02*
X98285902Y-67046560D01*
X98285902Y-67046560D02*
X98279588Y-67046344D01*
X98279588Y-67046344D02*
X98207594Y-67043834D01*
X98207594Y-67043834D02*
X98220543Y-66678709D01*
X98220543Y-66678709D02*
X98227174Y-66537282D01*
X98227174Y-66537282D02*
X98236827Y-66390586D01*
X98236827Y-66390586D02*
X98248425Y-66252265D01*
X98248425Y-66252265D02*
X98260887Y-66135968D01*
X98260887Y-66135968D02*
X98266956Y-66091334D01*
X98266956Y-66091334D02*
X98309911Y-65848769D01*
X98309911Y-65848769D02*
X98365955Y-65598345D01*
X98365955Y-65598345D02*
X98431952Y-65351404D01*
X98431952Y-65351404D02*
X98504764Y-65119287D01*
X98504764Y-65119287D02*
X98581254Y-64913336D01*
X98581254Y-64913336D02*
X98614099Y-64836524D01*
X98614099Y-64836524D02*
X98675013Y-64700759D01*
X98675013Y-64700759D02*
X98502715Y-64631631D01*
X98502715Y-64631631D02*
X98191859Y-64490270D01*
X98191859Y-64490270D02*
X97874574Y-64314456D01*
X97874574Y-64314456D02*
X97558878Y-64109526D01*
X97558878Y-64109526D02*
X97252789Y-63880821D01*
X97252789Y-63880821D02*
X96964325Y-63633678D01*
X96964325Y-63633678D02*
X96869322Y-63544112D01*
X96869322Y-63544112D02*
X96679417Y-63360395D01*
X96679417Y-63360395D02*
X96869916Y-63178046D01*
X96869916Y-63178046D02*
X96869916Y-63178046D01*
G36*
X101485393Y-68136444D02*
G01*
X101269406Y-67865627D01*
X101072052Y-67586590D01*
X100898267Y-67306678D01*
X100752986Y-67033233D01*
X100659596Y-66821530D01*
X100624999Y-66734600D01*
X100596395Y-66663506D01*
X100577194Y-66616678D01*
X100570910Y-66602370D01*
X100550602Y-66606796D01*
X100498790Y-66624378D01*
X100423194Y-66652350D01*
X100331534Y-66687946D01*
X100326647Y-66689884D01*
X99938891Y-66824183D01*
X99530664Y-66928788D01*
X99112241Y-67001912D01*
X98693895Y-67041766D01*
X98285902Y-67046560D01*
X98279588Y-67046344D01*
X98207594Y-67043834D01*
X98220543Y-66678709D01*
X98227174Y-66537282D01*
X98236827Y-66390586D01*
X98248425Y-66252265D01*
X98260887Y-66135968D01*
X98266956Y-66091334D01*
X98309911Y-65848769D01*
X98365955Y-65598345D01*
X98431952Y-65351404D01*
X98504764Y-65119287D01*
X98581254Y-64913336D01*
X98614099Y-64836524D01*
X98675013Y-64700759D01*
X98502715Y-64631631D01*
X98191859Y-64490270D01*
X97874574Y-64314456D01*
X97558878Y-64109526D01*
X97252789Y-63880821D01*
X96964325Y-63633678D01*
X96869322Y-63544112D01*
X96680338Y-63361286D01*
X97356750Y-63361286D01*
X97441416Y-63436498D01*
X97656912Y-63616271D01*
X97894832Y-63794463D01*
X98139856Y-63960189D01*
X98376666Y-64102566D01*
X98386848Y-64108230D01*
X98454126Y-64143617D01*
X98536272Y-64184040D01*
X98624922Y-64225744D01*
X98711710Y-64264973D01*
X98788270Y-64297970D01*
X98846239Y-64320979D01*
X98877250Y-64330246D01*
X98880108Y-64329704D01*
X99082415Y-64063455D01*
X99318686Y-63815237D01*
X99582429Y-63590615D01*
X99867154Y-63395150D01*
X100148279Y-63242898D01*
X100214049Y-63213972D01*
X100303439Y-63177736D01*
X100408600Y-63137038D01*
X100521682Y-63094726D01*
X100634835Y-63053650D01*
X100740209Y-63016658D01*
X100829952Y-62986598D01*
X100896216Y-62966320D01*
X100931150Y-62958672D01*
X100931550Y-62958667D01*
X100947538Y-62975018D01*
X100977573Y-63017061D01*
X101015086Y-63074279D01*
X101053508Y-63136156D01*
X101086269Y-63192177D01*
X101106801Y-63231824D01*
X101110148Y-63244575D01*
X101086921Y-63254248D01*
X101032523Y-63272302D01*
X100956527Y-63295636D01*
X100912055Y-63308712D01*
X100562847Y-63427951D01*
X100245833Y-63574335D01*
X99960197Y-63748683D01*
X99705124Y-63951815D01*
X99479798Y-64184551D01*
X99283404Y-64447710D01*
X99115128Y-64742111D01*
X98974155Y-65068575D01*
X98881319Y-65350500D01*
X98818667Y-65596755D01*
X98766418Y-65861725D01*
X98727896Y-66126254D01*
X98707416Y-66353076D01*
X98694084Y-66583068D01*
X98798000Y-66570929D01*
X98875812Y-66562539D01*
X98972438Y-66553066D01*
X99050083Y-66546044D01*
X99250677Y-66522763D01*
X99463688Y-66487373D01*
X99679806Y-66442185D01*
X99889719Y-66389511D01*
X100084115Y-66331664D01*
X100253683Y-66270956D01*
X100374626Y-66217175D01*
X100450336Y-66178879D01*
X100420839Y-66013398D01*
X100408209Y-65907489D01*
X100401077Y-65770768D01*
X100399167Y-65614362D01*
X100402201Y-65449398D01*
X100409902Y-65287001D01*
X100421995Y-65138297D01*
X100438201Y-65014413D01*
X100446812Y-64969500D01*
X100522335Y-64690048D01*
X100627052Y-64397448D01*
X100755746Y-64103213D01*
X100903205Y-63818857D01*
X101064214Y-63555895D01*
X101129900Y-63461145D01*
X101202443Y-63360373D01*
X101307250Y-63443821D01*
X101365970Y-63488854D01*
X101413596Y-63522296D01*
X101436882Y-63535545D01*
X101437423Y-63556016D01*
X101415243Y-63605749D01*
X101372716Y-63679911D01*
X101341638Y-63729173D01*
X101156625Y-64042459D01*
X101005471Y-64357633D01*
X100889259Y-64671228D01*
X100809075Y-64979776D01*
X100766001Y-65279811D01*
X100761122Y-65567864D01*
X100761986Y-65583334D01*
X100797814Y-65874906D01*
X100869945Y-66178086D01*
X100976251Y-66486728D01*
X101114605Y-66794686D01*
X101282878Y-67095816D01*
X101289221Y-67106055D01*
X101345118Y-67191017D01*
X101420444Y-67298620D01*
X101507727Y-67418818D01*
X101599491Y-67541570D01*
X101688263Y-67656830D01*
X101766569Y-67754555D01*
X101809771Y-67805579D01*
X101893119Y-67900573D01*
X101939925Y-67858495D01*
X101985979Y-67811022D01*
X102050270Y-67736541D01*
X102126791Y-67642746D01*
X102209534Y-67537334D01*
X102292491Y-67427999D01*
X102369655Y-67322437D01*
X102435016Y-67228341D01*
X102452020Y-67202584D01*
X102607506Y-66943757D01*
X102744503Y-66676353D01*
X102859288Y-66409038D01*
X102948139Y-66150478D01*
X103007161Y-65910256D01*
X103026043Y-65763314D01*
X103034532Y-65588498D01*
X103033096Y-65398851D01*
X103022206Y-65207416D01*
X103002329Y-65027235D01*
X102973936Y-64871350D01*
X102969082Y-64851308D01*
X102874792Y-64543925D01*
X102745538Y-64234455D01*
X102579208Y-63918103D01*
X102498543Y-63783254D01*
X102400871Y-63639672D01*
X102357227Y-63590687D01*
X102305249Y-63532346D01*
X102204545Y-63456207D01*
X102091626Y-63406185D01*
X101959361Y-63377212D01*
X101920569Y-63372463D01*
X101752795Y-63341316D01*
X101611884Y-63283834D01*
X101490226Y-63195301D01*
X101380210Y-63071001D01*
X101338917Y-63011962D01*
X101299887Y-62949319D01*
X101284753Y-62908563D01*
X101297648Y-62885487D01*
X101342706Y-62875880D01*
X101424060Y-62875534D01*
X101471283Y-62877186D01*
X101659399Y-62884584D01*
X101540074Y-62804352D01*
X101464585Y-62756069D01*
X101369019Y-62698394D01*
X101270723Y-62641722D01*
X101243329Y-62626489D01*
X101159658Y-62579277D01*
X101103966Y-62542497D01*
X101066716Y-62506963D01*
X101038373Y-62463489D01*
X101009402Y-62402889D01*
X101008017Y-62399804D01*
X100972910Y-62317987D01*
X100941277Y-62238255D01*
X100923945Y-62189680D01*
X100897744Y-62132366D01*
X100855666Y-62094070D01*
X100805470Y-62069047D01*
X100712411Y-62032202D01*
X100629861Y-62005079D01*
X100566607Y-61990137D01*
X100531431Y-61989831D01*
X100528663Y-61991615D01*
X100529035Y-62016399D01*
X100541867Y-62070424D01*
X100564566Y-62143363D01*
X100572571Y-62166429D01*
X100598151Y-62242212D01*
X100615577Y-62301209D01*
X100621984Y-62333437D01*
X100621353Y-62336369D01*
X100598338Y-62335488D01*
X100544835Y-62325557D01*
X100471220Y-62308583D01*
X100449949Y-62303233D01*
X100130083Y-62241799D01*
X99809816Y-62221225D01*
X99488527Y-62241677D01*
X99165593Y-62303321D01*
X98840392Y-62406323D01*
X98512301Y-62550847D01*
X98180697Y-62737061D01*
X97844960Y-62965128D01*
X97780083Y-63013637D01*
X97684615Y-63087052D01*
X97592146Y-63159917D01*
X97512651Y-63224260D01*
X97456109Y-63272110D01*
X97452000Y-63275772D01*
X97356750Y-63361286D01*
X96680338Y-63361286D01*
X96679417Y-63360395D01*
X96869916Y-63178046D01*
X97198723Y-62884675D01*
X97534758Y-62626395D01*
X97876193Y-62403870D01*
X98221197Y-62217762D01*
X98567944Y-62068734D01*
X98914604Y-61957449D01*
X99259349Y-61884569D01*
X99600350Y-61850756D01*
X99935778Y-61856675D01*
X100263805Y-61902986D01*
X100341107Y-61920156D01*
X100422920Y-61938440D01*
X100470658Y-61945411D01*
X100490924Y-61941473D01*
X100491301Y-61929363D01*
X100481839Y-61896028D01*
X100466538Y-61833070D01*
X100448232Y-61752301D01*
X100442413Y-61725598D01*
X100427618Y-61645056D01*
X100417035Y-61556147D01*
X100410141Y-61450596D01*
X100406414Y-61320125D01*
X100406181Y-61284873D01*
X100761527Y-61284873D01*
X100776530Y-61548799D01*
X100815815Y-61800691D01*
X100855863Y-61957216D01*
X100893000Y-62079197D01*
X101188625Y-62228661D01*
X101411780Y-62345760D01*
X101598260Y-62453597D01*
X101751899Y-62555204D01*
X101876530Y-62653615D01*
X101975986Y-62751862D01*
X102054101Y-62852977D01*
X102114708Y-62959993D01*
X102115685Y-62962040D01*
X102153891Y-63037505D01*
X102185482Y-63083588D01*
X102219361Y-63110293D01*
X102262560Y-63127062D01*
X102318402Y-63139613D01*
X102357227Y-63140682D01*
X102362277Y-63138824D01*
X102386769Y-63111668D01*
X102426574Y-63054022D01*
X102477523Y-62972979D01*
X102535448Y-62875633D01*
X102596181Y-62769080D01*
X102655553Y-62660412D01*
X102709396Y-62556725D01*
X102735530Y-62503584D01*
X102853174Y-62235593D01*
X102939828Y-61983883D01*
X102997910Y-61738730D01*
X103029836Y-61490413D01*
X103038148Y-61286500D01*
X103035733Y-61149806D01*
X103027621Y-61010703D01*
X103015031Y-60887021D01*
X103007363Y-60836110D01*
X102940464Y-60553800D01*
X102837598Y-60259544D01*
X102701433Y-59958701D01*
X102534636Y-59656628D01*
X102339876Y-59358683D01*
X102140668Y-59095750D01*
X102074508Y-59015474D01*
X102013629Y-58943910D01*
X101965446Y-58889638D01*
X101940128Y-58863622D01*
X101894113Y-58821993D01*
X101820982Y-58905955D01*
X101569845Y-59215265D01*
X101348651Y-59531173D01*
X101159498Y-59849808D01*
X101004486Y-60167299D01*
X100885716Y-60479772D01*
X100806689Y-60776511D01*
X100771388Y-61022810D01*
X100761527Y-61284873D01*
X100406181Y-61284873D01*
X100405332Y-61156458D01*
X100405348Y-61138334D01*
X100407452Y-60954617D01*
X100414525Y-60800954D01*
X100428588Y-60665363D01*
X100451666Y-60535864D01*
X100485780Y-60400475D01*
X100532953Y-60247216D01*
X100578668Y-60111750D01*
X100699849Y-59809284D01*
X100856228Y-59498038D01*
X101043571Y-59184640D01*
X101257647Y-58875715D01*
X101494223Y-58577892D01*
X101714307Y-58333750D01*
X101896733Y-58143250D01*
X102118378Y-58371426D01*
X102382993Y-58665354D01*
X102621268Y-58973881D01*
X102831597Y-59293376D01*
X103012371Y-59620208D01*
X103161984Y-59950747D01*
X103278826Y-60281360D01*
X103361292Y-60608417D01*
X103407772Y-60928287D01*
X103416660Y-61237338D01*
X103413796Y-61297356D01*
X103374396Y-61627027D01*
X103297036Y-61965282D01*
X103183686Y-62306639D01*
X103036314Y-62645618D01*
X102856890Y-62976739D01*
X102748871Y-63148081D01*
X102602199Y-63369245D01*
X102670817Y-63459139D01*
X102807481Y-63657895D01*
X102940475Y-63888345D01*
X103065047Y-64139864D01*
X103176445Y-64401829D01*
X103269914Y-64663613D01*
X103340702Y-64914592D01*
X103359282Y-64998123D01*
X103383174Y-65145866D01*
X103400466Y-65316506D01*
X103410565Y-65496210D01*
X103412882Y-65671146D01*
X103406825Y-65827481D01*
X103398277Y-65911417D01*
X103347134Y-66185695D01*
X103268792Y-66474169D01*
X103167811Y-66763044D01*
X103048754Y-67038527D01*
X102981789Y-67170834D01*
X102850149Y-67398801D01*
X102695831Y-67635925D01*
X102526597Y-67871736D01*
X102350204Y-68095767D01*
X102174412Y-68297548D01*
X102056160Y-68419667D01*
X101894067Y-68578417D01*
X101893119Y-68577429D01*
X101715076Y-68391699D01*
X101485393Y-68136444D01*
G37*
X101485393Y-68136444D02*
X101269406Y-67865627D01*
X101072052Y-67586590D01*
X100898267Y-67306678D01*
X100752986Y-67033233D01*
X100659596Y-66821530D01*
X100624999Y-66734600D01*
X100596395Y-66663506D01*
X100577194Y-66616678D01*
X100570910Y-66602370D01*
X100550602Y-66606796D01*
X100498790Y-66624378D01*
X100423194Y-66652350D01*
X100331534Y-66687946D01*
X100326647Y-66689884D01*
X99938891Y-66824183D01*
X99530664Y-66928788D01*
X99112241Y-67001912D01*
X98693895Y-67041766D01*
X98285902Y-67046560D01*
X98279588Y-67046344D01*
X98207594Y-67043834D01*
X98220543Y-66678709D01*
X98227174Y-66537282D01*
X98236827Y-66390586D01*
X98248425Y-66252265D01*
X98260887Y-66135968D01*
X98266956Y-66091334D01*
X98309911Y-65848769D01*
X98365955Y-65598345D01*
X98431952Y-65351404D01*
X98504764Y-65119287D01*
X98581254Y-64913336D01*
X98614099Y-64836524D01*
X98675013Y-64700759D01*
X98502715Y-64631631D01*
X98191859Y-64490270D01*
X97874574Y-64314456D01*
X97558878Y-64109526D01*
X97252789Y-63880821D01*
X96964325Y-63633678D01*
X96869322Y-63544112D01*
X96680338Y-63361286D01*
X97356750Y-63361286D01*
X97441416Y-63436498D01*
X97656912Y-63616271D01*
X97894832Y-63794463D01*
X98139856Y-63960189D01*
X98376666Y-64102566D01*
X98386848Y-64108230D01*
X98454126Y-64143617D01*
X98536272Y-64184040D01*
X98624922Y-64225744D01*
X98711710Y-64264973D01*
X98788270Y-64297970D01*
X98846239Y-64320979D01*
X98877250Y-64330246D01*
X98880108Y-64329704D01*
X99082415Y-64063455D01*
X99318686Y-63815237D01*
X99582429Y-63590615D01*
X99867154Y-63395150D01*
X100148279Y-63242898D01*
X100214049Y-63213972D01*
X100303439Y-63177736D01*
X100408600Y-63137038D01*
X100521682Y-63094726D01*
X100634835Y-63053650D01*
X100740209Y-63016658D01*
X100829952Y-62986598D01*
X100896216Y-62966320D01*
X100931150Y-62958672D01*
X100931550Y-62958667D01*
X100947538Y-62975018D01*
X100977573Y-63017061D01*
X101015086Y-63074279D01*
X101053508Y-63136156D01*
X101086269Y-63192177D01*
X101106801Y-63231824D01*
X101110148Y-63244575D01*
X101086921Y-63254248D01*
X101032523Y-63272302D01*
X100956527Y-63295636D01*
X100912055Y-63308712D01*
X100562847Y-63427951D01*
X100245833Y-63574335D01*
X99960197Y-63748683D01*
X99705124Y-63951815D01*
X99479798Y-64184551D01*
X99283404Y-64447710D01*
X99115128Y-64742111D01*
X98974155Y-65068575D01*
X98881319Y-65350500D01*
X98818667Y-65596755D01*
X98766418Y-65861725D01*
X98727896Y-66126254D01*
X98707416Y-66353076D01*
X98694084Y-66583068D01*
X98798000Y-66570929D01*
X98875812Y-66562539D01*
X98972438Y-66553066D01*
X99050083Y-66546044D01*
X99250677Y-66522763D01*
X99463688Y-66487373D01*
X99679806Y-66442185D01*
X99889719Y-66389511D01*
X100084115Y-66331664D01*
X100253683Y-66270956D01*
X100374626Y-66217175D01*
X100450336Y-66178879D01*
X100420839Y-66013398D01*
X100408209Y-65907489D01*
X100401077Y-65770768D01*
X100399167Y-65614362D01*
X100402201Y-65449398D01*
X100409902Y-65287001D01*
X100421995Y-65138297D01*
X100438201Y-65014413D01*
X100446812Y-64969500D01*
X100522335Y-64690048D01*
X100627052Y-64397448D01*
X100755746Y-64103213D01*
X100903205Y-63818857D01*
X101064214Y-63555895D01*
X101129900Y-63461145D01*
X101202443Y-63360373D01*
X101307250Y-63443821D01*
X101365970Y-63488854D01*
X101413596Y-63522296D01*
X101436882Y-63535545D01*
X101437423Y-63556016D01*
X101415243Y-63605749D01*
X101372716Y-63679911D01*
X101341638Y-63729173D01*
X101156625Y-64042459D01*
X101005471Y-64357633D01*
X100889259Y-64671228D01*
X100809075Y-64979776D01*
X100766001Y-65279811D01*
X100761122Y-65567864D01*
X100761986Y-65583334D01*
X100797814Y-65874906D01*
X100869945Y-66178086D01*
X100976251Y-66486728D01*
X101114605Y-66794686D01*
X101282878Y-67095816D01*
X101289221Y-67106055D01*
X101345118Y-67191017D01*
X101420444Y-67298620D01*
X101507727Y-67418818D01*
X101599491Y-67541570D01*
X101688263Y-67656830D01*
X101766569Y-67754555D01*
X101809771Y-67805579D01*
X101893119Y-67900573D01*
X101939925Y-67858495D01*
X101985979Y-67811022D01*
X102050270Y-67736541D01*
X102126791Y-67642746D01*
X102209534Y-67537334D01*
X102292491Y-67427999D01*
X102369655Y-67322437D01*
X102435016Y-67228341D01*
X102452020Y-67202584D01*
X102607506Y-66943757D01*
X102744503Y-66676353D01*
X102859288Y-66409038D01*
X102948139Y-66150478D01*
X103007161Y-65910256D01*
X103026043Y-65763314D01*
X103034532Y-65588498D01*
X103033096Y-65398851D01*
X103022206Y-65207416D01*
X103002329Y-65027235D01*
X102973936Y-64871350D01*
X102969082Y-64851308D01*
X102874792Y-64543925D01*
X102745538Y-64234455D01*
X102579208Y-63918103D01*
X102498543Y-63783254D01*
X102400871Y-63639672D01*
X102357227Y-63590687D01*
X102305249Y-63532346D01*
X102204545Y-63456207D01*
X102091626Y-63406185D01*
X101959361Y-63377212D01*
X101920569Y-63372463D01*
X101752795Y-63341316D01*
X101611884Y-63283834D01*
X101490226Y-63195301D01*
X101380210Y-63071001D01*
X101338917Y-63011962D01*
X101299887Y-62949319D01*
X101284753Y-62908563D01*
X101297648Y-62885487D01*
X101342706Y-62875880D01*
X101424060Y-62875534D01*
X101471283Y-62877186D01*
X101659399Y-62884584D01*
X101540074Y-62804352D01*
X101464585Y-62756069D01*
X101369019Y-62698394D01*
X101270723Y-62641722D01*
X101243329Y-62626489D01*
X101159658Y-62579277D01*
X101103966Y-62542497D01*
X101066716Y-62506963D01*
X101038373Y-62463489D01*
X101009402Y-62402889D01*
X101008017Y-62399804D01*
X100972910Y-62317987D01*
X100941277Y-62238255D01*
X100923945Y-62189680D01*
X100897744Y-62132366D01*
X100855666Y-62094070D01*
X100805470Y-62069047D01*
X100712411Y-62032202D01*
X100629861Y-62005079D01*
X100566607Y-61990137D01*
X100531431Y-61989831D01*
X100528663Y-61991615D01*
X100529035Y-62016399D01*
X100541867Y-62070424D01*
X100564566Y-62143363D01*
X100572571Y-62166429D01*
X100598151Y-62242212D01*
X100615577Y-62301209D01*
X100621984Y-62333437D01*
X100621353Y-62336369D01*
X100598338Y-62335488D01*
X100544835Y-62325557D01*
X100471220Y-62308583D01*
X100449949Y-62303233D01*
X100130083Y-62241799D01*
X99809816Y-62221225D01*
X99488527Y-62241677D01*
X99165593Y-62303321D01*
X98840392Y-62406323D01*
X98512301Y-62550847D01*
X98180697Y-62737061D01*
X97844960Y-62965128D01*
X97780083Y-63013637D01*
X97684615Y-63087052D01*
X97592146Y-63159917D01*
X97512651Y-63224260D01*
X97456109Y-63272110D01*
X97452000Y-63275772D01*
X97356750Y-63361286D01*
X96680338Y-63361286D01*
X96679417Y-63360395D01*
X96869916Y-63178046D01*
X97198723Y-62884675D01*
X97534758Y-62626395D01*
X97876193Y-62403870D01*
X98221197Y-62217762D01*
X98567944Y-62068734D01*
X98914604Y-61957449D01*
X99259349Y-61884569D01*
X99600350Y-61850756D01*
X99935778Y-61856675D01*
X100263805Y-61902986D01*
X100341107Y-61920156D01*
X100422920Y-61938440D01*
X100470658Y-61945411D01*
X100490924Y-61941473D01*
X100491301Y-61929363D01*
X100481839Y-61896028D01*
X100466538Y-61833070D01*
X100448232Y-61752301D01*
X100442413Y-61725598D01*
X100427618Y-61645056D01*
X100417035Y-61556147D01*
X100410141Y-61450596D01*
X100406414Y-61320125D01*
X100406181Y-61284873D01*
X100761527Y-61284873D01*
X100776530Y-61548799D01*
X100815815Y-61800691D01*
X100855863Y-61957216D01*
X100893000Y-62079197D01*
X101188625Y-62228661D01*
X101411780Y-62345760D01*
X101598260Y-62453597D01*
X101751899Y-62555204D01*
X101876530Y-62653615D01*
X101975986Y-62751862D01*
X102054101Y-62852977D01*
X102114708Y-62959993D01*
X102115685Y-62962040D01*
X102153891Y-63037505D01*
X102185482Y-63083588D01*
X102219361Y-63110293D01*
X102262560Y-63127062D01*
X102318402Y-63139613D01*
X102357227Y-63140682D01*
X102362277Y-63138824D01*
X102386769Y-63111668D01*
X102426574Y-63054022D01*
X102477523Y-62972979D01*
X102535448Y-62875633D01*
X102596181Y-62769080D01*
X102655553Y-62660412D01*
X102709396Y-62556725D01*
X102735530Y-62503584D01*
X102853174Y-62235593D01*
X102939828Y-61983883D01*
X102997910Y-61738730D01*
X103029836Y-61490413D01*
X103038148Y-61286500D01*
X103035733Y-61149806D01*
X103027621Y-61010703D01*
X103015031Y-60887021D01*
X103007363Y-60836110D01*
X102940464Y-60553800D01*
X102837598Y-60259544D01*
X102701433Y-59958701D01*
X102534636Y-59656628D01*
X102339876Y-59358683D01*
X102140668Y-59095750D01*
X102074508Y-59015474D01*
X102013629Y-58943910D01*
X101965446Y-58889638D01*
X101940128Y-58863622D01*
X101894113Y-58821993D01*
X101820982Y-58905955D01*
X101569845Y-59215265D01*
X101348651Y-59531173D01*
X101159498Y-59849808D01*
X101004486Y-60167299D01*
X100885716Y-60479772D01*
X100806689Y-60776511D01*
X100771388Y-61022810D01*
X100761527Y-61284873D01*
X100406181Y-61284873D01*
X100405332Y-61156458D01*
X100405348Y-61138334D01*
X100407452Y-60954617D01*
X100414525Y-60800954D01*
X100428588Y-60665363D01*
X100451666Y-60535864D01*
X100485780Y-60400475D01*
X100532953Y-60247216D01*
X100578668Y-60111750D01*
X100699849Y-59809284D01*
X100856228Y-59498038D01*
X101043571Y-59184640D01*
X101257647Y-58875715D01*
X101494223Y-58577892D01*
X101714307Y-58333750D01*
X101896733Y-58143250D01*
X102118378Y-58371426D01*
X102382993Y-58665354D01*
X102621268Y-58973881D01*
X102831597Y-59293376D01*
X103012371Y-59620208D01*
X103161984Y-59950747D01*
X103278826Y-60281360D01*
X103361292Y-60608417D01*
X103407772Y-60928287D01*
X103416660Y-61237338D01*
X103413796Y-61297356D01*
X103374396Y-61627027D01*
X103297036Y-61965282D01*
X103183686Y-62306639D01*
X103036314Y-62645618D01*
X102856890Y-62976739D01*
X102748871Y-63148081D01*
X102602199Y-63369245D01*
X102670817Y-63459139D01*
X102807481Y-63657895D01*
X102940475Y-63888345D01*
X103065047Y-64139864D01*
X103176445Y-64401829D01*
X103269914Y-64663613D01*
X103340702Y-64914592D01*
X103359282Y-64998123D01*
X103383174Y-65145866D01*
X103400466Y-65316506D01*
X103410565Y-65496210D01*
X103412882Y-65671146D01*
X103406825Y-65827481D01*
X103398277Y-65911417D01*
X103347134Y-66185695D01*
X103268792Y-66474169D01*
X103167811Y-66763044D01*
X103048754Y-67038527D01*
X102981789Y-67170834D01*
X102850149Y-67398801D01*
X102695831Y-67635925D01*
X102526597Y-67871736D01*
X102350204Y-68095767D01*
X102174412Y-68297548D01*
X102056160Y-68419667D01*
X101894067Y-68578417D01*
X101893119Y-68577429D01*
X101715076Y-68391699D01*
X101485393Y-68136444D01*
X98800303Y-61248558D02*
X98839121Y-61203110D01*
X98839121Y-61203110D02*
X98893563Y-61146528D01*
X98893563Y-61146528D02*
X98955237Y-61086864D01*
X98955237Y-61086864D02*
X99015753Y-61032171D01*
X99015753Y-61032171D02*
X99066721Y-60990503D01*
X99066721Y-60990503D02*
X99099749Y-60969912D01*
X99099749Y-60969912D02*
X99104142Y-60969000D01*
X99104142Y-60969000D02*
X99134247Y-60983827D01*
X99134247Y-60983827D02*
X99182767Y-61022497D01*
X99182767Y-61022497D02*
X99241058Y-61076301D01*
X99241058Y-61076301D02*
X99300476Y-61136528D01*
X99300476Y-61136528D02*
X99352376Y-61194466D01*
X99352376Y-61194466D02*
X99388114Y-61241405D01*
X99388114Y-61241405D02*
X99399333Y-61266471D01*
X99399333Y-61266471D02*
X99385060Y-61294401D01*
X99385060Y-61294401D02*
X99346746Y-61343178D01*
X99346746Y-61343178D02*
X99291146Y-61404602D01*
X99291146Y-61404602D02*
X99255927Y-61440527D01*
X99255927Y-61440527D02*
X99191874Y-61502010D01*
X99191874Y-61502010D02*
X99137755Y-61550134D01*
X99137755Y-61550134D02*
X99101230Y-61578273D01*
X99101230Y-61578273D02*
X99091317Y-61582834D01*
X99091317Y-61582834D02*
X99067241Y-61568427D01*
X99067241Y-61568427D02*
X99023097Y-61530685D01*
X99023097Y-61530685D02*
X98967043Y-61477823D01*
X98967043Y-61477823D02*
X98907237Y-61418056D01*
X98907237Y-61418056D02*
X98851836Y-61359601D01*
X98851836Y-61359601D02*
X98808996Y-61310674D01*
X98808996Y-61310674D02*
X98786876Y-61279490D01*
X98786876Y-61279490D02*
X98785500Y-61274818D01*
X98785500Y-61274818D02*
X98800303Y-61248558D01*
X98800303Y-61248558D02*
X98800303Y-61248558D01*
G36*
X99134247Y-60983827D02*
G01*
X99182767Y-61022497D01*
X99241058Y-61076301D01*
X99300476Y-61136528D01*
X99352376Y-61194466D01*
X99388114Y-61241405D01*
X99399333Y-61266471D01*
X99385060Y-61294401D01*
X99346746Y-61343178D01*
X99291146Y-61404602D01*
X99255927Y-61440527D01*
X99191874Y-61502010D01*
X99137755Y-61550134D01*
X99101230Y-61578273D01*
X99091317Y-61582834D01*
X99067241Y-61568427D01*
X99023097Y-61530685D01*
X98967043Y-61477823D01*
X98907237Y-61418056D01*
X98851836Y-61359601D01*
X98808996Y-61310674D01*
X98786876Y-61279490D01*
X98785500Y-61274818D01*
X98800303Y-61248558D01*
X98839121Y-61203110D01*
X98893563Y-61146528D01*
X98955237Y-61086864D01*
X99015753Y-61032171D01*
X99066721Y-60990503D01*
X99099749Y-60969912D01*
X99104142Y-60969000D01*
X99134247Y-60983827D01*
G37*
X99134247Y-60983827D02*
X99182767Y-61022497D01*
X99241058Y-61076301D01*
X99300476Y-61136528D01*
X99352376Y-61194466D01*
X99388114Y-61241405D01*
X99399333Y-61266471D01*
X99385060Y-61294401D01*
X99346746Y-61343178D01*
X99291146Y-61404602D01*
X99255927Y-61440527D01*
X99191874Y-61502010D01*
X99137755Y-61550134D01*
X99101230Y-61578273D01*
X99091317Y-61582834D01*
X99067241Y-61568427D01*
X99023097Y-61530685D01*
X98967043Y-61477823D01*
X98907237Y-61418056D01*
X98851836Y-61359601D01*
X98808996Y-61310674D01*
X98786876Y-61279490D01*
X98785500Y-61274818D01*
X98800303Y-61248558D01*
X98839121Y-61203110D01*
X98893563Y-61146528D01*
X98955237Y-61086864D01*
X99015753Y-61032171D01*
X99066721Y-60990503D01*
X99099749Y-60969912D01*
X99104142Y-60969000D01*
X99134247Y-60983827D01*
X99504179Y-49126612D02*
X99505155Y-49078423D01*
X99505155Y-49078423D02*
X99505166Y-49073423D01*
X99505166Y-49073423D02*
X99507031Y-48990784D01*
X99507031Y-48990784D02*
X99514847Y-48937440D01*
X99514847Y-48937440D02*
X99531944Y-48900436D01*
X99531944Y-48900436D02*
X99557121Y-48871288D01*
X99557121Y-48871288D02*
X99608456Y-48835213D01*
X99608456Y-48835213D02*
X99661218Y-48819367D01*
X99661218Y-48819367D02*
X99663179Y-48819334D01*
X99663179Y-48819334D02*
X99691997Y-48827329D01*
X99691997Y-48827329D02*
X99756642Y-48850438D01*
X99756642Y-48850438D02*
X99853927Y-48887346D01*
X99853927Y-48887346D02*
X99980663Y-48936737D01*
X99980663Y-48936737D02*
X100133662Y-48997296D01*
X100133662Y-48997296D02*
X100309736Y-49067708D01*
X100309736Y-49067708D02*
X100505697Y-49146659D01*
X100505697Y-49146659D02*
X100718357Y-49232832D01*
X100718357Y-49232832D02*
X100944528Y-49324913D01*
X100944528Y-49324913D02*
X101181021Y-49421586D01*
X101181021Y-49421586D02*
X101424650Y-49521537D01*
X101424650Y-49521537D02*
X101672225Y-49623450D01*
X101672225Y-49623450D02*
X101920559Y-49726009D01*
X101920559Y-49726009D02*
X102166463Y-49827901D01*
X102166463Y-49827901D02*
X102406750Y-49927809D01*
X102406750Y-49927809D02*
X102638232Y-50024419D01*
X102638232Y-50024419D02*
X102857719Y-50116415D01*
X102857719Y-50116415D02*
X103062025Y-50202483D01*
X103062025Y-50202483D02*
X103247962Y-50281306D01*
X103247962Y-50281306D02*
X103412340Y-50351570D01*
X103412340Y-50351570D02*
X103551972Y-50411960D01*
X103551972Y-50411960D02*
X103663671Y-50461161D01*
X103663671Y-50461161D02*
X103744248Y-50497857D01*
X103744248Y-50497857D02*
X103790514Y-50520733D01*
X103790514Y-50520733D02*
X103797351Y-50524787D01*
X103797351Y-50524787D02*
X103964400Y-50657406D01*
X103964400Y-50657406D02*
X104098950Y-50810896D01*
X104098950Y-50810896D02*
X104199347Y-50980871D01*
X104199347Y-50980871D02*
X104263937Y-51162947D01*
X104263937Y-51162947D02*
X104291067Y-51352738D01*
X104291067Y-51352738D02*
X104279082Y-51545860D01*
X104279082Y-51545860D02*
X104240365Y-51699383D01*
X104240365Y-51699383D02*
X104195049Y-51817435D01*
X104195049Y-51817435D02*
X104150611Y-51899478D01*
X104150611Y-51899478D02*
X104103107Y-51951560D01*
X104103107Y-51951560D02*
X104060184Y-51975742D01*
X104060184Y-51975742D02*
X103980809Y-51985077D01*
X103980809Y-51985077D02*
X103891532Y-51961420D01*
X103891532Y-51961420D02*
X103803784Y-51908344D01*
X103803784Y-51908344D02*
X103780650Y-51888330D01*
X103780650Y-51888330D02*
X103737728Y-51842522D01*
X103737728Y-51842522D02*
X103720988Y-51800579D01*
X103720988Y-51800579D02*
X103722483Y-51741323D01*
X103722483Y-51741323D02*
X103723159Y-51735135D01*
X103723159Y-51735135D02*
X103737814Y-51656483D01*
X103737814Y-51656483D02*
X103761873Y-51571451D01*
X103761873Y-51571451D02*
X103769595Y-51549834D01*
X103769595Y-51549834D02*
X103797538Y-51420824D01*
X103797538Y-51420824D02*
X103784784Y-51292211D01*
X103784784Y-51292211D02*
X103732825Y-51167895D01*
X103732825Y-51167895D02*
X103643151Y-51051778D01*
X103643151Y-51051778D02*
X103547666Y-50969176D01*
X103547666Y-50969176D02*
X103485932Y-50929529D01*
X103485932Y-50929529D02*
X103400892Y-50882790D01*
X103400892Y-50882790D02*
X103300358Y-50832404D01*
X103300358Y-50832404D02*
X103192140Y-50781818D01*
X103192140Y-50781818D02*
X103084046Y-50734476D01*
X103084046Y-50734476D02*
X102983887Y-50693826D01*
X102983887Y-50693826D02*
X102899472Y-50663311D01*
X102899472Y-50663311D02*
X102838613Y-50646379D01*
X102838613Y-50646379D02*
X102812505Y-50644821D01*
X102812505Y-50644821D02*
X102787572Y-50654465D01*
X102787572Y-50654465D02*
X102726672Y-50679313D01*
X102726672Y-50679313D02*
X102632836Y-50718099D01*
X102632836Y-50718099D02*
X102509096Y-50769554D01*
X102509096Y-50769554D02*
X102358481Y-50832411D01*
X102358481Y-50832411D02*
X102184024Y-50905405D01*
X102184024Y-50905405D02*
X101988754Y-50987267D01*
X101988754Y-50987267D02*
X101775703Y-51076730D01*
X101775703Y-51076730D02*
X101547902Y-51172527D01*
X101547902Y-51172527D02*
X101308381Y-51273391D01*
X101308381Y-51273391D02*
X101233891Y-51304788D01*
X101233891Y-51304788D02*
X100944568Y-51426746D01*
X100944568Y-51426746D02*
X100691696Y-51533174D01*
X100691696Y-51533174D02*
X100472696Y-51624939D01*
X100472696Y-51624939D02*
X100284990Y-51702906D01*
X100284990Y-51702906D02*
X100125999Y-51767943D01*
X100125999Y-51767943D02*
X99993146Y-51820916D01*
X99993146Y-51820916D02*
X99883851Y-51862693D01*
X99883851Y-51862693D02*
X99795537Y-51894141D01*
X99795537Y-51894141D02*
X99725626Y-51916126D01*
X99725626Y-51916126D02*
X99671539Y-51929515D01*
X99671539Y-51929515D02*
X99630698Y-51935175D01*
X99630698Y-51935175D02*
X99600525Y-51933973D01*
X99600525Y-51933973D02*
X99578442Y-51926776D01*
X99578442Y-51926776D02*
X99561869Y-51914451D01*
X99561869Y-51914451D02*
X99548230Y-51897864D01*
X99548230Y-51897864D02*
X99534945Y-51877882D01*
X99534945Y-51877882D02*
X99533945Y-51876354D01*
X99533945Y-51876354D02*
X99513803Y-51819827D01*
X99513803Y-51819827D02*
X99504743Y-51738580D01*
X99504743Y-51738580D02*
X99505974Y-51646310D01*
X99505974Y-51646310D02*
X99516704Y-51556713D01*
X99516704Y-51556713D02*
X99536141Y-51483485D01*
X99536141Y-51483485D02*
X99558921Y-51444339D01*
X99558921Y-51444339D02*
X99584724Y-51429890D01*
X99584724Y-51429890D02*
X99645703Y-51401366D01*
X99645703Y-51401366D02*
X99737751Y-51360466D01*
X99737751Y-51360466D02*
X99856759Y-51308890D01*
X99856759Y-51308890D02*
X99998619Y-51248335D01*
X99998619Y-51248335D02*
X100159223Y-51180501D01*
X100159223Y-51180501D02*
X100334461Y-51107086D01*
X100334461Y-51107086D02*
X100520227Y-51029789D01*
X100520227Y-51029789D02*
X100712411Y-50950310D01*
X100712411Y-50950310D02*
X100906906Y-50870347D01*
X100906906Y-50870347D02*
X101099603Y-50791598D01*
X101099603Y-50791598D02*
X101286394Y-50715763D01*
X101286394Y-50715763D02*
X101463170Y-50644541D01*
X101463170Y-50644541D02*
X101625824Y-50579630D01*
X101625824Y-50579630D02*
X101770247Y-50522729D01*
X101770247Y-50522729D02*
X101892330Y-50475538D01*
X101892330Y-50475538D02*
X101987966Y-50439754D01*
X101987966Y-50439754D02*
X101990591Y-50438800D01*
X101990591Y-50438800D02*
X102179432Y-50370182D01*
X102179432Y-50370182D02*
X102096424Y-50343406D01*
X102096424Y-50343406D02*
X102062304Y-50330953D01*
X102062304Y-50330953D02*
X101992504Y-50304266D01*
X101992504Y-50304266D02*
X101890671Y-50264777D01*
X101890671Y-50264777D02*
X101760452Y-50213917D01*
X101760452Y-50213917D02*
X101605496Y-50153117D01*
X101605496Y-50153117D02*
X101429450Y-50083810D01*
X101429450Y-50083810D02*
X101235962Y-50007426D01*
X101235962Y-50007426D02*
X101028679Y-49925398D01*
X101028679Y-49925398D02*
X100811249Y-49839156D01*
X100811249Y-49839156D02*
X100790791Y-49831031D01*
X100790791Y-49831031D02*
X100534356Y-49729347D01*
X100534356Y-49729347D02*
X100314316Y-49642097D01*
X100314316Y-49642097D02*
X100127901Y-49567647D01*
X100127901Y-49567647D02*
X99972340Y-49504366D01*
X99972340Y-49504366D02*
X99844863Y-49450621D01*
X99844863Y-49450621D02*
X99742698Y-49404778D01*
X99742698Y-49404778D02*
X99663077Y-49365205D01*
X99663077Y-49365205D02*
X99603227Y-49330270D01*
X99603227Y-49330270D02*
X99560378Y-49298339D01*
X99560378Y-49298339D02*
X99531759Y-49267781D01*
X99531759Y-49267781D02*
X99514601Y-49236961D01*
X99514601Y-49236961D02*
X99506132Y-49204249D01*
X99506132Y-49204249D02*
X99503582Y-49168010D01*
X99503582Y-49168010D02*
X99504179Y-49126612D01*
X99504179Y-49126612D02*
X99504179Y-49126612D01*
G36*
X99691997Y-48827329D02*
G01*
X99756642Y-48850438D01*
X99853927Y-48887346D01*
X99980663Y-48936737D01*
X100133662Y-48997296D01*
X100309736Y-49067708D01*
X100505697Y-49146659D01*
X100718357Y-49232832D01*
X100944528Y-49324913D01*
X101181021Y-49421586D01*
X101424650Y-49521537D01*
X101672225Y-49623450D01*
X101920559Y-49726009D01*
X102166463Y-49827901D01*
X102406750Y-49927809D01*
X102638232Y-50024419D01*
X102857719Y-50116415D01*
X103062025Y-50202483D01*
X103247962Y-50281306D01*
X103412340Y-50351570D01*
X103551972Y-50411960D01*
X103663671Y-50461161D01*
X103744248Y-50497857D01*
X103790514Y-50520733D01*
X103797351Y-50524787D01*
X103964400Y-50657406D01*
X104098950Y-50810896D01*
X104199347Y-50980871D01*
X104263937Y-51162947D01*
X104291067Y-51352738D01*
X104279082Y-51545860D01*
X104240365Y-51699383D01*
X104195049Y-51817435D01*
X104150611Y-51899478D01*
X104103107Y-51951560D01*
X104060184Y-51975742D01*
X103980809Y-51985077D01*
X103891532Y-51961420D01*
X103803784Y-51908344D01*
X103780650Y-51888330D01*
X103737728Y-51842522D01*
X103720988Y-51800579D01*
X103722483Y-51741323D01*
X103723159Y-51735135D01*
X103737814Y-51656483D01*
X103761873Y-51571451D01*
X103769595Y-51549834D01*
X103797538Y-51420824D01*
X103784784Y-51292211D01*
X103732825Y-51167895D01*
X103643151Y-51051778D01*
X103547666Y-50969176D01*
X103485932Y-50929529D01*
X103400892Y-50882790D01*
X103300358Y-50832404D01*
X103192140Y-50781818D01*
X103084046Y-50734476D01*
X102983887Y-50693826D01*
X102899472Y-50663311D01*
X102838613Y-50646379D01*
X102812505Y-50644821D01*
X102787572Y-50654465D01*
X102726672Y-50679313D01*
X102632836Y-50718099D01*
X102509096Y-50769554D01*
X102358481Y-50832411D01*
X102184024Y-50905405D01*
X101988754Y-50987267D01*
X101775703Y-51076730D01*
X101547902Y-51172527D01*
X101308381Y-51273391D01*
X101233891Y-51304788D01*
X100944568Y-51426746D01*
X100691696Y-51533174D01*
X100472696Y-51624939D01*
X100284990Y-51702906D01*
X100125999Y-51767943D01*
X99993146Y-51820916D01*
X99883851Y-51862693D01*
X99795537Y-51894141D01*
X99725626Y-51916126D01*
X99671539Y-51929515D01*
X99630698Y-51935175D01*
X99600525Y-51933973D01*
X99578442Y-51926776D01*
X99561869Y-51914451D01*
X99548230Y-51897864D01*
X99534945Y-51877882D01*
X99533945Y-51876354D01*
X99513803Y-51819827D01*
X99504743Y-51738580D01*
X99505974Y-51646310D01*
X99516704Y-51556713D01*
X99536141Y-51483485D01*
X99558921Y-51444339D01*
X99584724Y-51429890D01*
X99645703Y-51401366D01*
X99737751Y-51360466D01*
X99856759Y-51308890D01*
X99998619Y-51248335D01*
X100159223Y-51180501D01*
X100334461Y-51107086D01*
X100520227Y-51029789D01*
X100712411Y-50950310D01*
X100906906Y-50870347D01*
X101099603Y-50791598D01*
X101286394Y-50715763D01*
X101463170Y-50644541D01*
X101625824Y-50579630D01*
X101770247Y-50522729D01*
X101892330Y-50475538D01*
X101987966Y-50439754D01*
X101990591Y-50438800D01*
X102179432Y-50370182D01*
X102096424Y-50343406D01*
X102062304Y-50330953D01*
X101992504Y-50304266D01*
X101890671Y-50264777D01*
X101760452Y-50213917D01*
X101605496Y-50153117D01*
X101429450Y-50083810D01*
X101235962Y-50007426D01*
X101028679Y-49925398D01*
X100811249Y-49839156D01*
X100790791Y-49831031D01*
X100534356Y-49729347D01*
X100314316Y-49642097D01*
X100127901Y-49567647D01*
X99972340Y-49504366D01*
X99844863Y-49450621D01*
X99742698Y-49404778D01*
X99663077Y-49365205D01*
X99603227Y-49330270D01*
X99560378Y-49298339D01*
X99531759Y-49267781D01*
X99514601Y-49236961D01*
X99506132Y-49204249D01*
X99503582Y-49168010D01*
X99504179Y-49126612D01*
X99505155Y-49078423D01*
X99505166Y-49073423D01*
X99507031Y-48990784D01*
X99514847Y-48937440D01*
X99531944Y-48900436D01*
X99557121Y-48871288D01*
X99608456Y-48835213D01*
X99661218Y-48819367D01*
X99663179Y-48819334D01*
X99691997Y-48827329D01*
G37*
X99691997Y-48827329D02*
X99756642Y-48850438D01*
X99853927Y-48887346D01*
X99980663Y-48936737D01*
X100133662Y-48997296D01*
X100309736Y-49067708D01*
X100505697Y-49146659D01*
X100718357Y-49232832D01*
X100944528Y-49324913D01*
X101181021Y-49421586D01*
X101424650Y-49521537D01*
X101672225Y-49623450D01*
X101920559Y-49726009D01*
X102166463Y-49827901D01*
X102406750Y-49927809D01*
X102638232Y-50024419D01*
X102857719Y-50116415D01*
X103062025Y-50202483D01*
X103247962Y-50281306D01*
X103412340Y-50351570D01*
X103551972Y-50411960D01*
X103663671Y-50461161D01*
X103744248Y-50497857D01*
X103790514Y-50520733D01*
X103797351Y-50524787D01*
X103964400Y-50657406D01*
X104098950Y-50810896D01*
X104199347Y-50980871D01*
X104263937Y-51162947D01*
X104291067Y-51352738D01*
X104279082Y-51545860D01*
X104240365Y-51699383D01*
X104195049Y-51817435D01*
X104150611Y-51899478D01*
X104103107Y-51951560D01*
X104060184Y-51975742D01*
X103980809Y-51985077D01*
X103891532Y-51961420D01*
X103803784Y-51908344D01*
X103780650Y-51888330D01*
X103737728Y-51842522D01*
X103720988Y-51800579D01*
X103722483Y-51741323D01*
X103723159Y-51735135D01*
X103737814Y-51656483D01*
X103761873Y-51571451D01*
X103769595Y-51549834D01*
X103797538Y-51420824D01*
X103784784Y-51292211D01*
X103732825Y-51167895D01*
X103643151Y-51051778D01*
X103547666Y-50969176D01*
X103485932Y-50929529D01*
X103400892Y-50882790D01*
X103300358Y-50832404D01*
X103192140Y-50781818D01*
X103084046Y-50734476D01*
X102983887Y-50693826D01*
X102899472Y-50663311D01*
X102838613Y-50646379D01*
X102812505Y-50644821D01*
X102787572Y-50654465D01*
X102726672Y-50679313D01*
X102632836Y-50718099D01*
X102509096Y-50769554D01*
X102358481Y-50832411D01*
X102184024Y-50905405D01*
X101988754Y-50987267D01*
X101775703Y-51076730D01*
X101547902Y-51172527D01*
X101308381Y-51273391D01*
X101233891Y-51304788D01*
X100944568Y-51426746D01*
X100691696Y-51533174D01*
X100472696Y-51624939D01*
X100284990Y-51702906D01*
X100125999Y-51767943D01*
X99993146Y-51820916D01*
X99883851Y-51862693D01*
X99795537Y-51894141D01*
X99725626Y-51916126D01*
X99671539Y-51929515D01*
X99630698Y-51935175D01*
X99600525Y-51933973D01*
X99578442Y-51926776D01*
X99561869Y-51914451D01*
X99548230Y-51897864D01*
X99534945Y-51877882D01*
X99533945Y-51876354D01*
X99513803Y-51819827D01*
X99504743Y-51738580D01*
X99505974Y-51646310D01*
X99516704Y-51556713D01*
X99536141Y-51483485D01*
X99558921Y-51444339D01*
X99584724Y-51429890D01*
X99645703Y-51401366D01*
X99737751Y-51360466D01*
X99856759Y-51308890D01*
X99998619Y-51248335D01*
X100159223Y-51180501D01*
X100334461Y-51107086D01*
X100520227Y-51029789D01*
X100712411Y-50950310D01*
X100906906Y-50870347D01*
X101099603Y-50791598D01*
X101286394Y-50715763D01*
X101463170Y-50644541D01*
X101625824Y-50579630D01*
X101770247Y-50522729D01*
X101892330Y-50475538D01*
X101987966Y-50439754D01*
X101990591Y-50438800D01*
X102179432Y-50370182D01*
X102096424Y-50343406D01*
X102062304Y-50330953D01*
X101992504Y-50304266D01*
X101890671Y-50264777D01*
X101760452Y-50213917D01*
X101605496Y-50153117D01*
X101429450Y-50083810D01*
X101235962Y-50007426D01*
X101028679Y-49925398D01*
X100811249Y-49839156D01*
X100790791Y-49831031D01*
X100534356Y-49729347D01*
X100314316Y-49642097D01*
X100127901Y-49567647D01*
X99972340Y-49504366D01*
X99844863Y-49450621D01*
X99742698Y-49404778D01*
X99663077Y-49365205D01*
X99603227Y-49330270D01*
X99560378Y-49298339D01*
X99531759Y-49267781D01*
X99514601Y-49236961D01*
X99506132Y-49204249D01*
X99503582Y-49168010D01*
X99504179Y-49126612D01*
X99505155Y-49078423D01*
X99505166Y-49073423D01*
X99507031Y-48990784D01*
X99514847Y-48937440D01*
X99531944Y-48900436D01*
X99557121Y-48871288D01*
X99608456Y-48835213D01*
X99661218Y-48819367D01*
X99663179Y-48819334D01*
X99691997Y-48827329D01*
X99507723Y-54265176D02*
X99518886Y-54215703D01*
X99518886Y-54215703D02*
X99543898Y-54176389D01*
X99543898Y-54176389D02*
X99567038Y-54151706D01*
X99567038Y-54151706D02*
X99628910Y-54089834D01*
X99628910Y-54089834D02*
X102783639Y-54089834D01*
X102783639Y-54089834D02*
X102842191Y-54140199D01*
X102842191Y-54140199D02*
X102874167Y-54172516D01*
X102874167Y-54172516D02*
X102892834Y-54209289D01*
X102892834Y-54209289D02*
X102902569Y-54263696D01*
X102902569Y-54263696D02*
X102907192Y-54335990D01*
X102907192Y-54335990D02*
X102906081Y-54444274D01*
X102906081Y-54444274D02*
X102890961Y-54518240D01*
X102890961Y-54518240D02*
X102882070Y-54537380D01*
X102882070Y-54537380D02*
X102839356Y-54584335D01*
X102839356Y-54584335D02*
X102783341Y-54616755D01*
X102783341Y-54616755D02*
X102751300Y-54621859D01*
X102751300Y-54621859D02*
X102685655Y-54626298D01*
X102685655Y-54626298D02*
X102585313Y-54630091D01*
X102585313Y-54630091D02*
X102449177Y-54633252D01*
X102449177Y-54633252D02*
X102276152Y-54635800D01*
X102276152Y-54635800D02*
X102065142Y-54637748D01*
X102065142Y-54637748D02*
X101815051Y-54639115D01*
X101815051Y-54639115D02*
X101524785Y-54639916D01*
X101524785Y-54639916D02*
X101205244Y-54640167D01*
X101205244Y-54640167D02*
X100903776Y-54640144D01*
X100903776Y-54640144D02*
X100641785Y-54639941D01*
X100641785Y-54639941D02*
X100416416Y-54639361D01*
X100416416Y-54639361D02*
X100224813Y-54638205D01*
X100224813Y-54638205D02*
X100064119Y-54636273D01*
X100064119Y-54636273D02*
X99931480Y-54633368D01*
X99931480Y-54633368D02*
X99824039Y-54629291D01*
X99824039Y-54629291D02*
X99738941Y-54623843D01*
X99738941Y-54623843D02*
X99673329Y-54616826D01*
X99673329Y-54616826D02*
X99624349Y-54608040D01*
X99624349Y-54608040D02*
X99589143Y-54597288D01*
X99589143Y-54597288D02*
X99564857Y-54584371D01*
X99564857Y-54584371D02*
X99548634Y-54569090D01*
X99548634Y-54569090D02*
X99537618Y-54551247D01*
X99537618Y-54551247D02*
X99528954Y-54530642D01*
X99528954Y-54530642D02*
X99526198Y-54523396D01*
X99526198Y-54523396D02*
X99514618Y-54471767D01*
X99514618Y-54471767D02*
X99506979Y-54397127D01*
X99506979Y-54397127D02*
X99505166Y-54340828D01*
X99505166Y-54340828D02*
X99507723Y-54265176D01*
X99507723Y-54265176D02*
X99507723Y-54265176D01*
G36*
X102842191Y-54140199D02*
G01*
X102874167Y-54172516D01*
X102892834Y-54209289D01*
X102902569Y-54263696D01*
X102907192Y-54335990D01*
X102906081Y-54444274D01*
X102890961Y-54518240D01*
X102882070Y-54537380D01*
X102839356Y-54584335D01*
X102783341Y-54616755D01*
X102751300Y-54621859D01*
X102685655Y-54626298D01*
X102585313Y-54630091D01*
X102449177Y-54633252D01*
X102276152Y-54635800D01*
X102065142Y-54637748D01*
X101815051Y-54639115D01*
X101524785Y-54639916D01*
X101205244Y-54640167D01*
X100903776Y-54640144D01*
X100641785Y-54639941D01*
X100416416Y-54639361D01*
X100224813Y-54638205D01*
X100064119Y-54636273D01*
X99931480Y-54633368D01*
X99824039Y-54629291D01*
X99738941Y-54623843D01*
X99673329Y-54616826D01*
X99624349Y-54608040D01*
X99589143Y-54597288D01*
X99564857Y-54584371D01*
X99548634Y-54569090D01*
X99537618Y-54551247D01*
X99528954Y-54530642D01*
X99526198Y-54523396D01*
X99514618Y-54471767D01*
X99506979Y-54397127D01*
X99505166Y-54340828D01*
X99507723Y-54265176D01*
X99518886Y-54215703D01*
X99543898Y-54176389D01*
X99567038Y-54151706D01*
X99628910Y-54089834D01*
X102783639Y-54089834D01*
X102842191Y-54140199D01*
G37*
X102842191Y-54140199D02*
X102874167Y-54172516D01*
X102892834Y-54209289D01*
X102902569Y-54263696D01*
X102907192Y-54335990D01*
X102906081Y-54444274D01*
X102890961Y-54518240D01*
X102882070Y-54537380D01*
X102839356Y-54584335D01*
X102783341Y-54616755D01*
X102751300Y-54621859D01*
X102685655Y-54626298D01*
X102585313Y-54630091D01*
X102449177Y-54633252D01*
X102276152Y-54635800D01*
X102065142Y-54637748D01*
X101815051Y-54639115D01*
X101524785Y-54639916D01*
X101205244Y-54640167D01*
X100903776Y-54640144D01*
X100641785Y-54639941D01*
X100416416Y-54639361D01*
X100224813Y-54638205D01*
X100064119Y-54636273D01*
X99931480Y-54633368D01*
X99824039Y-54629291D01*
X99738941Y-54623843D01*
X99673329Y-54616826D01*
X99624349Y-54608040D01*
X99589143Y-54597288D01*
X99564857Y-54584371D01*
X99548634Y-54569090D01*
X99537618Y-54551247D01*
X99528954Y-54530642D01*
X99526198Y-54523396D01*
X99514618Y-54471767D01*
X99506979Y-54397127D01*
X99505166Y-54340828D01*
X99507723Y-54265176D01*
X99518886Y-54215703D01*
X99543898Y-54176389D01*
X99567038Y-54151706D01*
X99628910Y-54089834D01*
X102783639Y-54089834D01*
X102842191Y-54140199D01*
X98194699Y-57445307D02*
X98202331Y-57388296D01*
X98202331Y-57388296D02*
X98218776Y-57347524D01*
X98218776Y-57347524D02*
X98243912Y-57313639D01*
X98243912Y-57313639D02*
X98294991Y-57254250D01*
X98294991Y-57254250D02*
X100349404Y-57248549D01*
X100349404Y-57248549D02*
X102403816Y-57242848D01*
X102403816Y-57242848D02*
X102409699Y-56225412D01*
X102409699Y-56225412D02*
X102415583Y-55207977D01*
X102415583Y-55207977D02*
X102474971Y-55156905D01*
X102474971Y-55156905D02*
X102548828Y-55117902D01*
X102548828Y-55117902D02*
X102641805Y-55102160D01*
X102641805Y-55102160D02*
X102737653Y-55109680D01*
X102737653Y-55109680D02*
X102820123Y-55140462D01*
X102820123Y-55140462D02*
X102843028Y-55156909D01*
X102843028Y-55156909D02*
X102902416Y-55207983D01*
X102902416Y-55207983D02*
X102908209Y-56438619D01*
X102908209Y-56438619D02*
X102914001Y-57669255D01*
X102914001Y-57669255D02*
X102789256Y-57794000D01*
X102789256Y-57794000D02*
X98296742Y-57794000D01*
X98296742Y-57794000D02*
X98244787Y-57742046D01*
X98244787Y-57742046D02*
X98217565Y-57709900D01*
X98217565Y-57709900D02*
X98201868Y-57673221D01*
X98201868Y-57673221D02*
X98194643Y-57619637D01*
X98194643Y-57619637D02*
X98192836Y-57536777D01*
X98192836Y-57536777D02*
X98192833Y-57531560D01*
X98192833Y-57531560D02*
X98194699Y-57445307D01*
X98194699Y-57445307D02*
X98194699Y-57445307D01*
G36*
X102737653Y-55109680D02*
G01*
X102820123Y-55140462D01*
X102843028Y-55156909D01*
X102902416Y-55207983D01*
X102908209Y-56438619D01*
X102914001Y-57669255D01*
X102789256Y-57794000D01*
X98296742Y-57794000D01*
X98244787Y-57742046D01*
X98217565Y-57709900D01*
X98201868Y-57673221D01*
X98194643Y-57619637D01*
X98192836Y-57536777D01*
X98192833Y-57531560D01*
X98194699Y-57445307D01*
X98202331Y-57388296D01*
X98218776Y-57347524D01*
X98243912Y-57313639D01*
X98294991Y-57254250D01*
X100349404Y-57248549D01*
X102403816Y-57242848D01*
X102409699Y-56225412D01*
X102415583Y-55207977D01*
X102474971Y-55156905D01*
X102548828Y-55117902D01*
X102641805Y-55102160D01*
X102737653Y-55109680D01*
G37*
X102737653Y-55109680D02*
X102820123Y-55140462D01*
X102843028Y-55156909D01*
X102902416Y-55207983D01*
X102908209Y-56438619D01*
X102914001Y-57669255D01*
X102789256Y-57794000D01*
X98296742Y-57794000D01*
X98244787Y-57742046D01*
X98217565Y-57709900D01*
X98201868Y-57673221D01*
X98194643Y-57619637D01*
X98192836Y-57536777D01*
X98192833Y-57531560D01*
X98194699Y-57445307D01*
X98202331Y-57388296D01*
X98218776Y-57347524D01*
X98243912Y-57313639D01*
X98294991Y-57254250D01*
X100349404Y-57248549D01*
X102403816Y-57242848D01*
X102409699Y-56225412D01*
X102415583Y-55207977D01*
X102474971Y-55156905D01*
X102548828Y-55117902D01*
X102641805Y-55102160D01*
X102737653Y-55109680D01*
X98207637Y-60655891D02*
X98246455Y-60610443D01*
X98246455Y-60610443D02*
X98300896Y-60553861D01*
X98300896Y-60553861D02*
X98362570Y-60494197D01*
X98362570Y-60494197D02*
X98423086Y-60439504D01*
X98423086Y-60439504D02*
X98474054Y-60397836D01*
X98474054Y-60397836D02*
X98507082Y-60377245D01*
X98507082Y-60377245D02*
X98511476Y-60376334D01*
X98511476Y-60376334D02*
X98541580Y-60391160D01*
X98541580Y-60391160D02*
X98590100Y-60429831D01*
X98590100Y-60429831D02*
X98648391Y-60483635D01*
X98648391Y-60483635D02*
X98707809Y-60543862D01*
X98707809Y-60543862D02*
X98759709Y-60601800D01*
X98759709Y-60601800D02*
X98795448Y-60648738D01*
X98795448Y-60648738D02*
X98806666Y-60673804D01*
X98806666Y-60673804D02*
X98792394Y-60701734D01*
X98792394Y-60701734D02*
X98754079Y-60750511D01*
X98754079Y-60750511D02*
X98698479Y-60811935D01*
X98698479Y-60811935D02*
X98663260Y-60847860D01*
X98663260Y-60847860D02*
X98599207Y-60909344D01*
X98599207Y-60909344D02*
X98545088Y-60957467D01*
X98545088Y-60957467D02*
X98508564Y-60985607D01*
X98508564Y-60985607D02*
X98498651Y-60990167D01*
X98498651Y-60990167D02*
X98474574Y-60975761D01*
X98474574Y-60975761D02*
X98430430Y-60938018D01*
X98430430Y-60938018D02*
X98374377Y-60885156D01*
X98374377Y-60885156D02*
X98314571Y-60825389D01*
X98314571Y-60825389D02*
X98259169Y-60766934D01*
X98259169Y-60766934D02*
X98216330Y-60718007D01*
X98216330Y-60718007D02*
X98194209Y-60686823D01*
X98194209Y-60686823D02*
X98192833Y-60682152D01*
X98192833Y-60682152D02*
X98207637Y-60655891D01*
X98207637Y-60655891D02*
X98207637Y-60655891D01*
G36*
X98541580Y-60391160D02*
G01*
X98590100Y-60429831D01*
X98648391Y-60483635D01*
X98707809Y-60543862D01*
X98759709Y-60601800D01*
X98795448Y-60648738D01*
X98806666Y-60673804D01*
X98792394Y-60701734D01*
X98754079Y-60750511D01*
X98698479Y-60811935D01*
X98663260Y-60847860D01*
X98599207Y-60909344D01*
X98545088Y-60957467D01*
X98508564Y-60985607D01*
X98498651Y-60990167D01*
X98474574Y-60975761D01*
X98430430Y-60938018D01*
X98374377Y-60885156D01*
X98314571Y-60825389D01*
X98259169Y-60766934D01*
X98216330Y-60718007D01*
X98194209Y-60686823D01*
X98192833Y-60682152D01*
X98207637Y-60655891D01*
X98246455Y-60610443D01*
X98300896Y-60553861D01*
X98362570Y-60494197D01*
X98423086Y-60439504D01*
X98474054Y-60397836D01*
X98507082Y-60377245D01*
X98511476Y-60376334D01*
X98541580Y-60391160D01*
G37*
X98541580Y-60391160D02*
X98590100Y-60429831D01*
X98648391Y-60483635D01*
X98707809Y-60543862D01*
X98759709Y-60601800D01*
X98795448Y-60648738D01*
X98806666Y-60673804D01*
X98792394Y-60701734D01*
X98754079Y-60750511D01*
X98698479Y-60811935D01*
X98663260Y-60847860D01*
X98599207Y-60909344D01*
X98545088Y-60957467D01*
X98508564Y-60985607D01*
X98498651Y-60990167D01*
X98474574Y-60975761D01*
X98430430Y-60938018D01*
X98374377Y-60885156D01*
X98314571Y-60825389D01*
X98259169Y-60766934D01*
X98216330Y-60718007D01*
X98194209Y-60686823D01*
X98192833Y-60682152D01*
X98207637Y-60655891D01*
X98246455Y-60610443D01*
X98300896Y-60553861D01*
X98362570Y-60494197D01*
X98423086Y-60439504D01*
X98474054Y-60397836D01*
X98507082Y-60377245D01*
X98511476Y-60376334D01*
X98541580Y-60391160D01*
D17*
X175800000Y-50800000D02*
X175800000Y-53900000D01*
X179400000Y-50800000D02*
X175800000Y-50800000D01*
X175800000Y-53900000D02*
X179400000Y-53900000D01*
X179400000Y-53900000D02*
X179400000Y-50800000D01*
X98644040Y-128591154D02*
X100444040Y-131708846D01*
X103128718Y-130158846D02*
X101328718Y-127041154D01*
X101328718Y-127041154D02*
X98644040Y-128591154D01*
X100444040Y-131708846D02*
X103128718Y-130158846D01*
X122300000Y-53200000D02*
X118700000Y-53200000D01*
X122300000Y-56300000D02*
X122300000Y-53200000D01*
X118700000Y-56300000D02*
X122300000Y-56300000D01*
X118700000Y-53200000D02*
X118700000Y-56300000D01*
X175800000Y-111100000D02*
X179400000Y-111100000D01*
X175800000Y-108000000D02*
X175800000Y-111100000D01*
X179400000Y-108000000D02*
X175800000Y-108000000D01*
X179400000Y-111100000D02*
X179400000Y-108000000D01*
D12*
X88111000Y-61843000D02*
X88111000Y-59557000D01*
X89889000Y-61843000D02*
X88111000Y-61843000D01*
X88111000Y-59557000D02*
X89889000Y-59557000D01*
X89889000Y-59557000D02*
X89889000Y-61843000D01*
D17*
X150800000Y-126950000D02*
X147200000Y-126950000D01*
X147200000Y-130050000D02*
X150800000Y-130050000D01*
X147200000Y-126950000D02*
X147200000Y-130050000D01*
X150800000Y-130050000D02*
X150800000Y-126950000D01*
D12*
X87900000Y-59700000D02*
X85900000Y-59700000D01*
X87900000Y-61700000D02*
X87900000Y-59700000D01*
X85900000Y-61700000D02*
X87900000Y-61700000D01*
X85900000Y-59700000D02*
X85900000Y-61700000D01*
D17*
X103200000Y-103800000D02*
X103200000Y-100700000D01*
X99600000Y-103800000D02*
X103200000Y-103800000D01*
X99600000Y-100700000D02*
X99600000Y-103800000D01*
X103200000Y-100700000D02*
X99600000Y-100700000D01*
X122300000Y-72300000D02*
X118700000Y-72300000D01*
X118700000Y-72300000D02*
X118700000Y-75400000D01*
X122300000Y-75400000D02*
X122300000Y-72300000D01*
X118700000Y-75400000D02*
X122300000Y-75400000D01*
X160400000Y-90700000D02*
X160400000Y-87600000D01*
X160400000Y-87600000D02*
X156800000Y-87600000D01*
X156800000Y-90700000D02*
X160400000Y-90700000D01*
X156800000Y-87600000D02*
X156800000Y-90700000D01*
X217500000Y-76000000D02*
X213900000Y-76000000D01*
X213900000Y-76000000D02*
X213900000Y-79100000D01*
X213900000Y-79100000D02*
X217500000Y-79100000D01*
X217500000Y-79100000D02*
X217500000Y-76000000D01*
X213900000Y-60200000D02*
X217500000Y-60200000D01*
X217500000Y-60200000D02*
X217500000Y-57100000D01*
X213900000Y-57100000D02*
X213900000Y-60200000D01*
X217500000Y-57100000D02*
X213900000Y-57100000D01*
X194900000Y-93700000D02*
X194900000Y-96800000D01*
X198500000Y-96800000D02*
X198500000Y-93700000D01*
X194900000Y-96800000D02*
X198500000Y-96800000D01*
X198500000Y-93700000D02*
X194900000Y-93700000D01*
X160400000Y-106600000D02*
X156800000Y-106600000D01*
X156800000Y-109700000D02*
X160400000Y-109700000D01*
X156800000Y-106600000D02*
X156800000Y-109700000D01*
X160400000Y-109700000D02*
X160400000Y-106600000D01*
X194900000Y-74500000D02*
X194900000Y-77600000D01*
X194900000Y-77600000D02*
X198500000Y-77600000D01*
X198500000Y-74500000D02*
X194900000Y-74500000D01*
X198500000Y-77600000D02*
X198500000Y-74500000D01*
X156800000Y-49410000D02*
X156800000Y-52510000D01*
X160400000Y-49410000D02*
X156800000Y-49410000D01*
X160400000Y-52510000D02*
X160400000Y-49410000D01*
X156800000Y-52510000D02*
X160400000Y-52510000D01*
X217500000Y-95200000D02*
X213900000Y-95200000D01*
X213900000Y-95200000D02*
X213900000Y-98300000D01*
X213900000Y-98300000D02*
X217500000Y-98300000D01*
X217500000Y-98300000D02*
X217500000Y-95200000D01*
X141300000Y-111100000D02*
X141300000Y-108000000D01*
X137700000Y-108000000D02*
X137700000Y-111100000D01*
X137700000Y-111100000D02*
X141300000Y-111100000D01*
X141300000Y-108000000D02*
X137700000Y-108000000D01*
X137700000Y-92000000D02*
X141300000Y-92000000D01*
X137700000Y-88900000D02*
X137700000Y-92000000D01*
X141300000Y-88900000D02*
X137700000Y-88900000D01*
X141300000Y-92000000D02*
X141300000Y-88900000D01*
X198500000Y-55600000D02*
X194900000Y-55600000D01*
X194900000Y-58700000D02*
X198500000Y-58700000D01*
X194900000Y-55600000D02*
X194900000Y-58700000D01*
X198500000Y-58700000D02*
X198500000Y-55600000D01*
D12*
X115189000Y-60579000D02*
X113411000Y-60579000D01*
X115189000Y-58293000D02*
X115189000Y-60579000D01*
X113411000Y-58293000D02*
X115189000Y-58293000D01*
X113411000Y-60579000D02*
X113411000Y-58293000D01*
D17*
X137700000Y-73000000D02*
X141300000Y-73000000D01*
X141300000Y-73000000D02*
X141300000Y-69900000D01*
X137700000Y-69900000D02*
X137700000Y-73000000D01*
X141300000Y-69900000D02*
X137700000Y-69900000D01*
X169900000Y-126950000D02*
X166300000Y-126950000D01*
X169900000Y-130050000D02*
X169900000Y-126950000D01*
X166300000Y-130050000D02*
X169900000Y-130050000D01*
X166300000Y-126950000D02*
X166300000Y-130050000D01*
X198500000Y-112700000D02*
X194900000Y-112700000D01*
X194900000Y-115800000D02*
X198500000Y-115800000D01*
X198500000Y-115800000D02*
X198500000Y-112700000D01*
X194900000Y-112700000D02*
X194900000Y-115800000D01*
X213950000Y-114200000D02*
X213950000Y-117300000D01*
X217550000Y-117300000D02*
X217550000Y-114200000D01*
X213950000Y-117300000D02*
X217550000Y-117300000D01*
X217550000Y-114200000D02*
X213950000Y-114200000D01*
D12*
X85700000Y-61700000D02*
X85700000Y-59700000D01*
X83700000Y-61700000D02*
X85700000Y-61700000D01*
X83700000Y-59700000D02*
X83700000Y-61700000D01*
X85700000Y-59700000D02*
X83700000Y-59700000D01*
D17*
X128200000Y-132300000D02*
X131800000Y-132300000D01*
X128200000Y-129200000D02*
X128200000Y-132300000D01*
X131800000Y-129200000D02*
X128200000Y-129200000D01*
X131800000Y-132300000D02*
X131800000Y-129200000D01*
X175800000Y-72900000D02*
X179400000Y-72900000D01*
X175800000Y-69800000D02*
X175800000Y-72900000D01*
X179400000Y-69800000D02*
X175800000Y-69800000D01*
X179400000Y-72900000D02*
X179400000Y-69800000D01*
X118700000Y-91300000D02*
X118700000Y-94400000D01*
X118700000Y-94400000D02*
X122300000Y-94400000D01*
X122300000Y-94400000D02*
X122300000Y-91300000D01*
X122300000Y-91300000D02*
X118700000Y-91300000D01*
X122300000Y-113400000D02*
X122300000Y-110300000D01*
X122300000Y-110300000D02*
X118700000Y-110300000D01*
X118700000Y-113400000D02*
X122300000Y-113400000D01*
X118700000Y-110300000D02*
X118700000Y-113400000D01*
X137700000Y-50800000D02*
X137700000Y-53900000D01*
X141300000Y-53900000D02*
X141300000Y-50800000D01*
X141300000Y-50800000D02*
X137700000Y-50800000D01*
X137700000Y-53900000D02*
X141300000Y-53900000D01*
X156800000Y-71600000D02*
X160400000Y-71600000D01*
X160400000Y-71600000D02*
X160400000Y-68500000D01*
X160400000Y-68500000D02*
X156800000Y-68500000D01*
X156800000Y-68500000D02*
X156800000Y-71600000D01*
X179400000Y-92000000D02*
X179400000Y-88900000D01*
X179400000Y-88900000D02*
X175800000Y-88900000D01*
X175800000Y-88900000D02*
X175800000Y-92000000D01*
X175800000Y-92000000D02*
X179400000Y-92000000D01*
D18*
X115420000Y-50000000D03*
D19*
X120500000Y-50000000D03*
D18*
X125580000Y-50000000D03*
X144580000Y-47600000D03*
D19*
X139500000Y-47600000D03*
D18*
X134420000Y-47600000D03*
X153520000Y-46210000D03*
X163680000Y-46210000D03*
D19*
X158600000Y-46210000D03*
D18*
X182680000Y-47600000D03*
X172520000Y-47600000D03*
D19*
X177600000Y-47600000D03*
D18*
X191620000Y-52400000D03*
D19*
X196700000Y-52400000D03*
D18*
X201780000Y-52400000D03*
X220780000Y-53900000D03*
D19*
X215700000Y-53900000D03*
D18*
X210620000Y-53900000D03*
D19*
X139500000Y-66700000D03*
D18*
X144580000Y-66700000D03*
X134420000Y-66700000D03*
X153520000Y-65300000D03*
D19*
X158600000Y-65300000D03*
D18*
X163680000Y-65300000D03*
X182680000Y-66600000D03*
D19*
X177600000Y-66600000D03*
D18*
X172520000Y-66600000D03*
X201780000Y-71300000D03*
D19*
X196700000Y-71300000D03*
D18*
X191620000Y-71300000D03*
X220780000Y-72800000D03*
D19*
X215700000Y-72800000D03*
D18*
X210620000Y-72800000D03*
X115420000Y-88100000D03*
D19*
X120500000Y-88100000D03*
D18*
X125580000Y-88100000D03*
D19*
X139500000Y-85700000D03*
D18*
X134420000Y-85700000D03*
X144580000Y-85700000D03*
D19*
X158600000Y-84400000D03*
D18*
X153520000Y-84400000D03*
X163680000Y-84400000D03*
D19*
X177600000Y-85700000D03*
D18*
X182680000Y-85700000D03*
X172520000Y-85700000D03*
D19*
X196700000Y-90500000D03*
D18*
X191620000Y-90500000D03*
X201780000Y-90500000D03*
D19*
X215700000Y-92000000D03*
D18*
X220780000Y-92000000D03*
X210620000Y-92000000D03*
X125580000Y-107100000D03*
D19*
X120500000Y-107100000D03*
D18*
X115420000Y-107100000D03*
X144580000Y-104800000D03*
X134420000Y-104800000D03*
D19*
X139500000Y-104800000D03*
X158600000Y-103400000D03*
D18*
X163680000Y-103400000D03*
X153520000Y-103400000D03*
D19*
X177600000Y-104800000D03*
D18*
X182680000Y-104800000D03*
X172520000Y-104800000D03*
X201780000Y-109500000D03*
X191620000Y-109500000D03*
D19*
X196700000Y-109500000D03*
D18*
X210670000Y-111000000D03*
X220830000Y-111000000D03*
D19*
X215750000Y-111000000D03*
D18*
X96320000Y-97500000D03*
X106480000Y-97500000D03*
D19*
X101400000Y-97500000D03*
X105000000Y-127000000D03*
D18*
X107540000Y-131399409D03*
X102460000Y-122600591D03*
X124920000Y-126000000D03*
X135080000Y-126000000D03*
D19*
X130000000Y-126000000D03*
D18*
X143920000Y-123750000D03*
D19*
X149000000Y-123750000D03*
D18*
X154080000Y-123750000D03*
D19*
X168100000Y-123750000D03*
D18*
X163020000Y-123750000D03*
X173180000Y-123750000D03*
D20*
X86150000Y-47800000D03*
X86150000Y-40800000D03*
X87900000Y-47800000D03*
X87900000Y-40800000D03*
D21*
X84050000Y-49600000D03*
X90000000Y-49600000D03*
X90000000Y-45600000D03*
X84050000Y-45600000D03*
X84050000Y-42600000D03*
X90000000Y-42600000D03*
X88250000Y-51100000D03*
X85800000Y-51100000D03*
D22*
X86000000Y-85000000D03*
X108000000Y-85000000D03*
D23*
X96700000Y-75000000D03*
X99240000Y-75000000D03*
X101780000Y-75000000D03*
X104320000Y-75000000D03*
D18*
X125580000Y-69100000D03*
X115420000Y-69100000D03*
D19*
X120500000Y-69100000D03*
D23*
X86900000Y-60700000D03*
X84700000Y-60700000D03*
M02*
