G04 #@! TF.GenerationSoftware,KiCad,Pcbnew,(6.0.1)*
G04 #@! TF.CreationDate,2022-01-24T10:18:44+00:00*
G04 #@! TF.ProjectId,Lily58,4c696c79-3538-42e6-9b69-6361645f7063,rev?*
G04 #@! TF.SameCoordinates,Original*
G04 #@! TF.FileFunction,Soldermask,Bot*
G04 #@! TF.FilePolarity,Negative*
%FSLAX46Y46*%
G04 Gerber Fmt 4.6, Leading zero omitted, Abs format (unit mm)*
G04 Created by KiCad (PCBNEW (6.0.1)) date 2022-01-24 10:18:44*
%MOMM*%
%LPD*%
G01*
G04 APERTURE LIST*
G04 Aperture macros list*
%AMRotRect*
0 Rectangle, with rotation*
0 The origin of the aperture is its center*
0 $1 length*
0 $2 width*
0 $3 Rotation angle, in degrees counterclockwise*
0 Add horizontal line*
21,1,$1,$2,0,0,$3*%
%AMOutline5P*
0 Free polygon, 5 corners , with rotation*
0 The origin of the aperture is its center*
0 number of corners: always 5*
0 $1 to $10 corner X, Y*
0 $11 Rotation angle, in degrees counterclockwise*
0 create outline with 5 corners*
4,1,5,$1,$2,$3,$4,$5,$6,$7,$8,$9,$10,$1,$2,$11*%
%AMOutline6P*
0 Free polygon, 6 corners , with rotation*
0 The origin of the aperture is its center*
0 number of corners: always 6*
0 $1 to $12 corner X, Y*
0 $13 Rotation angle, in degrees counterclockwise*
0 create outline with 6 corners*
4,1,6,$1,$2,$3,$4,$5,$6,$7,$8,$9,$10,$11,$12,$1,$2,$13*%
%AMOutline7P*
0 Free polygon, 7 corners , with rotation*
0 The origin of the aperture is its center*
0 number of corners: always 7*
0 $1 to $14 corner X, Y*
0 $15 Rotation angle, in degrees counterclockwise*
0 create outline with 7 corners*
4,1,7,$1,$2,$3,$4,$5,$6,$7,$8,$9,$10,$11,$12,$13,$14,$1,$2,$15*%
%AMOutline8P*
0 Free polygon, 8 corners , with rotation*
0 The origin of the aperture is its center*
0 number of corners: always 8*
0 $1 to $16 corner X, Y*
0 $17 Rotation angle, in degrees counterclockwise*
0 create outline with 8 corners*
4,1,8,$1,$2,$3,$4,$5,$6,$7,$8,$9,$10,$11,$12,$13,$14,$15,$16,$1,$2,$17*%
G04 Aperture macros list end*
G04 #@! TA.AperFunction,Profile*
%ADD10C,0.200000*%
G04 #@! TD*
%ADD11C,0.200000*%
G04 #@! TA.AperFunction,Profile*
%ADD12C,0.120000*%
G04 #@! TD*
%ADD13R,2.000000X2.000000*%
%ADD14C,2.000000*%
%ADD15R,1.600000X1.600000*%
%ADD16C,1.600000*%
%ADD17RotRect,1.600000X1.600000X300.000000*%
%ADD18C,1.397000*%
%ADD19C,1.800000*%
%ADD20C,4.000000*%
%ADD21C,3.000000*%
%ADD22R,2.550000X2.500000*%
%ADD23RotRect,2.550000X2.500000X120.000000*%
%ADD24C,1.200000*%
%ADD25R,1.200000X2.100000*%
%ADD26C,2.200000*%
%ADD27C,4.900000*%
%ADD28C,2.500000*%
%ADD29C,1.524000*%
%ADD30R,1.397000X1.397000*%
%ADD31R,1.700000X1.000000*%
%ADD32Outline5P,-0.850000X0.500000X0.850000X0.500000X0.850000X-0.050000X0.400000X-0.500000X-0.850000X-0.500000X0.000000*%
%ADD33RotRect,1.700000X1.000000X300.000000*%
%ADD34Outline5P,-0.850000X0.500000X0.850000X0.500000X0.850000X-0.050000X0.400000X-0.500000X-0.850000X-0.500000X300.000000*%
%ADD35Outline5P,-0.850000X0.500000X0.850000X0.500000X0.850000X-0.050000X0.400000X-0.500000X-0.850000X-0.500000X180.000000*%
%ADD36R,1.600000X1.000000*%
%ADD37Outline5P,-0.800000X0.500000X0.800000X0.500000X0.800000X-0.500000X-0.350000X-0.500000X-0.800000X-0.050000X0.000000*%
%ADD38Outline5P,-0.800000X0.500000X0.800000X0.500000X0.800000X-0.500000X-0.350000X-0.500000X-0.800000X-0.050000X180.000000*%
%ADD39R,1.143000X0.635000*%
G04 APERTURE END LIST*
D10*
X104803877Y-37086762D02*
X94400000Y-37086762D01*
X82937528Y-82285296D02*
X82937528Y-75978362D01*
X82937528Y-75978362D02*
X82937528Y-69671429D01*
X82937528Y-88592229D02*
X82937528Y-82285296D01*
X177658308Y-135255660D02*
X177403500Y-135393876D01*
X83776462Y-37108075D02*
X83988210Y-37086762D01*
X93344258Y-125721062D02*
X95019952Y-128587381D01*
X224544152Y-120671952D02*
X224262495Y-120759288D01*
X162080304Y-135511658D02*
X169449826Y-135511658D01*
X225460000Y-71881623D02*
X225460000Y-81363245D01*
X112835230Y-138421062D02*
X114510925Y-137450923D01*
X111159536Y-139391201D02*
X112835230Y-138421062D01*
X94400000Y-37086762D02*
X83988210Y-37086762D01*
X91668563Y-122854742D02*
X93344258Y-125721062D01*
X178319348Y-130379933D02*
X178319348Y-131597973D01*
X89992869Y-119988423D02*
X91668563Y-122854742D01*
X178319348Y-124289735D02*
X178390391Y-123583911D01*
X225459999Y-119289735D02*
X225429552Y-119592231D01*
X136027379Y-37086762D02*
X125619545Y-37086762D01*
X125619545Y-37086762D02*
X115211711Y-37086762D01*
X125232695Y-135511658D02*
X132602217Y-135511658D01*
X225460000Y-100326490D02*
X225460000Y-109808112D01*
X181113524Y-120860778D02*
X181819348Y-120789735D01*
X225204001Y-120128696D02*
X225020912Y-120350648D01*
X225460000Y-109808112D02*
X225460000Y-119289735D01*
X218692418Y-120789735D02*
X223959999Y-120789735D01*
X103714328Y-143322532D02*
X103842470Y-143386445D01*
X225342217Y-119873887D02*
X225204001Y-120128696D01*
X224798960Y-120533736D02*
X224544152Y-120671952D01*
X103491837Y-143088150D02*
X103597295Y-143222884D01*
X208157255Y-120789735D02*
X213424836Y-120789735D01*
X82959523Y-37925015D02*
X83020657Y-37727855D01*
X215525697Y-39885159D02*
X208420758Y-38945561D01*
X224900000Y-42700000D02*
X225460000Y-43436755D01*
X178319348Y-134011658D02*
X178288901Y-134314154D01*
X101722730Y-140052659D02*
X103398425Y-142918979D01*
X225460000Y-43436755D02*
X225460000Y-52918378D01*
X83020657Y-37727855D02*
X83117409Y-37549489D01*
X84020972Y-100690825D02*
X84747083Y-104695246D01*
X225460000Y-62400000D02*
X225460000Y-71881623D01*
X88291758Y-116318073D02*
X89992869Y-119988423D01*
X139971738Y-135511658D02*
X147341260Y-135511658D01*
X178390391Y-123583911D02*
X178594174Y-122926713D01*
X178916678Y-122332160D02*
X179343884Y-121814271D01*
X178319348Y-124289735D02*
X178319348Y-125507775D01*
X208420758Y-38945561D02*
X199807654Y-38170488D01*
X189919538Y-37585374D02*
X178989563Y-37215654D01*
X116186619Y-136480784D02*
X117862313Y-135510645D01*
X156843047Y-37086762D02*
X146435213Y-37086762D01*
X178063349Y-134850619D02*
X177880261Y-135072571D01*
X147341260Y-135511658D02*
X154710782Y-135511658D01*
X177880261Y-135072571D02*
X177658308Y-135255660D01*
X197622092Y-120789735D02*
X202889673Y-120789735D01*
X224262495Y-120759288D02*
X223959999Y-120789735D01*
X104130206Y-143404468D02*
X104288864Y-143357278D01*
X224900000Y-42700000D02*
X224278471Y-42156190D01*
X82937528Y-50750629D02*
X82937528Y-44443695D01*
X82937528Y-44443695D02*
X82937528Y-38136762D01*
X178319348Y-127943854D02*
X178319348Y-129161894D01*
X225429552Y-119592231D02*
X225342217Y-119873887D01*
X132602217Y-135511658D02*
X139971738Y-135511658D01*
X83245570Y-37394123D02*
X83400937Y-37265961D01*
X82937528Y-38136762D02*
X82959523Y-37925015D01*
X220889319Y-40963847D02*
X215525697Y-39885159D01*
X95019952Y-128587381D02*
X96695647Y-131453701D01*
X178319348Y-131597973D02*
X178319348Y-132816013D01*
X225020912Y-120350648D02*
X224798960Y-120533736D01*
X178319348Y-126725814D02*
X178319348Y-127943854D01*
X213424836Y-120789735D02*
X218692418Y-120789735D01*
X178594174Y-122926713D02*
X178916678Y-122332160D01*
X167250881Y-37086762D02*
X156843047Y-37086762D01*
X180456326Y-121064561D02*
X181113524Y-120860778D01*
X83135690Y-92617561D02*
X83490297Y-96657663D01*
X103597295Y-143222884D02*
X103714328Y-143322532D01*
X117862313Y-135510645D02*
X125232695Y-135511658D01*
X109483841Y-140361340D02*
X111159536Y-139391201D01*
X225460000Y-81363245D02*
X225460000Y-90844867D01*
X96695647Y-131453701D02*
X98371341Y-134320020D01*
X115211711Y-37086762D02*
X104803877Y-37086762D01*
X224278471Y-42156190D02*
X220889319Y-40963847D01*
X82937528Y-57057562D02*
X82937528Y-50750629D01*
X202889673Y-120789735D02*
X208157255Y-120789735D01*
X82937528Y-63364495D02*
X82937528Y-57057562D01*
X178288901Y-134314154D02*
X178201565Y-134595810D01*
X103398425Y-142918979D02*
X103491837Y-143088150D01*
X83117409Y-37549489D02*
X83245570Y-37394123D01*
X199807654Y-38170488D02*
X189919538Y-37585374D01*
X192354511Y-120789735D02*
X197622092Y-120789735D01*
X179343884Y-121814271D02*
X179861773Y-121387065D01*
X187086929Y-120789735D02*
X192354511Y-120789735D01*
X178201565Y-134595810D02*
X178063349Y-134850619D01*
X178319348Y-125507775D02*
X178319348Y-126725814D01*
X100047036Y-137186340D02*
X101722730Y-140052659D01*
X178319348Y-132816013D02*
X178319348Y-134011658D01*
X103981252Y-143413974D02*
X104130206Y-143404468D01*
X225460000Y-90844867D02*
X225460000Y-100326490D01*
X104456758Y-143271756D02*
X106132452Y-142301617D01*
X146435213Y-37086762D02*
X136027379Y-37086762D01*
X98371341Y-134320020D02*
X100047036Y-137186340D01*
X178989563Y-37215654D02*
X167250881Y-37086762D01*
X82937528Y-69671429D02*
X82937528Y-63364495D01*
X225460000Y-52918378D02*
X225460000Y-62400000D01*
X103842470Y-143386445D02*
X103981252Y-143413974D01*
X107808147Y-141331479D02*
X109483841Y-140361340D01*
X177121844Y-135481211D02*
X176819348Y-135511658D01*
X154710782Y-135511658D02*
X162080304Y-135511658D01*
X169449826Y-135511658D02*
X176819348Y-135511658D01*
X177403500Y-135393876D02*
X177121844Y-135481211D01*
X104288864Y-143357278D02*
X104456758Y-143271756D01*
X114510925Y-137450923D02*
X116186619Y-136480784D01*
X84747083Y-104695246D02*
X85688004Y-108649127D01*
X86863105Y-112530670D02*
X88291758Y-116318073D01*
X179861773Y-121387065D02*
X180456326Y-121064561D01*
X83579303Y-37169210D02*
X83776462Y-37108075D01*
X85688004Y-108649127D02*
X86863105Y-112530670D01*
X106132452Y-142301617D02*
X107808147Y-141331479D01*
X83400937Y-37265961D02*
X83579303Y-37169210D01*
X83490297Y-96657663D02*
X84020972Y-100690825D01*
X181819348Y-120789735D02*
X187086929Y-120789735D01*
X82937528Y-88592229D02*
X83135690Y-92617561D01*
X178319348Y-129161894D02*
X178319348Y-130379933D01*
D11*
X220151523Y-119741904D02*
X220151523Y-118941904D01*
X219846761Y-118941904D01*
X219770571Y-118980000D01*
X219732476Y-119018095D01*
X219694380Y-119094285D01*
X219694380Y-119208571D01*
X219732476Y-119284761D01*
X219770571Y-119322857D01*
X219846761Y-119360952D01*
X220151523Y-119360952D01*
X218894380Y-119665714D02*
X218932476Y-119703809D01*
X219046761Y-119741904D01*
X219122952Y-119741904D01*
X219237238Y-119703809D01*
X219313428Y-119627619D01*
X219351523Y-119551428D01*
X219389619Y-119399047D01*
X219389619Y-119284761D01*
X219351523Y-119132380D01*
X219313428Y-119056190D01*
X219237238Y-118980000D01*
X219122952Y-118941904D01*
X219046761Y-118941904D01*
X218932476Y-118980000D01*
X218894380Y-119018095D01*
X218284857Y-119322857D02*
X218170571Y-119360952D01*
X218132476Y-119399047D01*
X218094380Y-119475238D01*
X218094380Y-119589523D01*
X218132476Y-119665714D01*
X218170571Y-119703809D01*
X218246761Y-119741904D01*
X218551523Y-119741904D01*
X218551523Y-118941904D01*
X218284857Y-118941904D01*
X218208666Y-118980000D01*
X218170571Y-119018095D01*
X218132476Y-119094285D01*
X218132476Y-119170476D01*
X218170571Y-119246666D01*
X218208666Y-119284761D01*
X218284857Y-119322857D01*
X218551523Y-119322857D01*
X217142000Y-119741904D02*
X217142000Y-118941904D01*
X216951523Y-118941904D01*
X216837238Y-118980000D01*
X216761047Y-119056190D01*
X216722952Y-119132380D01*
X216684857Y-119284761D01*
X216684857Y-119399047D01*
X216722952Y-119551428D01*
X216761047Y-119627619D01*
X216837238Y-119703809D01*
X216951523Y-119741904D01*
X217142000Y-119741904D01*
X216037238Y-119703809D02*
X216113428Y-119741904D01*
X216265809Y-119741904D01*
X216342000Y-119703809D01*
X216380095Y-119627619D01*
X216380095Y-119322857D01*
X216342000Y-119246666D01*
X216265809Y-119208571D01*
X216113428Y-119208571D01*
X216037238Y-119246666D01*
X215999142Y-119322857D01*
X215999142Y-119399047D01*
X216380095Y-119475238D01*
X215694380Y-119703809D02*
X215618190Y-119741904D01*
X215465809Y-119741904D01*
X215389619Y-119703809D01*
X215351523Y-119627619D01*
X215351523Y-119589523D01*
X215389619Y-119513333D01*
X215465809Y-119475238D01*
X215580095Y-119475238D01*
X215656285Y-119437142D01*
X215694380Y-119360952D01*
X215694380Y-119322857D01*
X215656285Y-119246666D01*
X215580095Y-119208571D01*
X215465809Y-119208571D01*
X215389619Y-119246666D01*
X215008666Y-119741904D02*
X215008666Y-119208571D01*
X215008666Y-118941904D02*
X215046761Y-118980000D01*
X215008666Y-119018095D01*
X214970571Y-118980000D01*
X215008666Y-118941904D01*
X215008666Y-119018095D01*
X214284857Y-119208571D02*
X214284857Y-119856190D01*
X214322952Y-119932380D01*
X214361047Y-119970476D01*
X214437238Y-120008571D01*
X214551523Y-120008571D01*
X214627714Y-119970476D01*
X214284857Y-119703809D02*
X214361047Y-119741904D01*
X214513428Y-119741904D01*
X214589619Y-119703809D01*
X214627714Y-119665714D01*
X214665809Y-119589523D01*
X214665809Y-119360952D01*
X214627714Y-119284761D01*
X214589619Y-119246666D01*
X214513428Y-119208571D01*
X214361047Y-119208571D01*
X214284857Y-119246666D01*
X213903904Y-119208571D02*
X213903904Y-119741904D01*
X213903904Y-119284761D02*
X213865809Y-119246666D01*
X213789619Y-119208571D01*
X213675333Y-119208571D01*
X213599142Y-119246666D01*
X213561047Y-119322857D01*
X213561047Y-119741904D01*
X212570571Y-119741904D02*
X212570571Y-118941904D01*
X212570571Y-119246666D02*
X212494380Y-119208571D01*
X212342000Y-119208571D01*
X212265809Y-119246666D01*
X212227714Y-119284761D01*
X212189619Y-119360952D01*
X212189619Y-119589523D01*
X212227714Y-119665714D01*
X212265809Y-119703809D01*
X212342000Y-119741904D01*
X212494380Y-119741904D01*
X212570571Y-119703809D01*
X211922952Y-119208571D02*
X211732476Y-119741904D01*
X211542000Y-119208571D02*
X211732476Y-119741904D01*
X211808666Y-119932380D01*
X211846761Y-119970476D01*
X211922952Y-120008571D01*
X210361047Y-119322857D02*
X210627714Y-119322857D01*
X210627714Y-119741904D02*
X210627714Y-118941904D01*
X210246761Y-118941904D01*
X210132476Y-119818095D02*
X209522952Y-119818095D01*
X209180095Y-119360952D02*
X209180095Y-119741904D01*
X209446761Y-118941904D02*
X209180095Y-119360952D01*
X208913428Y-118941904D01*
X208646761Y-118941904D02*
X208646761Y-119589523D01*
X208608666Y-119665714D01*
X208570571Y-119703809D01*
X208494380Y-119741904D01*
X208342000Y-119741904D01*
X208265809Y-119703809D01*
X208227714Y-119665714D01*
X208189619Y-119589523D01*
X208189619Y-118941904D01*
X207808666Y-118941904D02*
X207808666Y-119589523D01*
X207770571Y-119665714D01*
X207732476Y-119703809D01*
X207656285Y-119741904D01*
X207503904Y-119741904D01*
X207427714Y-119703809D01*
X207389619Y-119665714D01*
X207351523Y-119589523D01*
X207351523Y-118941904D01*
X206513428Y-119665714D02*
X206551523Y-119703809D01*
X206665809Y-119741904D01*
X206742000Y-119741904D01*
X206856285Y-119703809D01*
X206932476Y-119627619D01*
X206970571Y-119551428D01*
X207008666Y-119399047D01*
X207008666Y-119284761D01*
X206970571Y-119132380D01*
X206932476Y-119056190D01*
X206856285Y-118980000D01*
X206742000Y-118941904D01*
X206665809Y-118941904D01*
X206551523Y-118980000D01*
X206513428Y-119018095D01*
X206170571Y-119741904D02*
X206170571Y-118941904D01*
X206170571Y-119322857D02*
X205713428Y-119322857D01*
X205713428Y-119741904D02*
X205713428Y-118941904D01*
X205332476Y-119741904D02*
X205332476Y-118941904D01*
X204913428Y-119703809D02*
X204913428Y-119741904D01*
X204951523Y-119818095D01*
X204989619Y-119856190D01*
X203961047Y-119741904D02*
X203961047Y-119208571D01*
X203961047Y-119284761D02*
X203922952Y-119246666D01*
X203846761Y-119208571D01*
X203732476Y-119208571D01*
X203656285Y-119246666D01*
X203618190Y-119322857D01*
X203618190Y-119741904D01*
X203618190Y-119322857D02*
X203580095Y-119246666D01*
X203503904Y-119208571D01*
X203389619Y-119208571D01*
X203313428Y-119246666D01*
X203275333Y-119322857D01*
X203275333Y-119741904D01*
X202780095Y-119741904D02*
X202856285Y-119703809D01*
X202894380Y-119665714D01*
X202932476Y-119589523D01*
X202932476Y-119360952D01*
X202894380Y-119284761D01*
X202856285Y-119246666D01*
X202780095Y-119208571D01*
X202665809Y-119208571D01*
X202589619Y-119246666D01*
X202551523Y-119284761D01*
X202513428Y-119360952D01*
X202513428Y-119589523D01*
X202551523Y-119665714D01*
X202589619Y-119703809D01*
X202665809Y-119741904D01*
X202780095Y-119741904D01*
X201827714Y-119741904D02*
X201827714Y-118941904D01*
X201827714Y-119703809D02*
X201903904Y-119741904D01*
X202056285Y-119741904D01*
X202132476Y-119703809D01*
X202170571Y-119665714D01*
X202208666Y-119589523D01*
X202208666Y-119360952D01*
X202170571Y-119284761D01*
X202132476Y-119246666D01*
X202056285Y-119208571D01*
X201903904Y-119208571D01*
X201827714Y-119246666D01*
X201446761Y-119741904D02*
X201446761Y-119208571D01*
X201446761Y-118941904D02*
X201484857Y-118980000D01*
X201446761Y-119018095D01*
X201408666Y-118980000D01*
X201446761Y-118941904D01*
X201446761Y-119018095D01*
X201180095Y-119208571D02*
X200875333Y-119208571D01*
X201065809Y-119741904D02*
X201065809Y-119056190D01*
X201027714Y-118980000D01*
X200951523Y-118941904D01*
X200875333Y-118941904D01*
X200608666Y-119741904D02*
X200608666Y-119208571D01*
X200608666Y-118941904D02*
X200646761Y-118980000D01*
X200608666Y-119018095D01*
X200570571Y-118980000D01*
X200608666Y-118941904D01*
X200608666Y-119018095D01*
X199922952Y-119703809D02*
X199999142Y-119741904D01*
X200151523Y-119741904D01*
X200227714Y-119703809D01*
X200265809Y-119627619D01*
X200265809Y-119322857D01*
X200227714Y-119246666D01*
X200151523Y-119208571D01*
X199999142Y-119208571D01*
X199922952Y-119246666D01*
X199884857Y-119322857D01*
X199884857Y-119399047D01*
X200265809Y-119475238D01*
X199199142Y-119741904D02*
X199199142Y-118941904D01*
X199199142Y-119703809D02*
X199275333Y-119741904D01*
X199427714Y-119741904D01*
X199503904Y-119703809D01*
X199542000Y-119665714D01*
X199580095Y-119589523D01*
X199580095Y-119360952D01*
X199542000Y-119284761D01*
X199503904Y-119246666D01*
X199427714Y-119208571D01*
X199275333Y-119208571D01*
X199199142Y-119246666D01*
X198208666Y-119741904D02*
X198208666Y-118941904D01*
X198208666Y-119246666D02*
X198132476Y-119208571D01*
X197980095Y-119208571D01*
X197903904Y-119246666D01*
X197865809Y-119284761D01*
X197827714Y-119360952D01*
X197827714Y-119589523D01*
X197865809Y-119665714D01*
X197903904Y-119703809D01*
X197980095Y-119741904D01*
X198132476Y-119741904D01*
X198208666Y-119703809D01*
X197561047Y-119208571D02*
X197370571Y-119741904D01*
X197180095Y-119208571D02*
X197370571Y-119741904D01*
X197446761Y-119932380D01*
X197484857Y-119970476D01*
X197561047Y-120008571D01*
X196037238Y-118941904D02*
X196037238Y-119513333D01*
X196075333Y-119627619D01*
X196151523Y-119703809D01*
X196265809Y-119741904D01*
X196342000Y-119741904D01*
X195351523Y-119703809D02*
X195427714Y-119741904D01*
X195580095Y-119741904D01*
X195656285Y-119703809D01*
X195694380Y-119627619D01*
X195694380Y-119322857D01*
X195656285Y-119246666D01*
X195580095Y-119208571D01*
X195427714Y-119208571D01*
X195351523Y-119246666D01*
X195313428Y-119322857D01*
X195313428Y-119399047D01*
X195694380Y-119475238D01*
X194742000Y-118941904D02*
X194742000Y-119513333D01*
X194780095Y-119627619D01*
X194856285Y-119703809D01*
X194970571Y-119741904D01*
X195046761Y-119741904D01*
X194056285Y-119703809D02*
X194132476Y-119741904D01*
X194284857Y-119741904D01*
X194361047Y-119703809D01*
X194399142Y-119627619D01*
X194399142Y-119322857D01*
X194361047Y-119246666D01*
X194284857Y-119208571D01*
X194132476Y-119208571D01*
X194056285Y-119246666D01*
X194018190Y-119322857D01*
X194018190Y-119399047D01*
X194399142Y-119475238D01*
X193789619Y-119208571D02*
X193484857Y-119208571D01*
X193675333Y-119741904D02*
X193675333Y-119056190D01*
X193637238Y-118980000D01*
X193561047Y-118941904D01*
X193484857Y-118941904D01*
X193332476Y-119208571D02*
X193027714Y-119208571D01*
X193218190Y-119741904D02*
X193218190Y-119056190D01*
X193180095Y-118980000D01*
X193103904Y-118941904D01*
X193027714Y-118941904D01*
D12*
X175800000Y-50800000D02*
X175800000Y-53900000D01*
X179400000Y-50800000D02*
X175800000Y-50800000D01*
X175800000Y-53900000D02*
X179400000Y-53900000D01*
X179400000Y-53900000D02*
X179400000Y-50800000D01*
X98644040Y-128591154D02*
X100444040Y-131708846D01*
X103128718Y-130158846D02*
X101328718Y-127041154D01*
X101328718Y-127041154D02*
X98644040Y-128591154D01*
X100444040Y-131708846D02*
X103128718Y-130158846D01*
X122300000Y-53200000D02*
X118700000Y-53200000D01*
X122300000Y-56300000D02*
X122300000Y-53200000D01*
X118700000Y-56300000D02*
X122300000Y-56300000D01*
X118700000Y-53200000D02*
X118700000Y-56300000D01*
X175800000Y-111100000D02*
X179400000Y-111100000D01*
X175800000Y-108000000D02*
X175800000Y-111100000D01*
X179400000Y-108000000D02*
X175800000Y-108000000D01*
X179400000Y-111100000D02*
X179400000Y-108000000D01*
X150800000Y-126950000D02*
X147200000Y-126950000D01*
X147200000Y-130050000D02*
X150800000Y-130050000D01*
X147200000Y-126950000D02*
X147200000Y-130050000D01*
X150800000Y-130050000D02*
X150800000Y-126950000D01*
X103200000Y-103800000D02*
X103200000Y-100700000D01*
X99600000Y-103800000D02*
X103200000Y-103800000D01*
X99600000Y-100700000D02*
X99600000Y-103800000D01*
X103200000Y-100700000D02*
X99600000Y-100700000D01*
X122300000Y-72300000D02*
X118700000Y-72300000D01*
X118700000Y-72300000D02*
X118700000Y-75400000D01*
X122300000Y-75400000D02*
X122300000Y-72300000D01*
X118700000Y-75400000D02*
X122300000Y-75400000D01*
X160400000Y-90700000D02*
X160400000Y-87600000D01*
X160400000Y-87600000D02*
X156800000Y-87600000D01*
X156800000Y-90700000D02*
X160400000Y-90700000D01*
X156800000Y-87600000D02*
X156800000Y-90700000D01*
X217500000Y-76000000D02*
X213900000Y-76000000D01*
X213900000Y-76000000D02*
X213900000Y-79100000D01*
X213900000Y-79100000D02*
X217500000Y-79100000D01*
X217500000Y-79100000D02*
X217500000Y-76000000D01*
X213900000Y-60200000D02*
X217500000Y-60200000D01*
X217500000Y-60200000D02*
X217500000Y-57100000D01*
X213900000Y-57100000D02*
X213900000Y-60200000D01*
X217500000Y-57100000D02*
X213900000Y-57100000D01*
X194900000Y-93700000D02*
X194900000Y-96800000D01*
X198500000Y-96800000D02*
X198500000Y-93700000D01*
X194900000Y-96800000D02*
X198500000Y-96800000D01*
X198500000Y-93700000D02*
X194900000Y-93700000D01*
X160400000Y-106600000D02*
X156800000Y-106600000D01*
X156800000Y-109700000D02*
X160400000Y-109700000D01*
X156800000Y-106600000D02*
X156800000Y-109700000D01*
X160400000Y-109700000D02*
X160400000Y-106600000D01*
X194900000Y-74500000D02*
X194900000Y-77600000D01*
X194900000Y-77600000D02*
X198500000Y-77600000D01*
X198500000Y-74500000D02*
X194900000Y-74500000D01*
X198500000Y-77600000D02*
X198500000Y-74500000D01*
X156800000Y-49410000D02*
X156800000Y-52510000D01*
X160400000Y-49410000D02*
X156800000Y-49410000D01*
X160400000Y-52510000D02*
X160400000Y-49410000D01*
X156800000Y-52510000D02*
X160400000Y-52510000D01*
X217500000Y-95200000D02*
X213900000Y-95200000D01*
X213900000Y-95200000D02*
X213900000Y-98300000D01*
X213900000Y-98300000D02*
X217500000Y-98300000D01*
X217500000Y-98300000D02*
X217500000Y-95200000D01*
X141300000Y-111100000D02*
X141300000Y-108000000D01*
X137700000Y-108000000D02*
X137700000Y-111100000D01*
X137700000Y-111100000D02*
X141300000Y-111100000D01*
X141300000Y-108000000D02*
X137700000Y-108000000D01*
X137700000Y-92000000D02*
X141300000Y-92000000D01*
X137700000Y-88900000D02*
X137700000Y-92000000D01*
X141300000Y-88900000D02*
X137700000Y-88900000D01*
X141300000Y-92000000D02*
X141300000Y-88900000D01*
X198500000Y-55600000D02*
X194900000Y-55600000D01*
X194900000Y-58700000D02*
X198500000Y-58700000D01*
X194900000Y-55600000D02*
X194900000Y-58700000D01*
X198500000Y-58700000D02*
X198500000Y-55600000D01*
X137700000Y-73000000D02*
X141300000Y-73000000D01*
X141300000Y-73000000D02*
X141300000Y-69900000D01*
X137700000Y-69900000D02*
X137700000Y-73000000D01*
X141300000Y-69900000D02*
X137700000Y-69900000D01*
X169900000Y-126950000D02*
X166300000Y-126950000D01*
X169900000Y-130050000D02*
X169900000Y-126950000D01*
X166300000Y-130050000D02*
X169900000Y-130050000D01*
X166300000Y-126950000D02*
X166300000Y-130050000D01*
X198500000Y-112700000D02*
X194900000Y-112700000D01*
X194900000Y-115800000D02*
X198500000Y-115800000D01*
X198500000Y-115800000D02*
X198500000Y-112700000D01*
X194900000Y-112700000D02*
X194900000Y-115800000D01*
X213950000Y-114200000D02*
X213950000Y-117300000D01*
X217550000Y-117300000D02*
X217550000Y-114200000D01*
X213950000Y-117300000D02*
X217550000Y-117300000D01*
X217550000Y-114200000D02*
X213950000Y-114200000D01*
X128200000Y-132300000D02*
X131800000Y-132300000D01*
X128200000Y-129200000D02*
X128200000Y-132300000D01*
X131800000Y-129200000D02*
X128200000Y-129200000D01*
X131800000Y-132300000D02*
X131800000Y-129200000D01*
X175800000Y-72900000D02*
X179400000Y-72900000D01*
X175800000Y-69800000D02*
X175800000Y-72900000D01*
X179400000Y-69800000D02*
X175800000Y-69800000D01*
X179400000Y-72900000D02*
X179400000Y-69800000D01*
X118700000Y-91300000D02*
X118700000Y-94400000D01*
X118700000Y-94400000D02*
X122300000Y-94400000D01*
X122300000Y-94400000D02*
X122300000Y-91300000D01*
X122300000Y-91300000D02*
X118700000Y-91300000D01*
X122300000Y-113400000D02*
X122300000Y-110300000D01*
X122300000Y-110300000D02*
X118700000Y-110300000D01*
X118700000Y-113400000D02*
X122300000Y-113400000D01*
X118700000Y-110300000D02*
X118700000Y-113400000D01*
X137700000Y-50800000D02*
X137700000Y-53900000D01*
X141300000Y-53900000D02*
X141300000Y-50800000D01*
X141300000Y-50800000D02*
X137700000Y-50800000D01*
X137700000Y-53900000D02*
X141300000Y-53900000D01*
X156800000Y-71600000D02*
X160400000Y-71600000D01*
X160400000Y-71600000D02*
X160400000Y-68500000D01*
X160400000Y-68500000D02*
X156800000Y-68500000D01*
X156800000Y-68500000D02*
X156800000Y-71600000D01*
X179400000Y-92000000D02*
X179400000Y-88900000D01*
X179400000Y-88900000D02*
X175800000Y-88900000D01*
X175800000Y-88900000D02*
X175800000Y-92000000D01*
X175800000Y-92000000D02*
X179400000Y-92000000D01*
D13*
X103900000Y-105000000D03*
D14*
X98900000Y-105000000D03*
X101400000Y-105000000D03*
X98900000Y-90500000D03*
X103900000Y-90500000D03*
D15*
X124273000Y-41529000D03*
D16*
X116773000Y-41529000D03*
D15*
X147955000Y-48320000D03*
D16*
X147955000Y-55820000D03*
D15*
X150368000Y-48320000D03*
D16*
X150368000Y-55820000D03*
D15*
X185928000Y-51368000D03*
D16*
X185928000Y-58868000D03*
D15*
X188468000Y-52892000D03*
D16*
X188468000Y-60392000D03*
D15*
X219450000Y-44250000D03*
D16*
X211950000Y-44250000D03*
D15*
X128750000Y-70068750D03*
D16*
X128750000Y-77568750D03*
D15*
X131252540Y-70068750D03*
D16*
X131252540Y-77568750D03*
D15*
X148590000Y-67370000D03*
D16*
X148590000Y-74870000D03*
D15*
X168250000Y-67370000D03*
D16*
X168250000Y-74870000D03*
D15*
X187250000Y-72450000D03*
D16*
X187250000Y-79950000D03*
D15*
X206250000Y-73720000D03*
D16*
X206250000Y-81220000D03*
D15*
X124273000Y-79756000D03*
D16*
X116773000Y-79756000D03*
D15*
X131250000Y-86420000D03*
D16*
X131250000Y-93920000D03*
D15*
X149000000Y-86420000D03*
D16*
X149000000Y-93920000D03*
D15*
X168250000Y-86420000D03*
D16*
X168250000Y-93920000D03*
D15*
X187250000Y-91500000D03*
D16*
X187250000Y-99000000D03*
D15*
X219450000Y-83566000D03*
D16*
X211950000Y-83566000D03*
D15*
X128800000Y-108010000D03*
D16*
X128800000Y-115510000D03*
D15*
X131250000Y-108010000D03*
D16*
X131250000Y-115510000D03*
D15*
X149000000Y-105470000D03*
D16*
X149000000Y-112970000D03*
D15*
X168250000Y-105470000D03*
D16*
X168250000Y-112970000D03*
D15*
X187250000Y-110550000D03*
D16*
X187250000Y-118050000D03*
D15*
X204470000Y-110420000D03*
D16*
X204470000Y-117920000D03*
D15*
X111760000Y-94040000D03*
D16*
X111760000Y-101540000D03*
D17*
X114175000Y-125947595D03*
D16*
X110425000Y-119452405D03*
D15*
X119380000Y-124901000D03*
D16*
X119380000Y-132401000D03*
D15*
X140970000Y-124520000D03*
D16*
X140970000Y-132020000D03*
D15*
X158700000Y-125660000D03*
D16*
X158700000Y-133160000D03*
D18*
X84688035Y-53499272D03*
X84688035Y-58579272D03*
X86938035Y-53499272D03*
X86938035Y-58579272D03*
D19*
X115420000Y-50000000D03*
D20*
X120500000Y-50000000D03*
D19*
X125580000Y-50000000D03*
D21*
X116690000Y-47460000D03*
X117960000Y-44920000D03*
X123040000Y-44920000D03*
X124310000Y-47460000D03*
D22*
X113500000Y-47420000D03*
X126200000Y-44880000D03*
D19*
X144580000Y-47600000D03*
D21*
X136960000Y-42520000D03*
D20*
X139500000Y-47600000D03*
D21*
X135690000Y-45060000D03*
X143310000Y-45060000D03*
D19*
X134420000Y-47600000D03*
D21*
X142040000Y-42520000D03*
D22*
X132500000Y-45020000D03*
X145200000Y-42480000D03*
D21*
X161140000Y-41130000D03*
X162410000Y-43670000D03*
D19*
X153520000Y-46210000D03*
X163680000Y-46210000D03*
D21*
X156060000Y-41130000D03*
X154790000Y-43670000D03*
D20*
X158600000Y-46210000D03*
D22*
X151600000Y-43630000D03*
X164300000Y-41090000D03*
D21*
X180140000Y-42520000D03*
X181410000Y-45060000D03*
D19*
X182680000Y-47600000D03*
D21*
X175060000Y-42520000D03*
X173790000Y-45060000D03*
D19*
X172520000Y-47600000D03*
D20*
X177600000Y-47600000D03*
D22*
X170600000Y-45020000D03*
X183300000Y-42480000D03*
D19*
X191620000Y-52400000D03*
D20*
X196700000Y-52400000D03*
D21*
X200510000Y-49860000D03*
X199240000Y-47320000D03*
X192890000Y-49860000D03*
X194160000Y-47320000D03*
D19*
X201780000Y-52400000D03*
D22*
X189700000Y-49820000D03*
X202400000Y-47280000D03*
D21*
X213160000Y-48820000D03*
D19*
X220780000Y-53900000D03*
D21*
X211890000Y-51360000D03*
X218240000Y-48820000D03*
X219510000Y-51360000D03*
D20*
X215700000Y-53900000D03*
D19*
X210620000Y-53900000D03*
D22*
X208700000Y-51320000D03*
X221400000Y-48780000D03*
D20*
X139500000Y-66700000D03*
D21*
X142040000Y-61620000D03*
D19*
X144580000Y-66700000D03*
X134420000Y-66700000D03*
D21*
X135690000Y-64160000D03*
X136960000Y-61620000D03*
X143310000Y-64160000D03*
D22*
X132500000Y-64120000D03*
X145200000Y-61580000D03*
D21*
X162410000Y-62760000D03*
D19*
X153520000Y-65300000D03*
D20*
X158600000Y-65300000D03*
D21*
X161140000Y-60220000D03*
X156060000Y-60220000D03*
X154790000Y-62760000D03*
D19*
X163680000Y-65300000D03*
D22*
X151600000Y-62720000D03*
X164300000Y-60180000D03*
D19*
X182680000Y-66600000D03*
D20*
X177600000Y-66600000D03*
D21*
X180140000Y-61520000D03*
X173790000Y-64060000D03*
X175060000Y-61520000D03*
X181410000Y-64060000D03*
D19*
X172520000Y-66600000D03*
D22*
X170600000Y-64020000D03*
X183300000Y-61480000D03*
D19*
X201780000Y-71300000D03*
D20*
X196700000Y-71300000D03*
D21*
X200510000Y-68760000D03*
X194160000Y-66220000D03*
X199240000Y-66220000D03*
D19*
X191620000Y-71300000D03*
D21*
X192890000Y-68760000D03*
D22*
X189700000Y-68720000D03*
X202400000Y-66180000D03*
D21*
X219510000Y-70260000D03*
D19*
X220780000Y-72800000D03*
D20*
X215700000Y-72800000D03*
D19*
X210620000Y-72800000D03*
D21*
X218240000Y-67720000D03*
X213160000Y-67720000D03*
X211890000Y-70260000D03*
D22*
X208700000Y-70220000D03*
X221400000Y-67680000D03*
D21*
X116690000Y-85560000D03*
D19*
X115420000Y-88100000D03*
D21*
X124310000Y-85560000D03*
X117960000Y-83020000D03*
D20*
X120500000Y-88100000D03*
D21*
X123040000Y-83020000D03*
D19*
X125580000Y-88100000D03*
D22*
X113500000Y-85520000D03*
X126200000Y-82980000D03*
D21*
X135690000Y-83160000D03*
X136960000Y-80620000D03*
X143310000Y-83160000D03*
D20*
X139500000Y-85700000D03*
D19*
X134420000Y-85700000D03*
X144580000Y-85700000D03*
D21*
X142040000Y-80620000D03*
D22*
X132500000Y-83120000D03*
X145200000Y-80580000D03*
D21*
X162410000Y-81860000D03*
X156060000Y-79320000D03*
X154790000Y-81860000D03*
X161140000Y-79320000D03*
D20*
X158600000Y-84400000D03*
D19*
X153520000Y-84400000D03*
X163680000Y-84400000D03*
D22*
X151600000Y-81820000D03*
X164300000Y-79280000D03*
D21*
X180140000Y-80620000D03*
D20*
X177600000Y-85700000D03*
D21*
X175060000Y-80620000D03*
D19*
X182680000Y-85700000D03*
D21*
X181410000Y-83160000D03*
X173790000Y-83160000D03*
D19*
X172520000Y-85700000D03*
D22*
X170600000Y-83120000D03*
X183300000Y-80580000D03*
D21*
X194160000Y-85420000D03*
X200510000Y-87960000D03*
X199240000Y-85420000D03*
D20*
X196700000Y-90500000D03*
D19*
X191620000Y-90500000D03*
X201780000Y-90500000D03*
D21*
X192890000Y-87960000D03*
D22*
X189700000Y-87920000D03*
X202400000Y-85380000D03*
D21*
X219510000Y-89460000D03*
D20*
X215700000Y-92000000D03*
D21*
X211890000Y-89460000D03*
D19*
X220780000Y-92000000D03*
X210620000Y-92000000D03*
D21*
X218240000Y-86920000D03*
X213160000Y-86920000D03*
D22*
X208700000Y-89420000D03*
X221400000Y-86880000D03*
D21*
X123040000Y-102020000D03*
D19*
X125580000Y-107100000D03*
D21*
X116690000Y-104560000D03*
D20*
X120500000Y-107100000D03*
D21*
X124310000Y-104560000D03*
D19*
X115420000Y-107100000D03*
D21*
X117960000Y-102020000D03*
D22*
X113500000Y-104520000D03*
X126200000Y-101980000D03*
D21*
X136960000Y-99720000D03*
D19*
X144580000Y-104800000D03*
X134420000Y-104800000D03*
D21*
X142040000Y-99720000D03*
X135690000Y-102260000D03*
X143310000Y-102260000D03*
D20*
X139500000Y-104800000D03*
D22*
X132500000Y-102220000D03*
X145200000Y-99680000D03*
D20*
X158600000Y-103400000D03*
D21*
X161140000Y-98320000D03*
X156060000Y-98320000D03*
D19*
X163680000Y-103400000D03*
D21*
X154790000Y-100860000D03*
X162410000Y-100860000D03*
D19*
X153520000Y-103400000D03*
D22*
X151600000Y-100820000D03*
X164300000Y-98280000D03*
D20*
X177600000Y-104800000D03*
D21*
X175060000Y-99720000D03*
X173790000Y-102260000D03*
D19*
X182680000Y-104800000D03*
D21*
X180140000Y-99720000D03*
D19*
X172520000Y-104800000D03*
D21*
X181410000Y-102260000D03*
D22*
X170600000Y-102220000D03*
X183300000Y-99680000D03*
D21*
X192890000Y-106960000D03*
X194160000Y-104420000D03*
X200510000Y-106960000D03*
D19*
X201780000Y-109500000D03*
D21*
X199240000Y-104420000D03*
D19*
X191620000Y-109500000D03*
D20*
X196700000Y-109500000D03*
D22*
X189700000Y-106920000D03*
X202400000Y-104380000D03*
D19*
X210670000Y-111000000D03*
D21*
X219560000Y-108460000D03*
D19*
X220830000Y-111000000D03*
D21*
X211940000Y-108460000D03*
X213210000Y-105920000D03*
D20*
X215750000Y-111000000D03*
D21*
X218290000Y-105920000D03*
D22*
X208750000Y-108420000D03*
X221450000Y-105880000D03*
D21*
X98860000Y-92420000D03*
D19*
X96320000Y-97500000D03*
D21*
X97590000Y-94960000D03*
X103940000Y-92420000D03*
D19*
X106480000Y-97500000D03*
D20*
X101400000Y-97500000D03*
D21*
X105210000Y-94960000D03*
D22*
X94400000Y-94920000D03*
X107100000Y-92380000D03*
D20*
X105000000Y-127000000D03*
D21*
X108129409Y-122260295D03*
X105294705Y-122430443D03*
X110669409Y-126659705D03*
X109104705Y-129029557D03*
D19*
X107540000Y-131399409D03*
X102460000Y-122600591D03*
D23*
X103734346Y-119647822D03*
X112284050Y-129376345D03*
D21*
X126190000Y-123460000D03*
X133810000Y-123460000D03*
D19*
X124920000Y-126000000D03*
X135080000Y-126000000D03*
D20*
X130000000Y-126000000D03*
D21*
X132540000Y-120920000D03*
X127460000Y-120920000D03*
D22*
X123000000Y-123420000D03*
X135700000Y-120880000D03*
D21*
X145190000Y-121210000D03*
X151540000Y-118670000D03*
D19*
X143920000Y-123750000D03*
D21*
X152810000Y-121210000D03*
X146460000Y-118670000D03*
D20*
X149000000Y-123750000D03*
D19*
X154080000Y-123750000D03*
D22*
X142000000Y-121170000D03*
X154700000Y-118630000D03*
D21*
X171910000Y-121210000D03*
X170640000Y-118670000D03*
X165560000Y-118670000D03*
D20*
X168100000Y-123750000D03*
D19*
X163020000Y-123750000D03*
D21*
X164290000Y-121210000D03*
D19*
X173180000Y-123750000D03*
D22*
X161100000Y-121170000D03*
X173800000Y-118630000D03*
D24*
X86150000Y-47800000D03*
X86150000Y-40800000D03*
X87900000Y-47800000D03*
X87900000Y-40800000D03*
D25*
X84050000Y-49600000D03*
X90000000Y-49600000D03*
X90000000Y-45600000D03*
X84050000Y-45600000D03*
X84050000Y-42600000D03*
X90000000Y-42600000D03*
X88250000Y-51100000D03*
X85800000Y-51100000D03*
D26*
X86000000Y-85000000D03*
X108000000Y-85000000D03*
D27*
X129600000Y-59600000D03*
X205800000Y-61800000D03*
X129600000Y-97600000D03*
X205800000Y-100000000D03*
X105000000Y-114800000D03*
D28*
X85090000Y-71750000D03*
X85090000Y-65250000D03*
D29*
X92180000Y-41130000D03*
X108718815Y-42325745D03*
X92180000Y-43670000D03*
X108718815Y-44865745D03*
X108718815Y-47405745D03*
X92180000Y-46210000D03*
X92180000Y-48750000D03*
X108718815Y-49945745D03*
X92180000Y-51290000D03*
X108718815Y-52485745D03*
X92180000Y-53830000D03*
X108718815Y-55025745D03*
X108718815Y-57565745D03*
X92180000Y-56370000D03*
X108718815Y-60105745D03*
X92180000Y-58910000D03*
X108718815Y-62645745D03*
X92180000Y-61450000D03*
X92180000Y-63990000D03*
X108718815Y-65185745D03*
X92180000Y-66530000D03*
X108718815Y-67725745D03*
X108718815Y-70265745D03*
X92180000Y-69070000D03*
X107420000Y-69070000D03*
X93478815Y-70265745D03*
X93478815Y-67725745D03*
X107420000Y-66530000D03*
X93478815Y-65185745D03*
X107420000Y-63990000D03*
X93478815Y-62645745D03*
X107420000Y-61450000D03*
X107420000Y-58910000D03*
X93478815Y-60105745D03*
X93478815Y-57565745D03*
X107420000Y-56370000D03*
X107420000Y-53830000D03*
X93478815Y-55025745D03*
X93478815Y-52485745D03*
X107420000Y-51290000D03*
X93478815Y-49945745D03*
X107420000Y-48750000D03*
X93478815Y-47405745D03*
X107420000Y-46210000D03*
X107420000Y-43670000D03*
X93478815Y-44865745D03*
X107420000Y-41130000D03*
X93478815Y-42325745D03*
D18*
X96700000Y-75000000D03*
X99240000Y-75000000D03*
X101780000Y-75000000D03*
X104320000Y-75000000D03*
D30*
X88483973Y-76263759D03*
D18*
X88483973Y-73723759D03*
X91023973Y-76263759D03*
X91023973Y-73723759D03*
X93563973Y-76263759D03*
X93563973Y-73723759D03*
D31*
X174850000Y-51650000D03*
X174850000Y-53050000D03*
D32*
X180350000Y-53050000D03*
D31*
X180350000Y-51650000D03*
D33*
X100117597Y-126643430D03*
X98905161Y-127343430D03*
D34*
X101655161Y-132106570D03*
D33*
X102867597Y-131406570D03*
D31*
X117750000Y-54050000D03*
X117750000Y-55450000D03*
D32*
X123250000Y-55450000D03*
D31*
X123250000Y-54050000D03*
X180350000Y-110250000D03*
X180350000Y-108850000D03*
D35*
X174850000Y-108850000D03*
D31*
X174850000Y-110250000D03*
D36*
X199200000Y-98400000D03*
X199200000Y-101600000D03*
D37*
X194200000Y-101600000D03*
D36*
X194200000Y-98400000D03*
X118000000Y-61100000D03*
X118000000Y-57900000D03*
D38*
X123000000Y-57900000D03*
D36*
X123000000Y-61100000D03*
D31*
X146250000Y-127800000D03*
X146250000Y-129200000D03*
D32*
X151750000Y-129200000D03*
D31*
X151750000Y-127800000D03*
D36*
X156100000Y-57310000D03*
X156100000Y-54110000D03*
D38*
X161100000Y-54110000D03*
D36*
X161100000Y-57310000D03*
X161100000Y-111300000D03*
X161100000Y-114500000D03*
D37*
X156100000Y-114500000D03*
D36*
X156100000Y-111300000D03*
D21*
X124310000Y-66560000D03*
D19*
X125580000Y-69100000D03*
X115420000Y-69100000D03*
D20*
X120500000Y-69100000D03*
D21*
X123040000Y-64020000D03*
X117960000Y-64020000D03*
X116690000Y-66560000D03*
D22*
X113500000Y-66520000D03*
X126200000Y-63980000D03*
D36*
X123000000Y-115000000D03*
X123000000Y-118200000D03*
D37*
X118000000Y-118200000D03*
D36*
X118000000Y-115000000D03*
D18*
X86900000Y-60700000D03*
D31*
X104150000Y-102950000D03*
X104150000Y-101550000D03*
D35*
X98650000Y-101550000D03*
D31*
X98650000Y-102950000D03*
X123250000Y-74550000D03*
X123250000Y-73150000D03*
D35*
X117750000Y-73150000D03*
D31*
X117750000Y-74550000D03*
X155850000Y-88450000D03*
X155850000Y-89850000D03*
D32*
X161350000Y-89850000D03*
D31*
X161350000Y-88450000D03*
X218450000Y-78250000D03*
X218450000Y-76850000D03*
D35*
X212950000Y-76850000D03*
D31*
X212950000Y-78250000D03*
X212950000Y-57950000D03*
X212950000Y-59350000D03*
D32*
X218450000Y-59350000D03*
D31*
X218450000Y-57950000D03*
X193950000Y-94550000D03*
X193950000Y-95950000D03*
D32*
X199450000Y-95950000D03*
D31*
X199450000Y-94550000D03*
X161350000Y-108850000D03*
X161350000Y-107450000D03*
D35*
X155850000Y-107450000D03*
D31*
X155850000Y-108850000D03*
X199450000Y-76750000D03*
X199450000Y-75350000D03*
D35*
X193950000Y-75350000D03*
D31*
X193950000Y-76750000D03*
X155850000Y-50260000D03*
X155850000Y-51660000D03*
D32*
X161350000Y-51660000D03*
D31*
X161350000Y-50260000D03*
D36*
X194200000Y-63500000D03*
X194200000Y-60300000D03*
D38*
X199200000Y-60300000D03*
D36*
X199200000Y-63500000D03*
D31*
X212950000Y-96050000D03*
X212950000Y-97450000D03*
D32*
X218450000Y-97450000D03*
D31*
X218450000Y-96050000D03*
X142250000Y-110250000D03*
X142250000Y-108850000D03*
D35*
X136750000Y-108850000D03*
D31*
X136750000Y-110250000D03*
X136750000Y-89750000D03*
X136750000Y-91150000D03*
D32*
X142250000Y-91150000D03*
D31*
X142250000Y-89750000D03*
X193950000Y-56450000D03*
X193950000Y-57850000D03*
D32*
X199450000Y-57850000D03*
D31*
X199450000Y-56450000D03*
X142250000Y-72150000D03*
X142250000Y-70750000D03*
D35*
X136750000Y-70750000D03*
D31*
X136750000Y-72150000D03*
X165350000Y-127800000D03*
X165350000Y-129200000D03*
D32*
X170850000Y-129200000D03*
D31*
X170850000Y-127800000D03*
X199450000Y-114950000D03*
X199450000Y-113550000D03*
D35*
X193950000Y-113550000D03*
D31*
X193950000Y-114950000D03*
X218500000Y-116450000D03*
X218500000Y-115050000D03*
D35*
X213000000Y-115050000D03*
D31*
X213000000Y-116450000D03*
D18*
X84700000Y-60700000D03*
D31*
X127250000Y-130050000D03*
X127250000Y-131450000D03*
D32*
X132750000Y-131450000D03*
D31*
X132750000Y-130050000D03*
X180350000Y-72050000D03*
X180350000Y-70650000D03*
D35*
X174850000Y-70650000D03*
D31*
X174850000Y-72050000D03*
X117750000Y-92150000D03*
X117750000Y-93550000D03*
D32*
X123250000Y-93550000D03*
D31*
X123250000Y-92150000D03*
X123250000Y-112550000D03*
X123250000Y-111150000D03*
D35*
X117750000Y-111150000D03*
D31*
X117750000Y-112550000D03*
X136750000Y-51650000D03*
X136750000Y-53050000D03*
D32*
X142250000Y-53050000D03*
D31*
X142250000Y-51650000D03*
X161350000Y-70750000D03*
X161350000Y-69350000D03*
D35*
X155850000Y-69350000D03*
D31*
X155850000Y-70750000D03*
X174850000Y-89750000D03*
X174850000Y-91150000D03*
D32*
X180350000Y-91150000D03*
D31*
X180350000Y-89750000D03*
D39*
X104300000Y-70900380D03*
X104300000Y-69899620D03*
X101800000Y-70900380D03*
X101800000Y-69899620D03*
X99200000Y-70900380D03*
X99200000Y-69899620D03*
X96700000Y-70900380D03*
X96700000Y-69899620D03*
M02*
