M48
; DRILL file {KiCad (6.0.1)} date Mon Jan 24 10:18:47 2022
; FORMAT={-:-/ absolute / inch / decimal}
; #@! TF.CreationDate,2022-01-24T10:18:47+00:00
; #@! TF.GenerationSoftware,Kicad,Pcbnew,(6.0.1)
; #@! TF.FileFunction,Plated,1,2,PTH
FMAT,2
INCH
; #@! TA.AperFunction,Plated,PTH,ViaDrill
T1C0.0157
; #@! TA.AperFunction,Plated,PTH,ComponentDrill
T2C0.0197
; #@! TA.AperFunction,Plated,PTH,ComponentDrill
T3C0.0320
; #@! TA.AperFunction,Plated,PTH,ComponentDrill
T4C0.0394
; #@! TA.AperFunction,Plated,PTH,ComponentDrill
T5C0.0512
; #@! TA.AperFunction,Plated,PTH,ComponentDrill
T6C0.1850
%
G90
G05
T1
X3.31Y-2.165
X3.43Y-2.165
X3.4803Y-2.3268
X3.525Y-1.875
X3.53Y-2.065
X3.53Y-2.215
X3.55Y-2.5
X3.58Y-2.265
X3.67Y-2.835
X3.7393Y-1.7193
X3.75Y-4.265
X3.75Y-4.305
X3.76Y-2.47
X3.775Y-2.0664
X3.7854Y-4.355
X3.795Y-3.955
X3.8Y-3.56
X3.81Y-1.765
X3.81Y-1.9141
X3.81Y-2.68
X3.82Y-3.99
X3.86Y-4.35
X3.8636Y-2.1664
X3.8753Y-4.2205
X3.88Y-4.285
X3.89Y-4.91
X3.9Y-3.95
X3.905Y-1.965
X3.925Y-4.92
X3.955Y-2.12
X3.955Y-5.225
X3.9567Y-2.7224
X3.9567Y-2.7539
X3.96Y-4.89
X3.965Y-4.29
X3.99Y-2.02
X3.99Y-4.96
X4.0168Y-2.265
X4.0345Y-2.3622
X4.0354Y-2.7027
X4.0363Y-5.2427
X4.05Y-4.25
X4.0522Y-2.47
X4.0699Y-2.5591
X4.0945Y-2.6083
X4.125Y-1.765
X4.15Y-5.175
X4.155Y-3.925
X4.16Y-1.73
X4.1614Y-1.6339
X4.1614Y-2.0394
X4.1614Y-2.1299
X4.1614Y-2.2362
X4.1614Y-2.3346
X4.1614Y-2.437
X4.1614Y-2.5394
X4.1627Y-2.6779
X4.1634Y-2.5984
X4.24Y-3.535
X4.27Y-3.87
X4.295Y-4.605
X4.31Y-2.895
X4.31Y-3.01
X4.3354Y-1.72
X4.36Y-2.595
X4.365Y-2.45
X4.37Y-2.34
X4.375Y-4.89
X4.38Y-4.1
X4.3838Y-3.59
X4.3873Y-3.085
X4.415Y-3.895
X4.42Y-2.325
X4.425Y-2.69
X4.43Y-4.45
X4.435Y-2.925
X4.435Y-3.515
X4.45Y-1.655
X4.4685Y-1.9485
X4.4685Y-2.4385
X4.4685Y-3.9385
X4.48Y-3.17
X4.495Y-2.145
X4.51Y-2.95
X4.56Y-3.595
X4.565Y-4.2925
X4.565Y-5.1
X4.57Y-2.08
X4.58Y-2.88
X4.6328Y-2.0745
X4.6338Y-4.3244
X4.6342Y-3.5755
X4.65Y-2.835
X4.65Y-4.805
X4.6989Y-2.2377
X4.6999Y-4.4876
X4.7Y-4.095
X4.7Y-4.6296
X4.705Y-3.345
X4.71Y-2.37
X4.715Y-2.3091
X4.7199Y-4.5276
X4.735Y-2.54
X4.775Y-2.405
X4.7799Y-4.559
X4.7799Y-4.6576
X4.7803Y-2.2777
X4.82Y-3.19
X4.8533Y-3.735
X4.8536Y-2.9873
X4.8876Y-3.7669
X4.8878Y-3.0192
X4.9Y-3.545
X4.9274Y-4.5724
X4.93Y-2.21
X4.935Y-4.43
X4.95Y-4.33
X4.9597Y-1.6947
X4.9613Y-4.6813
X4.97Y-2.28
X4.9752Y-5.0361
X5.0Y-2.7
X5.0094Y-5.068
X5.0134Y-4.1916
X5.04Y-1.65
X5.055Y-3.49
X5.11Y-4.8
X5.115Y-4.33
X5.12Y-2.855
X5.12Y-4.495
X5.151Y-1.674
X5.185Y-4.4507
X5.2286Y-5.2275
X5.23Y-3.09
X5.235Y-2.33
X5.235Y-3.84
X5.2628Y-5.2594
X5.305Y-5.06
X5.3475Y-1.9493
X5.3476Y-3.449
X5.3477Y-4.201
X5.3488Y-2.7013
X5.357Y-5.207
X5.3818Y-1.9812
X5.3819Y-3.4809
X5.382Y-4.2329
X5.3831Y-2.7332
X5.39Y-4.93
X5.46Y-1.75
X5.601Y-2.1407
X5.6011Y-3.6404
X5.6012Y-4.3924
X5.6023Y-2.8927
X5.62Y-4.98
X5.6352Y-2.1726
X5.6353Y-3.6723
X5.6354Y-4.4243
X5.6365Y-2.9246
X5.69Y-1.985
X5.69Y-3.505
X5.7Y-2.75
X5.705Y-3.645
X5.7064Y-2.8964
X5.7085Y-4.5935
X5.7232Y-4.9474
X5.7307Y-4.3707
X5.7575Y-4.9792
X5.765Y-1.85
X5.765Y-2.61
X5.765Y-3.35
X5.765Y-4.1
X5.805Y-1.645
X5.8679Y-1.6171
X5.87Y-2.135
X5.875Y-4.705
X5.9Y-1.565
X5.9685Y-2.2815
X5.9685Y-3.0335
X5.9685Y-3.7885
X5.9767Y-5.1388
X5.995Y-4.39
X6.005Y-2.125
X6.0109Y-5.1706
X6.065Y-4.995
X6.07Y-4.195
X6.0989Y-1.8949
X6.0999Y-3.3982
X6.0999Y-2.6461
X6.115Y-5.125
X6.1331Y-1.9268
X6.1339Y-4.1768
X6.1342Y-3.4301
X6.1342Y-2.678
X6.145Y-4.845
X6.1992Y-2.09
X6.2Y-2.23
X6.2Y-4.34
X6.21Y-4.475
X6.2192Y-2.13
X6.22Y-4.38
X6.24Y-1.665
X6.25Y-2.42
X6.2792Y-2.1614
X6.28Y-2.26
X6.28Y-4.4114
X6.28Y-4.51
X6.3533Y-3.5896
X6.3534Y-2.8375
X6.3876Y-3.6215
X6.3876Y-2.8694
X6.415Y-2.085
X6.425Y-4.31
X6.445Y-3.45
X6.4554Y-3.5954
X6.4606Y-2.8381
X6.465Y-2.14
X6.465Y-4.595
X6.4739Y-4.9476
X6.485Y-4.365
X6.5082Y-4.9795
X6.52Y-1.81
X6.52Y-2.55
X6.52Y-3.305
X6.52Y-4.045
X6.55Y-2.26
X6.62Y-4.74
X6.6725Y-1.6725
X6.7Y-5.15
X6.715Y-3.09
X6.7165Y-2.3335
X6.7165Y-3.8465
X6.74Y-4.935
X6.75Y-5.155
X6.8475Y-4.201
X6.8476Y-1.9493
X6.8483Y-3.4492
X6.8484Y-2.6973
X6.8818Y-4.2329
X6.8818Y-1.9812
X6.8825Y-3.4811
X6.8826Y-2.7292
X6.8937Y-4.8487
X6.985Y-1.72
X7.101Y-4.3924
X7.101Y-2.1407
X7.1017Y-3.6407
X7.1018Y-2.8887
X7.1352Y-4.4243
X7.1353Y-2.1726
X7.1359Y-3.6725
X7.136Y-2.9206
X7.165Y-4.4538
X7.18Y-3.702
X7.185Y-2.9501
X7.2Y-4.4715
X7.205Y-3.545
X7.22Y-2.715
X7.225Y-4.225
X7.23Y-4.4976
X7.265Y-1.86
X7.265Y-2.595
X7.265Y-4.11
X7.27Y-3.35
X7.315Y-1.92
X7.32Y-2.705
X7.4685Y-1.7835
X7.4685Y-2.5285
X7.4685Y-3.2835
X7.4685Y-4.0265
X7.515Y-2.315
X7.535Y-3.255
X7.535Y-3.7222
X7.58Y-3.87
X7.5989Y-3.6374
X7.5989Y-4.3861
X7.5992Y-2.8825
X7.5997Y-2.1381
X7.6332Y-3.6692
X7.6332Y-4.418
X7.6334Y-2.9144
X7.6339Y-2.17
X7.6992Y-3.8324
X7.7004Y-2.46
X7.705Y-2.33
X7.705Y-2.4052
X7.7192Y-3.8724
X7.745Y-3.245
X7.745Y-4.005
X7.765Y-2.375
X7.765Y-2.665
X7.7792Y-3.9038
X7.785Y-2.5
X7.785Y-3.965
X7.8524Y-4.5775
X7.8526Y-3.0739
X7.865Y-3.635
X7.8866Y-4.6094
X7.8869Y-3.1058
X7.91Y-3.81
X7.93Y-2.3021
X7.945Y-3.9
X7.955Y-2.18
X7.9558Y-3.0786
X7.965Y-2.355
X7.965Y-4.585
X7.97Y-2.96
X7.975Y-3.665
X8.0Y-4.285
X8.015Y-3.545
X8.02Y-2.05
X8.02Y-2.795
X8.065Y-3.66
X8.075Y-2.125
X8.1189Y-3.7569
X8.17Y-3.4
X8.1751Y-1.9199
X8.185Y-1.81
X8.2165Y-3.3265
X8.225Y-2.585
X8.225Y-4.075
X8.32Y-3.935
X8.325Y-2.54
X8.3471Y-2.1973
X8.3478Y-3.6972
X8.3487Y-2.9418
X8.3494Y-4.4453
X8.3814Y-2.2291
X8.382Y-3.7291
X8.3829Y-2.9736
X8.3837Y-4.4771
X8.49Y-3.49
X8.5Y-3.945
X8.51Y-2.44
X8.545Y-3.3419
X8.565Y-2.395
X8.575Y-3.135
X8.585Y-3.89
X8.59Y-4.63
X8.6575Y-1.8375
X8.665Y-3.08
X8.67Y-4.595
X8.765Y-2.84
X8.7697Y-4.3453
T3
X3.3342Y-2.1063
X3.3342Y-2.3063
X3.3346Y-2.3898
X3.4213Y-2.3898
X3.4228Y-2.1063
X3.4228Y-2.3063
X3.4836Y-2.9025
X3.4836Y-3.0025
X3.5836Y-2.9025
X3.5836Y-3.0025
X3.6291Y-1.6193
X3.6291Y-1.7193
X3.6291Y-1.8193
X3.6291Y-1.9193
X3.6291Y-2.0193
X3.6291Y-2.1193
X3.6291Y-2.2193
X3.6291Y-2.3193
X3.6291Y-2.4193
X3.6291Y-2.5193
X3.6291Y-2.6193
X3.6291Y-2.7193
X3.6803Y-1.6664
X3.6803Y-1.7664
X3.6803Y-1.8664
X3.6803Y-1.9664
X3.6803Y-2.0664
X3.6803Y-2.1664
X3.6803Y-2.2664
X3.6803Y-2.3664
X3.6803Y-2.4664
X3.6803Y-2.5664
X3.6803Y-2.6664
X3.6803Y-2.7664
X3.6836Y-2.9025
X3.6836Y-3.0025
X3.8071Y-2.9528
X3.9071Y-2.9528
X4.0071Y-2.9528
X4.1071Y-2.9528
X4.2291Y-1.6193
X4.2291Y-1.7193
X4.2291Y-1.8193
X4.2291Y-1.9193
X4.2291Y-2.0193
X4.2291Y-2.1193
X4.2291Y-2.2193
X4.2291Y-2.3193
X4.2291Y-2.4193
X4.2291Y-2.5193
X4.2291Y-2.6193
X4.2291Y-2.7193
X4.2803Y-1.6664
X4.2803Y-1.7664
X4.2803Y-1.8664
X4.2803Y-1.9664
X4.2803Y-2.0664
X4.2803Y-2.1664
X4.2803Y-2.2664
X4.2803Y-2.3664
X4.2803Y-2.4664
X4.2803Y-2.5664
X4.2803Y-2.6664
X4.2803Y-2.7664
T4
X3.8937Y-3.563
X3.8937Y-4.1339
X3.9921Y-4.1339
X4.0906Y-3.563
X4.0906Y-4.1339
X4.3474Y-4.7029
X4.4Y-3.7024
X4.4Y-3.9976
X4.4951Y-4.9586
X4.5974Y-1.635
X4.5974Y-3.14
X4.7Y-4.9174
X4.7Y-5.2126
X4.8926Y-1.635
X4.8926Y-3.14
X5.0689Y-2.7586
X5.0689Y-3.0539
X5.0709Y-4.2524
X5.0709Y-4.5476
X5.1673Y-3.4024
X5.1673Y-3.6976
X5.1673Y-4.2524
X5.1673Y-4.5476
X5.1674Y-2.7586
X5.1674Y-3.0539
X5.55Y-4.9024
X5.55Y-5.1976
X5.825Y-1.9024
X5.825Y-2.1976
X5.85Y-2.6524
X5.85Y-2.9476
X5.8661Y-3.4024
X5.8661Y-3.6976
X5.8661Y-4.1524
X5.8661Y-4.4476
X5.92Y-1.9024
X5.92Y-2.1976
X6.248Y-4.9472
X6.248Y-5.2425
X6.624Y-2.6524
X6.624Y-2.9476
X6.624Y-3.4024
X6.624Y-3.6976
X6.624Y-4.1524
X6.624Y-4.4476
X7.32Y-2.0224
X7.32Y-2.3176
X7.372Y-2.8524
X7.372Y-3.1476
X7.372Y-3.6024
X7.372Y-3.8976
X7.372Y-4.3524
X7.372Y-4.6476
X7.42Y-2.0824
X7.42Y-2.3776
X8.05Y-4.3472
X8.05Y-4.6425
X8.1201Y-2.9024
X8.1201Y-3.1976
X8.3445Y-1.7421
X8.3445Y-3.29
X8.6398Y-1.7421
X8.6398Y-3.29
T5
X3.35Y-2.5689
X3.35Y-2.8248
T6
X4.1339Y-4.5197
X5.1024Y-2.3465
X5.1024Y-3.8425
X8.1024Y-2.4331
X8.1024Y-3.937
T2
G00X3.3091Y-1.6555
M15
G01X3.3091Y-1.6988
M16
G05
G00X3.3091Y-1.7736
M15
G01X3.3091Y-1.8169
M16
G05
G00X3.3091Y-1.9311
M15
G01X3.3091Y-1.9744
M16
G05
G00X3.378Y-1.9902
M15
G01X3.378Y-2.0335
M16
G05
G00X3.4744Y-1.9902
M15
G01X3.4744Y-2.0335
M16
G05
G00X3.5433Y-1.6555
M15
G01X3.5433Y-1.6988
M16
G05
G00X3.5433Y-1.7736
M15
G01X3.5433Y-1.8169
M16
G05
G00X3.5433Y-1.9311
M15
G01X3.5433Y-1.9744
M16
G05
T0
M30
